<?xml version="1.0" encoding="utf-8"?>
<!-- Generator: Adobe Illustrator 21.0.2, SVG Export Plug-In . SVG Version: 6.00 Build 0)  -->
<svg version="1.1" id="Layer_1" xmlns="http://www.w3.org/2000/svg" xmlns:xlink="http://www.w3.org/1999/xlink" x="0px" y="0px"
	 viewBox="0 0 47.3 72.3" style="enable-background:new 0 0 47.3 72.3;" xml:space="preserve">
<style type="text/css">
	.st0{fill:#D2422F;}
</style>
<g>
	<path class="st0" d="M11.9,10.3c0,1-0.4,1.9-1.1,2.6C10,13.6,9.1,14,7.9,14c-1.2,0-2.1-0.4-2.9-1.1C4.3,12.2,4,11.3,4,10.3v-3
		c0-1,0.4-1.9,1.1-2.6C5.8,4,6.7,3.6,7.9,3.6c1.2,0,2.1,0.4,2.8,1.1c0.7,0.7,1.1,1.6,1.1,2.6V10.3z M10.2,7.2C10.2,6,9.3,5,7.9,5
		S5.6,6,5.6,7.2v3.2c0,1.2,0.9,2.2,2.4,2.2s2.3-1,2.3-2.2V7.2z"/>
	<path class="st0" d="M27.9,13.8h-1.6V7.2C26.3,6,25.5,5,24.1,5c-0.6,0-1.2,0.2-1.7,0.7c-0.5,0.4-0.7,0.9-0.7,1.4v6.7H20v-10h1.4
		l0.1,1.1c0.1-0.1,0.2-0.2,0.3-0.3C22,4.4,22.3,4.2,22.8,4c0.5-0.2,1-0.4,1.5-0.4c2.3,0,3.6,1.6,3.6,3.7V13.8z"/>
	<path class="st0" d="M43.6,10.7c0,1.2-1.1,3.2-3.7,3.2c-1.2,0-2.2-0.4-2.9-1.1c-0.7-0.7-1.1-1.6-1.1-2.6v-3c0-1,0.4-1.9,1.1-2.6
		c0.7-0.7,1.7-1.1,2.9-1.1S42,4,42.7,4.7c0.7,0.7,1.1,1.6,1.1,2.6v2h-6.2v1.1c0,1.2,0.9,2.2,2.4,2.2c1.1,0,2.1-0.8,2.1-1.8H43.6z
		 M37.5,7.8h4.7V7.2C42.1,6,41.2,5,39.8,5s-2.4,1-2.4,2.2V7.8z"/>
	<path class="st0" d="M4.3,29v-0.1h1.6V29c0,0.9,0.7,1.7,2,1.7c1.1,0,1.9-0.6,1.9-1.5c0-0.8-0.8-1.3-1.8-1.6
		c-1.5-0.5-3.3-1.1-3.3-2.9c0-1.7,1.4-2.9,3.4-2.9c1.1,0,1.9,0.3,2.5,0.9c0.6,0.6,0.9,1.3,0.9,2v0.2H9.8c0-0.9-0.6-1.6-1.7-1.6
		c-1,0-1.7,0.6-1.7,1.4c0,0.7,0.8,1.1,1.8,1.5c1.5,0.5,3.3,1.1,3.3,3.2c0,0.8-0.3,1.5-1,2c-0.7,0.6-1.5,0.8-2.5,0.8
		C5.2,32.2,4.3,30.2,4.3,29z"/>
	<path class="st0" d="M20.1,23.5v-1.4h5v8.5h3V32h-8v-1.4h3.4v-7.1H20.1z M23.3,20.4v-1.8h1.8v1.8H23.3z"/>
	<path class="st0" d="M37.6,22.1l2.2,3.5l2.1-3.5h1.9l-3,4.9l3.1,5.1h-1.8l-2.3-3.7L37.5,32h-1.8l3.1-5.1l-3-4.9H37.6z"/>
	<path class="st0" d="M6.9,37.7v2.6h5.1v1.4H6.9v5.4c0,1.1,0.7,1.9,2,1.9c1.1,0,1.9-0.8,1.9-1.9h1.6c0,2-1.3,3.3-3.5,3.3
		c-2.4,0-3.6-1.4-3.6-3.2v-5.5H3.5v-1.4h1.8v-2.6H6.9z"/>
	<path class="st0" d="M27.6,47.2c0,1.2-1.1,3.2-3.7,3.2c-1.2,0-2.2-0.4-2.9-1.1c-0.7-0.7-1.1-1.6-1.1-2.6v-3c0-1,0.4-1.9,1.1-2.6
		c0.7-0.7,1.7-1.1,2.9-1.1c1.2,0,2.1,0.4,2.8,1.1c0.7,0.7,1.1,1.6,1.1,2.6v2h-6.2v1.1c0,1.2,0.9,2.2,2.4,2.2c1.1,0,2.1-0.8,2.1-1.8
		H27.6z M21.5,44.4h4.7v-0.7c0-1.2-0.9-2.2-2.3-2.2s-2.4,1-2.4,2.2V44.4z"/>
	<path class="st0" d="M43.6,47.2c0,1.2-1.1,3.2-3.7,3.2c-1.2,0-2.2-0.4-2.9-1.1c-0.7-0.7-1.1-1.6-1.1-2.6v-3c0-1,0.4-1.9,1.1-2.6
		c0.7-0.7,1.7-1.1,2.9-1.1s2.1,0.4,2.8,1.1c0.7,0.7,1.1,1.6,1.1,2.6v2h-6.2v1.1c0,1.2,0.9,2.2,2.4,2.2c1.1,0,2.1-0.8,2.1-1.8H43.6z
		 M37.5,44.4h4.7v-0.7c0-1.2-0.9-2.2-2.3-2.2s-2.4,1-2.4,2.2V44.4z"/>
	<path class="st0" d="M11.9,68.5h-1.6V62c0-1.3-0.8-2.2-2.2-2.2c-0.6,0-1.2,0.2-1.7,0.7c-0.5,0.4-0.7,0.9-0.7,1.4v6.7H4.1v-10h1.4
		l0.1,1.1c0.1-0.1,0.2-0.2,0.3-0.3C6,59.2,6.4,59,6.8,58.7c0.5-0.2,1-0.4,1.5-0.4c2.3,0,3.6,1.6,3.6,3.7V68.5z"/>
	<path class="st0" d="M22.8,56v2.6h5.1V60h-5.1v5.4c0,1.1,0.7,1.9,2,1.9c1.1,0,1.9-0.8,1.9-1.9h1.6c0,2-1.3,3.3-3.5,3.3
		c-2.4,0-3.6-1.4-3.6-3.2V60h-1.8v-1.4h1.8V56H22.8z"/>
	<path class="st0" d="M43.8,68.5h-1.6V62c0-1.2-0.9-2.2-2.2-2.2c-0.6,0-1.2,0.2-1.7,0.7c-0.5,0.4-0.7,0.9-0.7,1.4v6.7h-1.6V54.6h1.6
		v5c0,0,0.9-1.2,2.6-1.2c1.1,0,2,0.4,2.6,1.1c0.7,0.7,1,1.6,1,2.6V68.5z"/>
</g>
</svg>
