<?xml version="1.0" encoding="utf-8"?>
<!-- Generator: Adobe Illustrator 21.0.2, SVG Export Plug-In . SVG Version: 6.00 Build 0)  -->
<svg version="1.1" id="Layer_1" xmlns="http://www.w3.org/2000/svg" xmlns:xlink="http://www.w3.org/1999/xlink" x="0px" y="0px"
	 viewBox="0 0 60 60" style="enable-background:new 0 0 60 60;" xml:space="preserve">
<style type="text/css">
	.st0{fill:#D2422F;}
</style>
<g>
	<polygon class="st0" points="27.1,14.7 24.8,28 8.7,28 11,14.7 9,14.7 3.6,45.3 5.6,45.3 8.4,30 24.4,30 21.7,45.3 23.7,45.3 
		29.1,14.7 	"/>
	<g>
		<path class="st0" d="M38.5,15.9"/>
	</g>
	<path class="st0" d="M54.7,18.2c-1.8-2.2-4.8-3.4-8.1-3.4h-9.2l-0.4,2h9.6c2.8,0,5.2,1,6.6,2.7c1.1,1.3,1.5,2.9,1.2,4.5l-2,11.7
		c-0.7,4.1-5.7,7.6-10.8,7.6h-7L38,23h-2l-3.9,22.3h9.4c6.1,0,11.9-4.1,12.8-9.2l2-11.7C56.7,22.1,56.1,19.9,54.7,18.2z"/>
</g>
</svg>
