<?xml version="1.0" encoding="utf-8"?>
<!-- Generator: Adobe Illustrator 21.0.2, SVG Export Plug-In . SVG Version: 6.00 Build 0)  -->
<svg version="1.1" id="Layer_1" xmlns="http://www.w3.org/2000/svg" xmlns:xlink="http://www.w3.org/1999/xlink" x="0px" y="0px"
	 viewBox="0 0 73.9 60" style="enable-background:new 0 0 73.9 60;" xml:space="preserve">
<style type="text/css">
	.st0{fill:#D2422F;}
</style>
<g>
	<g>
		<polygon class="st0" points="25.2,14.7 22.9,28 6.8,28 9.2,14.7 7.1,14.7 1.7,45.3 3.7,45.3 6.5,30 22.5,30 19.8,45.3 21.8,45.3 
			27.2,14.7 		"/>
		<g>
			<path class="st0" d="M36.7,15.9"/>
		</g>
		<path class="st0" d="M52.8,18.2C51,16,48,14.7,44.6,14.7h-9.2l-0.4,2h9.6c2.8,0,5.2,1,6.6,2.7c1.1,1.3,1.5,2.9,1.2,4.5l-2,11.7
			c-0.7,4.1-5.7,7.6-10.8,7.6h-7L36.1,23h-2l-3.9,22.3h9.4c6.1,0,11.9-4.1,12.8-9.2l2-11.7C54.8,22.1,54.2,19.9,52.8,18.2z"/>
	</g>
	<polygon class="st0" points="72.2,20.3 66.9,20.3 67.9,14.7 65.9,14.7 64.9,20.3 59.6,20.3 59.3,22.3 64.6,22.3 63.6,27.7 
		65.6,27.7 66.6,22.3 71.9,22.3 	"/>
</g>
</svg>
