<?xml version="1.0" encoding="utf-8"?>
<!-- Generator: Adobe Illustrator 19.2.1, SVG Export Plug-In . SVG Version: 6.00 Build 0)  -->
<svg version="1.1" id="Layer_1" xmlns="http://www.w3.org/2000/svg" xmlns:xlink="http://www.w3.org/1999/xlink" x="0px" y="0px"
	 viewBox="0 0 100 100" style="enable-background:new 0 0 100 100;" xml:space="preserve">
<style type="text/css">
	.st0{fill:#D2422F;}
</style>
<g>
	<circle class="st0" cx="64.4" cy="50" r="5.5"/>
	<circle class="st0" cx="35.6" cy="50" r="5.5"/>
	<path class="st0" d="M0,0v100h100V0H0z M64.4,60.9H35.6c-6,0-10.9-4.9-10.9-10.9c0-6,4.9-10.9,10.9-10.9c6,0,10.9,4.9,10.9,10.9
		c0,2-0.5,3.8-1.5,5.5h9.8C54,53.8,53.4,52,53.4,50c0-6,4.9-10.9,10.9-10.9c6,0,10.9,4.9,10.9,10.9C75.3,56,70.4,60.9,64.4,60.9z"/>
</g>
</svg>
