<?xml version="1.0" encoding="utf-8"?>
<!-- Generator: Adobe Illustrator 21.0.2, SVG Export Plug-In . SVG Version: 6.00 Build 0)  -->
<svg version="1.1" id="Layer_1" xmlns="http://www.w3.org/2000/svg" xmlns:xlink="http://www.w3.org/1999/xlink" x="0px" y="0px"
	 viewBox="0 0 60 60" style="enable-background:new 0 0 60 60;" xml:space="preserve">
<style type="text/css">
	.st0{fill:#D2422F;}
</style>
<g>
	<path class="st0" d="M54.6,18.2c-1.8-2.2-4.8-3.4-8.1-3.4h-9.2l-0.4,2h9.6c2.8,0,5.2,1,6.6,2.7c1.1,1.3,1.5,2.9,1.2,4.5l-2,11.7
		c-0.7,4.1-5.7,7.6-10.8,7.6h-7L38,23h-2L32,45.2h9.4c6.1,0,11.9-4.1,12.8-9.2l2-11.7C56.6,22.1,56.1,19.9,54.6,18.2z"/>
	<polygon class="st0" points="8.8,14.8 6.2,29.9 24.5,29.9 22.3,43.2 6,43.2 6.8,38.2 4.8,38.2 3.6,45.2 5.7,45.2 24,45.2 
		26.9,27.9 8.6,27.9 10.5,16.8 26.6,16.8 25.8,21.8 27.8,21.8 29,14.8 26.9,14.8 	"/>
</g>
</svg>
