<?xml version="1.0" encoding="utf-8"?>
<!-- Generator: Adobe Illustrator 19.2.1, SVG Export Plug-In . SVG Version: 6.00 Build 0)  -->
<svg version="1.1" id="Layer_1" xmlns="http://www.w3.org/2000/svg" xmlns:xlink="http://www.w3.org/1999/xlink" x="0px" y="0px"
	 viewBox="0 0 60 60" style="enable-background:new 0 0 60 60;" xml:space="preserve">
<style type="text/css">
	.st0{fill:#D2422F;}
</style>
<g>
	<path class="st0" d="M43.6,8c3.3,0,6.4,1.3,8.7,3.6c2.3,2.3,3.6,5.4,3.6,8.7s-1.3,6.4-3.6,8.7L30,51.2L7.7,28.9
		c-2.3-2.3-3.6-5.4-3.6-8.7c0-3.3,1.3-6.4,3.6-8.7C10,9.2,13.1,8,16.4,8c3.3,0,6.4,1.3,8.7,3.6l1.4,1.4l1.4,1.4l0.7,0.7l1.4,1.4
		l1.4-1.4l0.7-0.7l1.4-1.4l1.4-1.4C37.3,9.2,40.3,8,43.6,8 M43.6,6c-3.8,0-7.4,1.5-10.1,4.2l-1.4,1.4L30.7,13L30,13.7L29.3,13
		l-1.4-1.4l-1.4-1.4C23.8,7.5,20.2,6,16.4,6C12.6,6,9,7.5,6.3,10.1c-2.7,2.7-4.2,6.3-4.2,10.1c0,3.8,1.5,7.4,4.2,10.1L30,54
		l23.7-23.7c2.7-2.7,4.2-6.3,4.2-10.1c0-3.8-1.5-7.4-4.2-10.1C51,7.5,47.4,6,43.6,6L43.6,6z"/>
</g>
</svg>
