<?xml version="1.0" encoding="utf-8"?>
<!-- Generator: Adobe Illustrator 21.0.2, SVG Export Plug-In . SVG Version: 6.00 Build 0)  -->
<svg version="1.1" id="Layer_1" xmlns="http://www.w3.org/2000/svg" xmlns:xlink="http://www.w3.org/1999/xlink" x="0px" y="0px"
	 viewBox="0 0 60 60" style="enable-background:new 0 0 60 60;" xml:space="preserve">
<style type="text/css">
	.st0{fill:#D2422F;}
</style>
<g>
	<path class="st0" d="M7.6,49.3H4.3v2h3.3c6.9,0,13.1-3.8,16.2-10L22,40.4C19.3,45.9,13.7,49.3,7.6,49.3z"/>
	<path class="st0" d="M48.3,10.7h3.2l-2.5,2.2l1.3,1.5l5.2-4.7L50.5,5l-1.3,1.5l2.5,2.2h-3.2c-6.9,0-13.1,3.8-16.2,10l1.8,0.9
		C36.6,14.1,42.2,10.7,48.3,10.7z"/>
	<path class="st0" d="M49.1,47.1l2.4,2.2c-8.2-0.4-15.8-5.3-19.3-12.8l-7.1-14.8c-3.8-7.9-12-13-20.8-13v2c8,0,15.5,4.7,19,11.9
		l7.1,14.8c3.9,8.2,12.2,13.6,21.2,13.9l-2.5,2.2l1.3,1.5l5.2-4.7l-5.2-4.7L49.1,47.1z"/>
</g>
</svg>
