<?xml version="1.0" encoding="utf-8"?>
<!-- Generator: Adobe Illustrator 21.0.2, SVG Export Plug-In . SVG Version: 6.00 Build 0)  -->
<svg version="1.1" id="Layer_1" xmlns="http://www.w3.org/2000/svg" xmlns:xlink="http://www.w3.org/1999/xlink" x="0px" y="0px"
	 viewBox="0 0 68 60" style="enable-background:new 0 0 68 60;" xml:space="preserve">
<style type="text/css">
	.st0{fill:#D2422F;}
</style>
<g>
	<polygon class="st0" points="30.1,43 32,43 25.7,34.9 31.4,27.5 29.5,27.5 24.7,33.9 19.8,27.5 21.4,23.7 19.6,23.7 12.4,41.3 
		4.1,23.7 2.4,23.7 11.5,43.3 5.5,57.5 7.2,57.5 19.1,29.1 23.6,34.9 17.4,43 19.2,43 24.7,35.8 	"/>
	<path class="st0" d="M35.5,32.8V20.7c0-4.9,2.2-8.4,7.3-11.6l-0.8-1.3c-2.7,1.7-4.5,3.3-5.8,5.2c-1.5,2.2-2.2,4.7-2.2,7.7v12.1
		c0,2.9,0.7,5.5,2.2,7.7c1.3,1.9,3.1,3.6,5.8,5.2l0.8-1.3C37.7,41.2,35.5,37.7,35.5,32.8z"/>
	<path class="st0" d="M64.1,20.7v12.1c0,4.9-2.2,8.4-7.3,11.6l0.8,1.3c2.7-1.7,4.5-3.3,5.8-5.2c1.5-2.2,2.2-4.7,2.2-7.7V20.7
		c0-2.9-0.7-5.5-2.2-7.7c-1.3-1.9-3.1-3.6-5.8-5.2L56.8,9C62,12.3,64.1,15.7,64.1,20.7z"/>
	<path class="st0" d="M45,2.5l-0.8,1.3c4.5,2.8,6.5,6.1,6.5,10.5V25c0,4.4-2,7.6-6.5,10.5l0.8,1.3c4.9-3.1,7.2-6.8,7.2-11.7V14.2
		C52.1,9.3,49.9,5.6,45,2.5z"/>
</g>
</svg>
