<?xml version="1.0" encoding="UTF-8"?>
<svg width="924px" height="486px" viewBox="0 0 924 486" version="1.1" xmlns="http://www.w3.org/2000/svg" xmlns:xlink="http://www.w3.org/1999/xlink">
    <!-- Generator: Sketch 42 (36781) - http://www.bohemiancoding.com/sketch -->
    <title>about</title>
    <desc>Created with Sketch.</desc>
    <defs></defs>
    <g id="Page-1" stroke="none" stroke-width="1" fill="none" fill-rule="evenodd">
        <g id="about" transform="translate(1.000000, 0.000000)" stroke-width="0.7" stroke="#D04334">
            <g id="Group">
                <path d="M7.5,18 L7.5,27.8 L2.1,27.8 L2.1,0.8 L12.4,0.8 C15.5,0.8 17.9,1.6 19.7,3.2 C21.5,4.8 22.4,6.9 22.4,9.5 C22.4,12.1 21.5,14.2 19.7,15.7 C18,17.2 15.6,18 12.5,18 L7.5,18 Z M7.5,13.9 L12.4,13.9 C13.9,13.9 15.1,13.5 15.8,12.7 C16.6,11.9 17,10.8 17,9.6 C17,8.3 16.6,7.2 15.8,6.4 C15.1,5.4 14,5 12.5,5 L7.6,5 L7.6,13.9 L7.5,13.9 Z" id="Shape"></path>
                <polygon id="Shape" points="34.2 23.7 46.3 23.7 46.3 27.9 28.8 27.9 28.8 0.9 34.2 0.9 34.2 23.7"></polygon>
                <polygon id="Shape" points="58.2 27.8 52.8 27.8 52.8 0.8 58.2 0.8"></polygon>
                <polygon id="Shape" points="75.2 20.5 75.5 22 75.6 22 75.9 20.6 81.8 0.9 87.5 0.9 78.3 27.9 72.7 27.9 63.5 0.9 69.2 0.9"></polygon>
                <polygon id="Shape" points="100.1 16.5 98.1 16.5 98.1 27.8 92.7 27.8 92.7 0.8 98.1 0.8 98.1 11.8 99.6 11.8 107 0.8 113.7 0.8 104.3 13.4 114.4 27.9 107.5 27.9"></polygon>
                <path d="M133.4,22 L124.6,22 L122.8,27.8 L117.1,27.8 L126.2,0.8 L131.7,0.8 L140.8,27.8 L135.1,27.8 L133.4,22 Z M126,17.8 L132.1,17.8 L129.1,8.3 L129,8.3 L126,17.8 Z" id="Shape"></path>
                <polygon id="Shape" points="163.7 27.8 158.3 27.8 158.3 0.8 163.7 0.8"></polygon>
                <path d="M185.6,20.8 C185.6,19.8 185.2,18.9 184.5,18.3 C183.8,17.7 182.5,17.1 180.7,16.5 C177.6,15.6 175.2,14.5 173.6,13.2 C172,11.9 171.2,10.2 171.2,8 C171.2,5.8 172.1,4 173.9,2.6 C175.7,1.2 178,0.5 180.9,0.5 C183.9,0.5 186.3,1.3 188.1,2.8 C189.9,4.3 190.8,6.3 190.7,8.7 L190.7,8.8 L185.4,8.8 C185.4,7.5 185,6.4 184.2,5.7 C183.4,5 182.2,4.6 180.8,4.6 C179.5,4.6 178.4,4.9 177.7,5.6 C177,6.2 176.6,7.1 176.6,8.1 C176.6,9 177,9.8 177.8,10.4 C178.6,11 180,11.6 181.9,12.3 C184.9,13.1 187.1,14.2 188.7,15.6 C190.3,17 191,18.7 191,21 C191,23.3 190.1,25.1 188.3,26.5 C186.5,27.8 184.1,28.5 181.1,28.5 C178.2,28.5 175.7,27.8 173.6,26.3 C171.5,24.9 170.5,22.7 170.6,19.8 L170.6,19.7 L175.9,19.7 C175.9,21.3 176.4,22.5 177.3,23.2 C178.2,24 179.5,24.3 181.1,24.3 C182.5,24.3 183.7,24 184.4,23.4 C185.2,22.6 185.6,21.8 185.6,20.8 Z" id="Shape"></path>
                <path d="M223.5,22 L214.7,22 L212.9,27.8 L207.2,27.8 L216.3,0.8 L221.8,0.8 L230.9,27.8 L225.2,27.8 L223.5,22 Z M216.1,17.8 L222.2,17.8 L219.2,8.3 L219.1,8.3 L216.1,17.8 Z" id="Shape"></path>
                <path d="M253.4,17 L253.4,27.8 L248,27.8 L248,0.8 L257.4,0.8 C260.5,0.8 262.9,1.5 264.6,2.9 C266.3,4.3 267.2,6.3 267.2,8.8 C267.2,10.2 266.8,11.4 266.1,12.4 C265.4,13.4 264.3,14.2 262.9,14.8 C264.5,15.3 265.6,16.1 266.3,17.2 C267,18.3 267.3,19.7 267.3,21.3 L267.3,23.3 C267.3,24.1 267.4,24.8 267.6,25.7 C267.8,26.5 268.2,27.1 268.6,27.5 L268.6,27.9 L263,27.9 C262.5,27.5 262.2,26.8 262,25.9 C261.9,25 261.8,24.1 261.8,23.2 L261.8,21.3 C261.8,20 261.4,18.9 260.7,18.2 C260,17.5 258.9,17.1 257.6,17.1 L253.4,17.1 L253.4,17 Z M253.4,12.9 L257.2,12.9 C258.7,12.9 259.9,12.6 260.6,11.9 C261.3,11.3 261.7,10.3 261.7,9 C261.7,7.8 261.3,6.8 260.6,6 C259.9,5.3 258.8,4.9 257.3,4.9 L253.4,4.9 L253.4,12.9 Z" id="Shape"></path>
                <polygon id="Shape" points="290.1 16 280.1 16 280.1 23.7 292 23.7 292 27.9 274.7 27.9 274.7 0.9 292 0.9 292 5 280.1 5 280.1 11.8 290.1 11.8"></polygon>
                <path d="M312.4,20.8 C312.4,19.8 312,18.9 311.3,18.3 C310.6,17.7 309.3,17.1 307.5,16.5 C304.4,15.6 302,14.5 300.4,13.2 C298.8,11.9 298,10.2 298,8 C298,5.8 298.9,4 300.7,2.6 C302.5,1.2 304.8,0.5 307.7,0.5 C310.7,0.5 313.1,1.3 314.9,2.8 C316.7,4.3 317.6,6.3 317.5,8.7 L317.5,8.8 L312.2,8.8 C312.2,7.5 311.8,6.4 311,5.7 C310.2,5 309,4.6 307.6,4.6 C306.3,4.6 305.2,4.9 304.5,5.6 C303.8,6.2 303.4,7.1 303.4,8.1 C303.4,9 303.8,9.8 304.6,10.4 C305.4,11 306.8,11.6 308.7,12.3 C311.7,13.1 313.9,14.2 315.5,15.6 C317.1,17 317.8,18.7 317.8,21 C317.8,23.3 316.9,25.1 315.1,26.5 C313.3,27.8 310.9,28.5 307.9,28.5 C305,28.5 302.5,27.8 300.4,26.3 C298.3,24.9 297.3,22.7 297.4,19.8 L297.4,19.7 L302.7,19.7 C302.7,21.3 303.2,22.5 304.1,23.2 C305,24 306.3,24.3 307.9,24.3 C309.3,24.3 310.5,24 311.2,23.4 C312,22.6 312.4,21.8 312.4,20.8 Z" id="Shape"></path>
                <polygon id="Shape" points="339.7 16 329.7 16 329.7 23.7 341.6 23.7 341.6 27.9 324.3 27.9 324.3 0.9 341.6 0.9 341.6 5 329.7 5 329.7 11.8 339.7 11.8"></polygon>
                <path d="M361.9,22 L353.1,22 L351.3,27.8 L345.6,27.8 L354.7,0.8 L360.2,0.8 L369.3,27.8 L363.6,27.8 L361.9,22 Z M354.5,17.8 L360.6,17.8 L357.6,8.3 L357.5,8.3 L354.5,17.8 Z" id="Shape"></path>
                <path d="M379.9,17 L379.9,27.8 L374.5,27.8 L374.5,0.8 L383.9,0.8 C387,0.8 389.4,1.5 391.1,2.9 C392.8,4.3 393.7,6.3 393.7,8.8 C393.7,10.2 393.3,11.4 392.6,12.4 C391.9,13.4 390.8,14.2 389.4,14.8 C391,15.3 392.1,16.1 392.8,17.2 C393.5,18.3 393.8,19.7 393.8,21.3 L393.8,23.3 C393.8,24.1 393.9,24.8 394.1,25.7 C394.3,26.5 394.7,27.1 395.1,27.5 L395.1,27.9 L389.5,27.9 C389,27.5 388.7,26.8 388.5,25.9 C388.4,25 388.3,24.1 388.3,23.2 L388.3,21.3 C388.3,20 387.9,18.9 387.2,18.2 C386.5,17.5 385.4,17.1 384.1,17.1 L379.9,17.1 L379.9,17 Z M379.9,12.9 L383.7,12.9 C385.2,12.9 386.4,12.6 387.1,11.9 C387.8,11.3 388.2,10.3 388.2,9 C388.2,7.8 387.8,6.8 387.1,6 C386.4,5.3 385.3,4.9 383.8,4.9 L379.9,4.9 L379.9,12.9 Z" id="Shape"></path>
                <path d="M421.5,18.9 L421.5,19 C421.5,21.9 420.7,24.1 418.9,25.8 C417.1,27.4 414.6,28.2 411.4,28.2 C408.2,28.2 405.5,27.2 403.6,25.1 C401.6,23 400.6,20.3 400.6,17 L400.6,11.6 C400.6,8.3 401.6,5.6 403.5,3.5 C405.4,1.4 408,0.4 411.1,0.4 C414.4,0.4 417,1.2 418.8,2.8 C420.7,4.4 421.6,6.7 421.5,9.6 L421.5,9.7 L416.2,9.7 C416.2,8 415.8,6.7 414.9,5.8 C414.1,5 412.8,4.5 411,4.5 C409.4,4.5 408.1,5.2 407.2,6.5 C406.3,7.8 405.8,9.5 405.8,11.6 L405.8,17 C405.8,19.1 406.3,20.8 407.2,22.1 C408.2,23.4 409.5,24.1 411.2,24.1 C412.8,24.1 414,23.7 414.8,22.8 C415.6,22 416,20.7 416,18.9 L421.5,18.9 L421.5,18.9 Z" id="Shape"></path>
                <polygon id="Shape" points="449.7 27.8 444.3 27.8 444.3 16.6 433.3 16.6 433.3 27.8 427.9 27.8 427.9 0.8 433.3 0.8 433.3 12.4 444.3 12.4 444.3 0.8 449.7 0.8"></polygon>
                <path d="M16.2,72.7 L7.4,72.7 L5.6,78.5 L0,78.5 L9.1,51.5 L14.6,51.5 L23.7,78.5 L18,78.5 L16.2,72.7 Z M8.8,68.4 L14.9,68.4 L11.9,58.9 L11.8,58.9 L8.8,68.4 Z" id="Shape"></path>
                <polygon id="Shape" points="50.6 78.5 45.2 78.5 34.3 60.3 34.2 60.3 34.2 78.5 28.8 78.5 28.8 51.5 34.2 51.5 45.1 69.7 45.2 69.7 45.2 51.5 50.6 51.5 50.6 78.5"></polygon>
                <path d="M58,78.5 L58,51.5 L67.4,51.5 C70.7,51.5 73.4,52.6 75.6,54.7 C77.7,56.8 78.8,59.5 78.8,62.8 L78.8,67.3 C78.8,70.6 77.7,73.3 75.6,75.4 C73.5,77.5 70.7,78.5 67.4,78.5 L58,78.5 L58,78.5 Z M63.5,55.7 L63.5,74.4 L67.5,74.4 C69.3,74.4 70.7,73.7 71.8,72.4 C72.9,71.1 73.4,69.4 73.4,67.3 L73.4,62.8 C73.4,60.7 72.9,59 71.8,57.7 C70.7,56.4 69.3,55.7 67.5,55.7 L63.5,55.7 L63.5,55.7 Z" id="Shape"></path>
                <polygon id="Shape" points="113 66.6 103 66.6 103 74.3 114.9 74.3 114.9 78.5 97.6 78.5 97.6 51.5 114.9 51.5 114.9 55.7 103 55.7 103 62.5 113 62.5"></polygon>
                <path d="M121.2,78.5 L121.2,51.5 L130.6,51.5 C133.9,51.5 136.6,52.6 138.8,54.7 C140.9,56.8 142,59.5 142,62.8 L142,67.3 C142,70.6 140.9,73.3 138.8,75.4 C136.7,77.5 133.9,78.5 130.6,78.5 L121.2,78.5 L121.2,78.5 Z M126.6,55.7 L126.6,74.4 L130.6,74.4 C132.4,74.4 133.8,73.7 134.9,72.4 C136,71.1 136.5,69.4 136.5,67.3 L136.5,62.8 C136.5,60.7 136,59 134.9,57.7 C133.8,56.4 132.4,55.7 130.6,55.7 L126.6,55.7 L126.6,55.7 Z" id="Shape"></path>
                <path d="M170.2,51.5 L170.2,69.2 C170.2,72.2 169.2,74.6 167.2,76.3 C165.2,78 162.6,78.9 159.4,78.9 C156.2,78.9 153.6,78 151.6,76.3 C149.6,74.6 148.6,72.2 148.6,69.2 L148.6,51.5 L154,51.5 L154,69.2 C154,71 154.5,72.4 155.4,73.3 C156.4,74.3 157.7,74.7 159.3,74.7 C161,74.7 162.3,74.2 163.3,73.3 C164.3,72.3 164.8,71 164.8,69.2 L164.8,51.5 L170.2,51.5 Z" id="Shape"></path>
                <path d="M197.6,69.6 L197.6,69.7 C197.6,72.6 196.8,74.8 195,76.5 C193.2,78.1 190.7,78.9 187.5,78.9 C184.3,78.9 181.6,77.9 179.7,75.8 C177.7,73.7 176.7,71 176.7,67.7 L176.7,62.3 C176.7,59 177.7,56.3 179.6,54.2 C181.5,52.1 184.1,51.1 187.2,51.1 C190.5,51.1 193.1,51.9 194.9,53.5 C196.8,55.1 197.7,57.4 197.6,60.3 L197.6,60.4 L192.3,60.4 C192.3,58.7 191.9,57.4 191,56.5 C190.2,55.7 188.9,55.2 187.1,55.2 C185.5,55.2 184.2,55.9 183.3,57.2 C182.4,58.5 181.9,60.2 181.9,62.3 L181.9,67.7 C181.9,69.8 182.4,71.5 183.3,72.8 C184.3,74.1 185.6,74.8 187.3,74.8 C188.9,74.8 190.1,74.4 190.9,73.5 C191.7,72.7 192.1,71.4 192.1,69.6 L197.6,69.6 L197.6,69.6 Z" id="Shape"></path>
                <path d="M218.1,72.7 L209.3,72.7 L207.5,78.5 L201.8,78.5 L210.9,51.5 L216.4,51.5 L225.5,78.5 L219.8,78.5 L218.1,72.7 Z M210.7,68.4 L216.8,68.4 L213.8,58.9 L213.7,58.9 L210.7,68.4 Z" id="Shape"></path>
                <polygon id="Shape" points="247.9 55.7 240.2 55.7 240.2 78.5 234.8 78.5 234.8 55.7 227.2 55.7 227.2 51.5 247.9 51.5"></polygon>
                <polygon id="Shape" points="259.1 78.5 253.7 78.5 253.7 51.5 259.1 51.5"></polygon>
                <path d="M288.8,67.4 C288.8,70.7 287.8,73.5 285.7,75.6 C283.6,77.8 280.9,78.8 277.5,78.8 C274.2,78.8 271.5,77.7 269.4,75.6 C267.3,73.4 266.3,70.7 266.3,67.4 L266.3,62.5 C266.3,59.2 267.3,56.5 269.4,54.3 C271.5,52.1 274.2,51 277.5,51 C280.9,51 283.6,52.1 285.7,54.3 C287.8,56.5 288.9,59.2 288.9,62.5 L288.9,67.4 L288.8,67.4 Z M283.4,62.5 C283.4,60.4 282.9,58.7 281.8,57.3 C280.7,56 279.3,55.3 277.4,55.3 C275.6,55.3 274.1,56 273.1,57.3 C272.1,58.6 271.6,60.4 271.6,62.5 L271.6,67.4 C271.6,69.5 272.1,71.3 273.1,72.6 C274.1,73.9 275.6,74.6 277.4,74.6 C279.3,74.6 280.7,73.9 281.7,72.6 C282.7,71.3 283.3,69.5 283.3,67.4 L283.3,62.5 L283.4,62.5 Z" id="Shape"></path>
                <polygon id="Shape" points="317.4 78.5 312 78.5 301.1 60.3 301 60.3 301 78.5 295.6 78.5 295.6 51.5 301 51.5 311.9 69.7 312 69.7 312 51.5 317.4 51.5"></polygon>
                <path d="M339.2,72.7 L330.4,72.7 L328.6,78.5 L323,78.5 L332.1,51.5 L337.6,51.5 L346.7,78.5 L341,78.5 L339.2,72.7 Z M331.8,68.4 L337.9,68.4 L334.9,58.9 L334.8,58.9 L331.8,68.4 Z" id="Shape"></path>
                <polygon id="Shape" points="357.2 74.4 369.3 74.4 369.3 78.6 351.8 78.6 351.8 51.6 357.2 51.6"></polygon>
                <path d="M401.4,72.7 L392.6,72.7 L390.8,78.5 L385.1,78.5 L394.2,51.5 L399.7,51.5 L408.8,78.5 L403.1,78.5 L401.4,72.7 Z M394,68.4 L400.1,68.4 L397.1,58.9 L397,58.9 L394,68.4 Z" id="Shape"></path>
                <path d="M419.4,67.7 L419.4,78.5 L414,78.5 L414,51.5 L423.4,51.5 C426.5,51.5 428.9,52.2 430.6,53.6 C432.3,55 433.2,57 433.2,59.5 C433.2,60.9 432.8,62.1 432.1,63.1 C431.4,64.1 430.3,64.9 428.9,65.5 C430.5,66 431.6,66.8 432.3,67.9 C433,69 433.3,70.4 433.3,72 L433.3,74 C433.3,74.8 433.4,75.5 433.6,76.4 C433.8,77.2 434.2,77.8 434.6,78.2 L434.6,78.6 L429,78.6 C428.5,78.2 428.2,77.5 428,76.6 C427.9,75.7 427.8,74.8 427.8,73.9 L427.8,72 C427.8,70.7 427.4,69.6 426.7,68.9 C426,68.2 424.9,67.8 423.6,67.8 L419.4,67.8 L419.4,67.7 Z M419.4,63.5 L423.2,63.5 C424.7,63.5 425.9,63.2 426.6,62.5 C427.3,61.9 427.7,60.9 427.7,59.6 C427.7,58.4 427.3,57.4 426.6,56.6 C425.9,55.9 424.8,55.5 423.3,55.5 L419.4,55.5 L419.4,63.5 Z" id="Shape"></path>
                <polygon id="Shape" points="458.5 55.7 450.8 55.7 450.8 78.5 445.4 78.5 445.4 55.7 437.8 55.7 437.8 51.5 458.5 51.5"></polygon>
                <path d="M496.2,69.6 L496.2,69.7 C496.2,72.6 495.4,74.8 493.6,76.5 C491.8,78.1 489.3,78.9 486.1,78.9 C482.9,78.9 480.2,77.9 478.3,75.8 C476.3,73.7 475.3,71 475.3,67.7 L475.3,62.3 C475.3,59 476.3,56.3 478.2,54.2 C480.1,52.1 482.7,51.1 485.8,51.1 C489.1,51.1 491.7,51.9 493.5,53.5 C495.4,55.1 496.3,57.4 496.2,60.3 L496.2,60.4 L490.9,60.4 C490.9,58.7 490.5,57.4 489.6,56.5 C488.8,55.7 487.5,55.2 485.7,55.2 C484.1,55.2 482.8,55.9 481.9,57.2 C481,58.5 480.5,60.2 480.5,62.3 L480.5,67.7 C480.5,69.8 481,71.5 481.9,72.8 C482.9,74.1 484.2,74.8 485.9,74.8 C487.5,74.8 488.7,74.4 489.5,73.5 C490.3,72.7 490.7,71.4 490.7,69.6 L496.2,69.6 L496.2,69.6 Z" id="Shape"></path>
                <polygon id="Shape" points="518 66.6 508 66.6 508 74.3 519.9 74.3 519.9 78.5 502.6 78.5 502.6 51.5 519.9 51.5 519.9 55.7 508 55.7 508 62.5 518 62.5"></polygon>
                <polygon id="Shape" points="548 78.5 542.6 78.5 531.7 60.3 531.6 60.3 531.6 78.5 526.2 78.5 526.2 51.5 531.6 51.5 542.5 69.7 542.6 69.7 542.6 51.5 548 51.5"></polygon>
                <polygon id="Shape" points="573.7 55.7 566 55.7 566 78.5 560.6 78.5 560.6 55.7 553 55.7 553 51.5 573.7 51.5"></polygon>
                <path d="M584.6,67.7 L584.6,78.5 L579.2,78.5 L579.2,51.5 L588.6,51.5 C591.7,51.5 594.1,52.2 595.8,53.6 C597.5,55 598.4,57 598.4,59.5 C598.4,60.9 598,62.1 597.3,63.1 C596.6,64.1 595.5,64.9 594.1,65.5 C595.7,66 596.8,66.8 597.5,67.9 C598.2,69 598.5,70.4 598.5,72 L598.5,74 C598.5,74.8 598.6,75.5 598.8,76.4 C599,77.2 599.4,77.8 599.8,78.2 L599.8,78.6 L594.2,78.6 C593.7,78.2 593.4,77.5 593.2,76.6 C593.1,75.7 593,74.8 593,73.9 L593,72 C593,70.7 592.6,69.6 591.9,68.9 C591.2,68.2 590.1,67.8 588.8,67.8 L584.6,67.8 L584.6,67.7 Z M584.6,63.5 L588.4,63.5 C589.9,63.5 591.1,63.2 591.8,62.5 C592.5,61.9 592.9,60.9 592.9,59.6 C592.9,58.4 592.5,57.4 591.8,56.6 C591.1,55.9 590,55.5 588.5,55.5 L584.6,55.5 L584.6,63.5 Z" id="Shape"></path>
                <polygon id="Shape" points="621.3 66.6 611.3 66.6 611.3 74.3 623.2 74.3 623.2 78.5 605.9 78.5 605.9 51.5 623.2 51.5 623.2 55.7 611.3 55.7 611.3 62.5 621.3 62.5"></polygon>
                <path d="M16.2,123.4 L7.4,123.4 L5.6,129.2 L0,129.2 L9.1,102.2 L14.6,102.2 L23.7,129.2 L18,129.2 L16.2,123.4 Z M8.8,119.1 L14.9,119.1 L11.9,109.6 L11.8,109.6 L8.8,119.1 Z" id="Shape"></path>
                <path d="M46.1,119.4 L46.1,129.2 L40.7,129.2 L40.7,102.2 L51,102.2 C54.1,102.2 56.5,103 58.3,104.6 C60.1,106.2 61,108.3 61,110.9 C61,113.5 60.1,115.6 58.3,117.1 C56.5,118.7 54.1,119.5 51,119.5 L46.1,119.5 L46.1,119.4 Z M46.1,115.2 L51,115.2 C52.5,115.2 53.7,114.8 54.4,114 C55.2,113.2 55.6,112.1 55.6,110.9 C55.6,109.6 55.2,108.5 54.4,107.7 C53.6,106.9 52.5,106.4 51,106.4 L46.1,106.4 L46.1,115.2 L46.1,115.2 Z" id="Shape"></path>
                <polygon id="Shape" points="82.8 117.3 72.8 117.3 72.8 125 84.7 125 84.7 129.2 67.4 129.2 67.4 102.2 84.7 102.2 84.7 106.4 72.8 106.4 72.8 113.2 82.8 113.2"></polygon>
                <path d="M96.4,118.4 L96.4,129.2 L91,129.2 L91,102.2 L100.4,102.2 C103.5,102.2 105.9,102.9 107.6,104.3 C109.3,105.7 110.2,107.7 110.2,110.2 C110.2,111.6 109.8,112.8 109.1,113.8 C108.4,114.8 107.3,115.6 105.9,116.2 C107.5,116.7 108.6,117.5 109.3,118.6 C110,119.7 110.3,121.1 110.3,122.7 L110.3,124.7 C110.3,125.5 110.4,126.2 110.6,127.1 C110.8,127.9 111.2,128.5 111.6,128.9 L111.6,129.3 L106,129.3 C105.5,128.9 105.2,128.2 105,127.3 C104.9,126.4 104.8,125.5 104.8,124.6 L104.8,122.7 C104.8,121.4 104.4,120.3 103.7,119.6 C103,118.9 101.9,118.5 100.6,118.5 L96.4,118.5 L96.4,118.4 Z M96.4,114.2 L100.2,114.2 C101.7,114.2 102.9,113.9 103.6,113.2 C104.3,112.6 104.7,111.6 104.7,110.3 C104.7,109.1 104.3,108.1 103.6,107.3 C102.9,106.6 101.8,106.2 100.3,106.2 L96.4,106.2 L96.4,114.2 Z" id="Shape"></path>
                <polygon id="Shape" points="133.5 118 123.1 118 123.1 129.2 117.7 129.2 117.7 102.2 135.4 102.2 135.4 106.4 123.1 106.4 123.1 113.8 133.5 113.8 133.5 118"></polygon>
                <path d="M163.1,118.1 C163.1,121.4 162.1,124.2 160,126.3 C157.9,128.5 155.2,129.5 151.8,129.5 C148.5,129.5 145.8,128.4 143.7,126.3 C141.6,124.1 140.6,121.4 140.6,118.1 L140.6,113.2 C140.6,109.9 141.6,107.2 143.7,105 C145.8,102.8 148.5,101.7 151.8,101.7 C155.2,101.7 157.9,102.8 160,105 C162.1,107.2 163.2,109.9 163.2,113.2 L163.2,118.1 L163.1,118.1 Z M157.7,113.2 C157.7,111.1 157.2,109.4 156.1,108 C155,106.7 153.6,106 151.7,106 C149.9,106 148.4,106.7 147.4,108 C146.4,109.3 145.9,111.1 145.9,113.2 L145.9,118.1 C145.9,120.2 146.4,122 147.4,123.3 C148.4,124.6 149.9,125.3 151.7,125.3 C153.6,125.3 155,124.6 156,123.3 C157,122 157.6,120.2 157.6,118.1 L157.6,113.2 L157.7,113.2 Z" id="Shape"></path>
                <path d="M175.3,118.4 L175.3,129.2 L169.9,129.2 L169.9,102.2 L179.3,102.2 C182.4,102.2 184.8,102.9 186.5,104.3 C188.2,105.7 189.1,107.7 189.1,110.2 C189.1,111.6 188.7,112.8 188,113.8 C187.3,114.8 186.2,115.6 184.8,116.2 C186.4,116.7 187.5,117.5 188.2,118.6 C188.9,119.7 189.2,121.1 189.2,122.7 L189.2,124.7 C189.2,125.5 189.3,126.2 189.5,127.1 C189.7,127.9 190.1,128.5 190.5,128.9 L190.5,129.3 L185,129.3 C184.5,128.9 184.2,128.2 184,127.3 C183.9,126.4 183.8,125.5 183.8,124.6 L183.8,122.7 C183.8,121.4 183.4,120.3 182.7,119.6 C182,118.9 180.9,118.5 179.6,118.5 L175.3,118.5 L175.3,118.4 Z M175.3,114.2 L179.1,114.2 C180.6,114.2 181.8,113.9 182.5,113.2 C183.2,112.6 183.6,111.6 183.6,110.3 C183.6,109.1 183.2,108.1 182.5,107.3 C181.8,106.6 180.7,106.2 179.2,106.2 L175.3,106.2 L175.3,114.2 Z" id="Shape"></path>
                <polygon id="Shape" points="210.5 122.1 210.6 122.1 217.5 102.2 224.6 102.2 224.6 129.2 219.2 129.2 219.2 110.8 219.1 110.8 212.4 129.3 208.7 129.3 202 110.8 201.9 110.8 201.9 129.3 196.5 129.3 196.5 102.3 203.6 102.3"></polygon>
                <path d="M246.5,123.4 L237.7,123.4 L235.9,129.2 L230.2,129.2 L239.3,102.2 L244.8,102.2 L253.9,129.2 L248.2,129.2 L246.5,123.4 Z M239.1,119.1 L245.2,119.1 L242.2,109.6 L242.1,109.6 L239.1,119.1 Z" id="Shape"></path>
                <polygon id="Shape" points="280.9 129.2 275.5 129.2 264.6 111 264.5 111 264.5 129.2 259.1 129.2 259.1 102.2 264.5 102.2 275.4 120.4 275.5 120.4 275.5 102.2 280.9 102.2"></polygon>
                <path d="M308.6,120.3 L308.6,120.4 C308.6,123.3 307.8,125.5 306,127.2 C304.2,128.8 301.7,129.6 298.5,129.6 C295.3,129.6 292.6,128.6 290.7,126.5 C288.7,124.4 287.7,121.7 287.7,118.4 L287.7,113 C287.7,109.7 288.7,107 290.6,104.9 C292.5,102.8 295.1,101.8 298.2,101.8 C301.5,101.8 304.1,102.6 305.9,104.2 C307.8,105.8 308.7,108.1 308.6,111 L308.6,111.1 L303.3,111.1 C303.3,109.4 302.9,108.1 302,107.2 C301.2,106.4 299.9,105.9 298.1,105.9 C296.5,105.9 295.2,106.6 294.3,107.9 C293.4,109.2 292.9,110.9 292.9,113 L292.9,118.4 C292.9,120.5 293.4,122.2 294.3,123.5 C295.3,124.8 296.6,125.5 298.3,125.5 C299.9,125.5 301.1,125.1 301.9,124.2 C302.7,123.4 303.1,122.1 303.1,120.3 L308.6,120.3 L308.6,120.3 Z" id="Shape"></path>
                <polygon id="Shape" points="330.5 117.3 320.5 117.3 320.5 125 332.4 125 332.4 129.2 315 129.2 315 102.2 332.3 102.2 332.3 106.4 320.4 106.4 320.4 113.2 330.4 113.2 330.4 117.3"></polygon>
                <polygon id="Shape" points="359.8 121.9 360.1 123.4 360.2 123.4 360.5 122 366.4 102.3 372.1 102.3 362.9 129.3 357.3 129.3 348.1 102.3 353.8 102.3"></polygon>
                <polygon id="Shape" points="392.6 117.3 382.6 117.3 382.6 125 394.5 125 394.5 129.2 377.2 129.2 377.2 102.2 394.5 102.2 394.5 106.4 382.6 106.4 382.6 113.2 392.6 113.2"></polygon>
                <polygon id="Shape" points="422.6 129.2 417.2 129.2 406.3 111 406.2 111 406.2 129.2 400.8 129.2 400.8 102.2 406.2 102.2 417.1 120.4 417.2 120.4 417.2 102.2 422.6 102.2 422.6 129.2"></polygon>
                <path d="M451.5,102.2 L451.5,119.9 C451.5,122.9 450.5,125.3 448.5,127 C446.5,128.7 443.9,129.6 440.7,129.6 C437.5,129.6 434.9,128.7 432.9,127 C430.9,125.3 429.9,122.9 429.9,119.9 L429.9,102.2 L435.3,102.2 L435.3,119.9 C435.3,121.7 435.8,123.1 436.7,124 C437.7,125 439,125.4 440.6,125.4 C442.3,125.4 443.6,124.9 444.6,124 C445.6,123 446.1,121.7 446.1,119.9 L446.1,102.2 L451.5,102.2 Z" id="Shape"></path>
                <polygon id="Shape" points="474.1 117.3 464.1 117.3 464.1 125 476 125 476 129.2 458.7 129.2 458.7 102.2 476 102.2 476 106.4 464.1 106.4 464.1 113.2 474.1 113.2"></polygon>
                <path d="M488.5,129 L485.5,134.8 L481.9,134.8 L483.2,128.8 L483.2,124.6 L488.5,124.6 L488.5,129 Z M487.9,113 L482.5,113 L482.5,108.2 L487.9,108.2 L487.9,113 Z" id="Shape"></path>
                <path d="M16.2,174.1 L7.4,174.1 L5.6,179.9 L0,179.9 L9.1,152.9 L14.6,152.9 L23.7,179.9 L18,179.9 L16.2,174.1 Z M8.8,169.8 L14.9,169.8 L11.9,160.3 L11.8,160.3 L8.8,169.8 Z" id="Shape"></path>
                <path d="M61,171 L61,171.1 C61,174 60.2,176.2 58.4,177.9 C56.6,179.5 54.1,180.3 50.9,180.3 C47.7,180.3 45,179.3 43.1,177.2 C41.1,175.1 40.1,172.4 40.1,169.1 L40.1,163.7 C40.1,160.4 41.1,157.7 43,155.6 C44.9,153.5 47.5,152.5 50.6,152.5 C53.9,152.5 56.5,153.3 58.3,154.9 C60.2,156.5 61.1,158.8 61,161.7 L61,161.8 L55.7,161.8 C55.7,160.1 55.3,158.8 54.4,157.9 C53.6,157.1 52.3,156.6 50.5,156.6 C48.9,156.6 47.6,157.3 46.7,158.6 C45.8,159.9 45.3,161.6 45.3,163.7 L45.3,169.1 C45.3,171.2 45.8,172.9 46.7,174.2 C47.7,175.5 49,176.2 50.7,176.2 C52.3,176.2 53.5,175.8 54.3,174.9 C55.1,174.1 55.5,172.8 55.5,171 L61,171 Z" id="Shape"></path>
                <path d="M89.2,168.8 C89.2,172.1 88.2,174.9 86.1,177 C84,179.2 81.3,180.2 77.9,180.2 C74.6,180.2 71.9,179.1 69.8,177 C67.7,174.8 66.7,172.1 66.7,168.8 L66.7,164 C66.7,160.7 67.7,158 69.8,155.8 C71.9,153.6 74.6,152.5 77.9,152.5 C81.3,152.5 84,153.6 86.1,155.8 C88.2,158 89.3,160.7 89.3,164 L89.3,168.8 L89.2,168.8 Z M83.8,163.9 C83.8,161.8 83.3,160.1 82.2,158.7 C81.1,157.4 79.7,156.7 77.8,156.7 C76,156.7 74.5,157.4 73.5,158.7 C72.5,160 72,161.8 72,163.9 L72,168.8 C72,170.9 72.5,172.7 73.5,174 C74.5,175.3 76,176 77.8,176 C79.7,176 81.1,175.3 82.1,174 C83.1,172.7 83.7,170.9 83.7,168.8 L83.7,163.9 L83.8,163.9 Z" id="Shape"></path>
                <polygon id="Shape" points="109.9 172.8 110 172.8 116.9 152.9 124 152.9 124 179.9 118.6 179.9 118.6 161.5 118.5 161.5 111.8 180 108.1 180 101.4 161.5 101.3 161.5 101.3 180 96 180 96 153 103.1 153"></polygon>
                <polygon id="Shape" points="145.5 172.8 145.6 172.8 152.5 152.9 159.6 152.9 159.6 179.9 154.2 179.9 154.2 161.5 154.1 161.5 147.4 180 143.7 180 137 161.5 136.9 161.5 136.9 180 131.5 180 131.5 153 138.6 153"></polygon>
                <path d="M188.4,152.9 L188.4,170.6 C188.4,173.6 187.4,176 185.4,177.7 C183.4,179.4 180.8,180.3 177.6,180.3 C174.4,180.3 171.8,179.4 169.8,177.7 C167.8,176 166.8,173.6 166.8,170.6 L166.8,152.9 L172.2,152.9 L172.2,170.6 C172.2,172.4 172.7,173.8 173.6,174.7 C174.6,175.7 175.9,176.1 177.5,176.1 C179.2,176.1 180.5,175.6 181.5,174.7 C182.5,173.7 183,172.4 183,170.6 L183,152.9 L188.4,152.9 Z" id="Shape"></path>
                <polygon id="Shape" points="217.4 179.9 212 179.9 201.1 161.7 201 161.7 201 179.9 195.6 179.9 195.6 152.9 201 152.9 211.9 171.1 212 171.1 212 152.9 217.4 152.9"></polygon>
                <polygon id="Shape" points="230.7 179.9 225.3 179.9 225.3 152.9 230.7 152.9"></polygon>
                <polygon id="Shape" points="256.8 157.1 249.1 157.1 249.1 179.9 243.7 179.9 243.7 157.1 236.1 157.1 236.1 152.9 256.8 152.9"></polygon>
                <polygon id="Shape" points="272.1 165.3 272.2 165.3 278.1 152.8 284 152.8 274.7 170.3 274.7 179.8 269.3 179.8 269.3 170 260.2 152.8 266.1 152.8"></polygon>
                <path d="M323,168.8 C323,172.1 322,174.9 319.9,177 C317.8,179.2 315.1,180.2 311.7,180.2 C308.4,180.2 305.7,179.1 303.6,177 C301.5,174.8 300.5,172.1 300.5,168.8 L300.5,164 C300.5,160.7 301.5,158 303.6,155.8 C305.7,153.6 308.4,152.5 311.7,152.5 C315.1,152.5 317.8,153.6 319.9,155.8 C322,158 323.1,160.7 323.1,164 L323.1,168.8 L323,168.8 Z M317.6,163.9 C317.6,161.8 317.1,160.1 316,158.7 C314.9,157.4 313.5,156.7 311.6,156.7 C309.8,156.7 308.3,157.4 307.3,158.7 C306.3,160 305.8,161.8 305.8,163.9 L305.8,168.8 C305.8,170.9 306.3,172.7 307.3,174 C308.3,175.3 309.8,176 311.6,176 C313.5,176 314.9,175.3 315.9,174 C316.9,172.7 317.5,170.9 317.5,168.8 L317.5,163.9 L317.6,163.9 Z" id="Shape"></path>
                <polygon id="Shape" points="345.5 168.7 335.1 168.7 335.1 179.9 329.7 179.9 329.7 152.9 347.4 152.9 347.4 157.1 335.1 157.1 335.1 164.5 345.5 164.5"></polygon>
                <path d="M379.3,174.1 L370.5,174.1 L368.7,179.9 L363,179.9 L372.1,152.9 L377.6,152.9 L386.7,179.9 L381,179.9 L379.3,174.1 Z M371.9,169.8 L378,169.8 L375,160.3 L374.9,160.3 L371.9,169.8 Z" id="Shape"></path>
                <path d="M397.3,169.1 L397.3,179.9 L391.9,179.9 L391.9,152.9 L401.3,152.9 C404.4,152.9 406.8,153.6 408.5,155 C410.2,156.4 411.1,158.4 411.1,160.9 C411.1,162.3 410.7,163.5 410,164.5 C409.3,165.5 408.2,166.3 406.8,166.9 C408.4,167.4 409.5,168.2 410.2,169.3 C410.9,170.4 411.2,171.8 411.2,173.4 L411.2,175.4 C411.2,176.2 411.3,176.9 411.5,177.8 C411.7,178.6 412.1,179.2 412.5,179.6 L412.5,180 L407,180 C406.5,179.6 406.2,178.9 406,178 C405.9,177.1 405.8,176.2 405.8,175.3 L405.8,173.4 C405.8,172.1 405.4,171 404.7,170.3 C404,169.6 402.9,169.2 401.6,169.2 L397.3,169.2 L397.3,169.1 Z M397.3,164.9 L401.1,164.9 C402.6,164.9 403.8,164.6 404.5,163.9 C405.2,163.3 405.6,162.3 405.6,161 C405.6,159.8 405.2,158.8 404.5,158 C403.8,157.3 402.7,156.9 401.2,156.9 L397.3,156.9 L397.3,164.9 Z" id="Shape"></path>
                <polygon id="Shape" points="436.5 157.1 428.8 157.1 428.8 179.9 423.4 179.9 423.4 157.1 415.8 157.1 415.8 152.9 436.5 152.9"></polygon>
                <polygon id="Shape" points="447.7 179.9 442.3 179.9 442.3 152.9 447.7 152.9"></polygon>
                <path d="M469.6,172.9 C469.6,171.9 469.2,171 468.5,170.4 C467.8,169.8 466.5,169.2 464.7,168.6 C461.6,167.7 459.2,166.6 457.6,165.3 C456,164 455.2,162.3 455.2,160.1 C455.2,157.9 456.1,156.1 457.9,154.7 C459.7,153.3 462,152.6 464.9,152.6 C467.9,152.6 470.3,153.4 472.1,154.9 C473.9,156.4 474.8,158.4 474.7,160.8 L474.7,160.9 L469.4,160.9 C469.4,159.6 469,158.5 468.2,157.8 C467.4,157.1 466.2,156.7 464.8,156.7 C463.5,156.7 462.4,157 461.7,157.7 C461,158.3 460.6,159.2 460.6,160.2 C460.6,161.1 461,161.9 461.8,162.5 C462.6,163.1 464,163.7 465.9,164.4 C468.9,165.2 471.1,166.3 472.7,167.7 C474.3,169.1 475,170.8 475,173.1 C475,175.4 474.1,177.2 472.3,178.6 C470.5,179.9 468.1,180.6 465.1,180.6 C462.2,180.6 459.7,179.9 457.6,178.4 C455.5,177 454.5,174.8 454.6,171.9 L454.6,171.8 L459.9,171.8 C459.9,173.4 460.4,174.6 461.3,175.3 C462.2,176.1 463.5,176.4 465.1,176.4 C466.5,176.4 467.7,176.1 468.4,175.5 C469.3,174.7 469.6,173.9 469.6,172.9 Z" id="Shape"></path>
                <polygon id="Shape" points="500.4 157.1 492.7 157.1 492.7 179.9 487.3 179.9 487.3 157.1 479.7 157.1 479.7 152.9 500.4 152.9"></polygon>
                <path d="M519.6,172.9 C519.6,171.9 519.2,171 518.5,170.4 C517.8,169.8 516.5,169.2 514.7,168.6 C511.6,167.7 509.2,166.6 507.6,165.3 C506,164 505.2,162.3 505.2,160.1 C505.2,157.9 506.1,156.1 507.9,154.7 C509.7,153.3 512,152.6 514.9,152.6 C517.9,152.6 520.3,153.4 522.1,154.9 C523.9,156.4 524.8,158.4 524.7,160.8 L524.7,160.9 L519.5,160.9 C519.5,159.6 519.1,158.5 518.3,157.8 C517.5,157.1 516.3,156.7 514.9,156.7 C513.6,156.7 512.5,157 511.8,157.7 C511.1,158.3 510.7,159.2 510.7,160.2 C510.7,161.1 511.1,161.9 511.9,162.5 C512.7,163.1 514.1,163.7 516,164.4 C519,165.2 521.2,166.3 522.8,167.7 C524.4,169.1 525.1,170.8 525.1,173.1 C525.1,175.4 524.2,177.2 522.4,178.6 C520.6,179.9 518.2,180.6 515.2,180.6 C512.3,180.6 509.8,179.9 507.7,178.4 C505.6,177 504.6,174.8 504.7,171.9 L504.7,171.8 L510,171.8 C510,173.4 510.5,174.6 511.4,175.3 C512.3,176.1 513.6,176.4 515.2,176.4 C516.6,176.4 517.8,176.1 518.5,175.5 C519.2,174.7 519.6,173.9 519.6,172.9 Z" id="Shape"></path>
                <path d="M557.5,174.1 L548.7,174.1 L546.9,179.9 L541.2,179.9 L550.3,152.9 L555.8,152.9 L564.9,179.9 L559.2,179.9 L557.5,174.1 Z M550.1,169.8 L556.2,169.8 L553.2,160.3 L553.1,160.3 L550.1,169.8 Z" id="Shape"></path>
                <polygon id="Shape" points="591.9 179.9 586.5 179.9 575.6 161.7 575.5 161.7 575.5 179.9 570 179.9 570 152.9 575.4 152.9 586.3 171.1 586.4 171.1 586.4 152.9 591.8 152.9 591.8 179.9"></polygon>
                <path d="M599.3,179.9 L599.3,152.9 L608.7,152.9 C612,152.9 614.7,154 616.9,156.1 C619,158.2 620.1,160.9 620.1,164.2 L620.1,168.7 C620.1,172 619,174.7 616.9,176.8 C614.8,178.9 612,179.9 608.7,179.9 L599.3,179.9 L599.3,179.9 Z M604.7,157.1 L604.7,175.8 L608.7,175.8 C610.5,175.8 611.9,175.1 613,173.8 C614.1,172.5 614.6,170.8 614.6,168.7 L614.6,164.2 C614.6,162.1 614.1,160.4 613,159.1 C611.9,157.8 610.5,157.1 608.7,157.1 L604.7,157.1 Z" id="Shape"></path>
                <polygon id="Shape" points="654.3 168 644.3 168 644.3 175.7 656.2 175.7 656.2 179.9 638.9 179.9 638.9 152.9 656.2 152.9 656.2 157.1 644.3 157.1 644.3 163.9 654.3 163.9"></polygon>
                <polygon id="Shape" points="684.3 179.9 678.9 179.9 668 161.7 667.9 161.7 667.9 179.9 662.5 179.9 662.5 152.9 667.9 152.9 678.8 171.1 678.9 171.1 678.9 152.9 684.3 152.9"></polygon>
                <polygon id="Shape" points="710 157.1 702.3 157.1 702.3 179.9 696.9 179.9 696.9 157.1 689.3 157.1 689.3 152.9 710 152.9"></polygon>
                <polygon id="Shape" points="737.3 179.9 731.9 179.9 731.9 168.7 720.9 168.7 720.9 179.9 715.5 179.9 715.5 152.9 720.9 152.9 720.9 164.5 731.9 164.5 731.9 152.9 737.3 152.9"></polygon>
                <path d="M766.2,152.9 L766.2,170.6 C766.2,173.6 765.2,176 763.2,177.7 C761.2,179.4 758.6,180.3 755.4,180.3 C752.2,180.3 749.6,179.4 747.6,177.7 C745.6,176 744.6,173.6 744.6,170.6 L744.6,152.9 L750,152.9 L750,170.6 C750,172.4 750.5,173.8 751.4,174.7 C752.4,175.7 753.7,176.1 755.3,176.1 C757,176.1 758.3,175.6 759.3,174.7 C760.3,173.7 760.8,172.4 760.8,170.6 L760.8,152.9 L766.2,152.9 Z" id="Shape"></path>
                <path d="M787.4,172.9 C787.4,171.9 787,171 786.3,170.4 C785.6,169.8 784.3,169.2 782.5,168.6 C779.4,167.7 777,166.6 775.4,165.3 C773.8,164 773,162.3 773,160.1 C773,157.9 773.9,156.1 775.7,154.7 C777.5,153.3 779.8,152.6 782.7,152.6 C785.7,152.6 788.1,153.4 789.9,154.9 C791.7,156.4 792.6,158.4 792.5,160.8 L792.5,160.9 L787.2,160.9 C787.2,159.6 786.8,158.5 786,157.8 C785.2,157.1 784,156.7 782.6,156.7 C781.3,156.7 780.2,157 779.5,157.7 C778.8,158.3 778.4,159.2 778.4,160.2 C778.4,161.1 778.8,161.9 779.6,162.5 C780.4,163.1 781.8,163.7 783.7,164.4 C786.7,165.2 788.9,166.3 790.5,167.7 C792.1,169.1 792.8,170.8 792.8,173.1 C792.8,175.4 791.9,177.2 790.1,178.6 C788.3,179.9 785.9,180.6 782.9,180.6 C780,180.6 777.5,179.9 775.4,178.4 C773.3,176.9 772.3,174.8 772.4,171.9 L772.4,171.8 L777.6,171.8 C777.6,173.4 778.1,174.6 779,175.3 C779.9,176.1 781.2,176.4 782.8,176.4 C784.2,176.4 785.4,176.1 786.1,175.5 C787,174.7 787.4,173.9 787.4,172.9 Z" id="Shape"></path>
                <polygon id="Shape" points="805.1 179.9 799.7 179.9 799.7 152.9 805.1 152.9"></polygon>
                <path d="M827.3,174.1 L818.5,174.1 L816.7,179.9 L811,179.9 L820.1,152.9 L825.6,152.9 L834.7,179.9 L829,179.9 L827.3,174.1 Z M819.9,169.8 L826,169.8 L823,160.3 L822.9,160.3 L819.9,169.8 Z" id="Shape"></path>
                <path d="M854,172.9 C854,171.9 853.6,171 852.9,170.4 C852.2,169.8 850.9,169.2 849.1,168.6 C846,167.7 843.6,166.6 842,165.3 C840.4,164 839.6,162.3 839.6,160.1 C839.6,157.9 840.5,156.1 842.3,154.7 C844.1,153.3 846.4,152.6 849.3,152.6 C852.3,152.6 854.7,153.4 856.5,154.9 C858.3,156.4 859.2,158.4 859.1,160.8 L859.1,160.9 L853.8,160.9 C853.8,159.6 853.4,158.5 852.6,157.8 C851.8,157.1 850.6,156.7 849.2,156.7 C847.9,156.7 846.8,157 846.1,157.7 C845.4,158.3 845,159.2 845,160.2 C845,161.1 845.4,161.9 846.2,162.5 C847,163.1 848.4,163.7 850.3,164.4 C853.3,165.2 855.5,166.3 857.1,167.7 C858.7,169.1 859.4,170.8 859.4,173.1 C859.4,175.4 858.5,177.2 856.7,178.6 C854.9,179.9 852.5,180.6 849.5,180.6 C846.6,180.6 844.1,179.9 842,178.4 C839.9,176.9 838.9,174.8 839,171.9 L839,171.8 L844.2,171.8 C844.2,173.4 844.7,174.6 845.6,175.3 C846.5,176.1 847.8,176.4 849.4,176.4 C850.8,176.4 852,176.1 852.7,175.5 C853.6,174.7 854,173.9 854,172.9 Z" id="Shape"></path>
                <polygon id="Shape" points="884.7 157.1 877 157.1 877 179.9 871.6 179.9 871.6 157.1 864 157.1 864 152.9 884.7 152.9"></polygon>
                <path d="M903.9,172.9 C903.9,171.9 903.5,171 902.8,170.4 C902.1,169.8 900.8,169.2 899,168.6 C895.9,167.7 893.5,166.6 891.9,165.3 C890.3,164 889.5,162.3 889.5,160.1 C889.5,157.9 890.4,156.1 892.2,154.7 C894,153.3 896.3,152.6 899.2,152.6 C902.2,152.6 904.6,153.4 906.4,154.9 C908.2,156.4 909.1,158.4 909,160.8 L909,160.9 L903.7,160.9 C903.7,159.6 903.3,158.5 902.5,157.8 C901.7,157.1 900.5,156.7 899.1,156.7 C897.8,156.7 896.7,157 896,157.7 C895.3,158.3 894.9,159.2 894.9,160.2 C894.9,161.1 895.3,161.9 896.1,162.5 C896.9,163.1 898.3,163.7 900.2,164.4 C903.2,165.2 905.4,166.3 907,167.7 C908.6,169.1 909.3,170.8 909.3,173.1 C909.3,175.4 908.4,177.2 906.6,178.6 C904.8,179.9 902.4,180.6 899.4,180.6 C896.5,180.6 894,179.9 891.9,178.4 C889.8,177 888.8,174.8 888.9,171.9 L888.9,171.8 L894.2,171.8 C894.2,173.4 894.7,174.6 895.6,175.3 C896.5,176.1 897.8,176.4 899.4,176.4 C900.8,176.4 902,176.1 902.7,175.5 C903.5,174.7 903.9,173.9 903.9,172.9 Z" id="Shape"></path>
                <path d="M922,179.7 L919,185.5 L915.4,185.5 L916.7,179.5 L916.7,175.3 L922,175.3 L922,179.7 L922,179.7 Z M921.4,163.7 L916,163.7 L916,158.9 L921.4,158.9 L921.4,163.7 Z" id="Shape"></path>
                <path d="M2.1,230.6 L2.1,203.6 L11,203.6 C14.2,203.6 16.7,204.2 18.4,205.5 C20.1,206.8 21.1,208.6 21.1,211 C21.1,212.2 20.8,213.3 20.1,214.3 C19.5,215.3 18.5,216 17.3,216.5 C19,216.8 20.3,217.5 21.1,218.7 C21.9,219.9 22.4,221.2 22.4,222.7 C22.4,225.3 21.5,227.2 19.8,228.6 C18.1,229.9 15.7,230.6 12.5,230.6 L2.1,230.6 Z M7.5,214.9 L11.1,214.9 C12.5,214.9 13.7,214.6 14.4,214 C15.1,213.4 15.6,212.5 15.6,211.4 C15.6,210.2 15.2,209.2 14.4,208.6 C13.6,208 12.4,207.7 10.9,207.7 L7.5,207.7 L7.5,214.9 L7.5,214.9 Z M7.5,218.6 L7.5,226.4 L12.5,226.4 C13.9,226.4 15,226.1 15.8,225.5 C16.6,224.9 16.9,224 16.9,222.7 C16.9,221.4 16.5,220.4 15.8,219.7 C15.1,219 13.9,218.6 12.4,218.6 L7.5,218.6 Z" id="Shape"></path>
                <path d="M42.9,224.8 L34.1,224.8 L32.3,230.6 L26.6,230.6 L35.7,203.6 L41.2,203.6 L50.3,230.6 L44.6,230.6 L42.9,224.8 Z M35.5,220.5 L41.6,220.5 L38.6,211 L38.5,211 L35.5,220.5 Z" id="Shape"></path>
                <path d="M69.5,223.5 C69.5,222.5 69.1,221.6 68.4,221 C67.7,220.4 66.4,219.8 64.6,219.2 C61.5,218.3 59.1,217.2 57.5,215.9 C55.9,214.6 55.1,212.9 55.1,210.7 C55.1,208.5 56,206.7 57.8,205.3 C59.6,203.9 61.9,203.2 64.8,203.2 C67.8,203.2 70.2,204 72,205.5 C73.8,207 74.7,209 74.6,211.4 L74.6,211.5 L69.3,211.5 C69.3,210.2 68.9,209.1 68.1,208.4 C67.3,207.7 66.1,207.3 64.7,207.3 C63.4,207.3 62.3,207.6 61.6,208.3 C60.9,208.9 60.5,209.8 60.5,210.8 C60.5,211.7 60.9,212.5 61.7,213.1 C62.5,213.7 63.9,214.3 65.8,215 C68.8,215.8 71,216.9 72.6,218.3 C74.2,219.7 74.9,221.4 74.9,223.7 C74.9,226 74,227.8 72.2,229.2 C70.4,230.5 68,231.2 65,231.2 C62.1,231.2 59.6,230.5 57.5,229 C55.4,227.6 54.4,225.4 54.5,222.5 L54.5,222.4 L59.8,222.4 C59.8,224 60.3,225.2 61.2,225.9 C62.1,226.7 63.4,227 65,227 C66.4,227 67.6,226.7 68.3,226.1 C69.1,225.4 69.5,224.6 69.5,223.5 Z" id="Shape"></path>
                <polygon id="Shape" points="96.8 218.7 86.8 218.7 86.8 226.4 98.7 226.4 98.7 230.6 81.4 230.6 81.4 203.6 98.7 203.6 98.7 207.8 86.8 207.8 86.8 214.6 96.8 214.6"></polygon>
                <path d="M105,230.6 L105,203.6 L114.4,203.6 C117.7,203.6 120.4,204.7 122.6,206.8 C124.7,208.9 125.8,211.6 125.8,214.9 L125.8,219.4 C125.8,222.7 124.7,225.4 122.6,227.5 C120.5,229.6 117.7,230.6 114.4,230.6 L105,230.6 L105,230.6 Z M110.4,207.8 L110.4,226.5 L114.4,226.5 C116.2,226.5 117.6,225.8 118.7,224.5 C119.8,223.2 120.3,221.5 120.3,219.4 L120.3,214.9 C120.3,212.8 119.8,211.1 118.7,209.8 C117.6,208.5 116.2,207.8 114.4,207.8 L110.4,207.8 Z" id="Shape"></path>
                <polygon id="Shape" points="150.3 230.6 144.9 230.6 144.9 203.6 150.3 203.6"></polygon>
                <polygon id="Shape" points="180 230.6 174.6 230.6 163.7 212.4 163.6 212.4 163.6 230.6 158.2 230.6 158.2 203.6 163.6 203.6 174.5 221.8 174.6 221.8 174.6 203.6 180 203.6"></polygon>
                <polygon id="Shape" points="206.8 219.3 204.8 219.3 204.8 230.6 199.4 230.6 199.4 203.6 204.8 203.6 204.8 214.6 206.3 214.6 213.7 203.6 220.4 203.6 211 216.2 221.1 230.7 214.2 230.7"></polygon>
                <polygon id="Shape" points="231.9 230.6 226.5 230.6 226.5 203.6 231.9 203.6"></polygon>
                <polygon id="Shape" points="255.1 218.7 245.1 218.7 245.1 226.4 257 226.4 257 230.6 239.7 230.6 239.7 203.6 257 203.6 257 207.8 245.1 207.8 245.1 214.6 255.1 214.6"></polygon>
                <polygon id="Shape" points="272.5 223.3 272.8 224.8 272.9 224.8 273.2 223.4 279.1 203.7 284.8 203.7 275.6 230.7 270 230.7 260.8 203.7 266.5 203.7"></polygon>
                <polygon id="Shape" points="291.6 230.6 286.2 230.6 286.2 225.8 291.6 225.8"></polygon>
                <path d="M7.5,322.2 L7.5,332 L2.1,332 L2.1,305 L12.4,305 C15.5,305 17.9,305.8 19.7,307.4 C21.5,309 22.4,311.1 22.4,313.7 C22.4,316.3 21.5,318.4 19.7,319.9 C17.9,321.5 15.5,322.3 12.4,322.3 L7.5,322.3 L7.5,322.2 Z M7.5,318 L12.4,318 C13.9,318 15.1,317.6 15.8,316.8 C16.6,316 17,314.9 17,313.7 C17,312.4 16.6,311.3 15.8,310.5 C15,309.7 13.9,309.2 12.4,309.2 L7.5,309.2 L7.5,318 Z" id="Shape"></path>
                <polygon id="Shape" points="34.2 327.8 46.3 327.8 46.3 332 28.8 332 28.8 305 34.2 305 34.2 327.8"></polygon>
                <polygon id="Shape" points="58.2 332 52.8 332 52.8 305 58.2 305"></polygon>
                <polygon id="Shape" points="75.2 324.7 75.5 326.2 75.6 326.2 75.9 324.8 81.8 305.1 87.5 305.1 78.3 332.1 72.7 332.1 63.5 305.1 69.2 305.1"></polygon>
                <polygon id="Shape" points="100.1 320.7 98.1 320.7 98.1 332 92.7 332 92.7 305 98.1 305 98.1 316 99.6 316 107 305 113.7 305 104.3 317.6 114.4 332.1 107.5 332.1"></polygon>
                <path d="M133.4,326.2 L124.6,326.2 L122.8,332 L117.1,332 L126.2,305 L131.7,305 L140.8,332 L135.1,332 L133.4,326.2 Z M126,321.9 L132.1,321.9 L129.1,312.4 L129,312.4 L126,321.9 Z" id="Shape"></path>
                <polygon id="Shape" points="151.6 332 146.2 332 146.2 327.2 151.6 327.2"></polygon>
                <polygon id="Shape" points="178.3 309.1 170.6 309.1 170.6 332 165.2 332 165.2 309.2 157.6 309.2 157.6 305 178.3 305"></polygon>
                <polygon id="Shape" points="193.3 324.7 193.6 326.2 193.7 326.2 194 324.8 199.9 305.1 205.6 305.1 196.4 332.1 190.8 332.1 181.6 305.1 187.3 305.1"></polygon>
                <polygon id="Shape" points="228.5 332 223 332 223 305 228.4 305 228.4 332"></polygon>
                <path d="M250.4,324.9 C250.4,323.9 250,323 249.3,322.4 C248.6,321.8 247.3,321.2 245.5,320.6 C242.4,319.7 240,318.6 238.4,317.3 C236.8,316 236,314.3 236,312.1 C236,309.9 236.9,308.1 238.7,306.7 C240.5,305.3 242.8,304.6 245.7,304.6 C248.7,304.6 251.1,305.4 252.9,306.9 C254.7,308.4 255.6,310.4 255.5,312.8 L255.5,312.9 L250.2,312.9 C250.2,311.6 249.8,310.5 249,309.8 C248.2,309.1 247,308.7 245.6,308.7 C244.3,308.7 243.2,309 242.5,309.7 C241.8,310.3 241.4,311.2 241.4,312.2 C241.4,313.1 241.8,313.9 242.6,314.5 C243.4,315.1 244.8,315.7 246.7,316.4 C249.7,317.2 251.9,318.3 253.5,319.7 C255.1,321.1 255.8,322.8 255.8,325.1 C255.8,327.4 254.9,329.2 253.1,330.6 C251.3,331.9 248.9,332.6 245.9,332.6 C243,332.6 240.5,331.9 238.4,330.4 C236.3,329 235.3,326.8 235.4,323.9 L235.4,323.8 L240.7,323.8 C240.7,325.4 241.2,326.6 242.1,327.3 C243,328.1 244.3,328.4 245.9,328.4 C247.3,328.4 248.5,328.1 249.2,327.5 C250,326.8 250.4,325.9 250.4,324.9 Z" id="Shape"></path>
                <path d="M288.3,326.2 L279.5,326.2 L277.7,332 L272,332 L281.1,305 L286.6,305 L295.7,332 L290,332 L288.3,326.2 Z M280.8,321.9 L286.9,321.9 L283.9,312.4 L283.8,312.4 L280.8,321.9 Z" id="Shape"></path>
                <polygon id="Shape" points="322.7 332 317.3 332 306.4 313.8 306.3 313.8 306.3 332 300.9 332 300.9 305 306.3 305 317.2 323.2 317.3 323.2 317.3 305 322.7 305"></polygon>
                <path d="M363.9,320.9 C363.9,324.2 362.9,327 360.8,329.1 C358.7,331.3 356,332.3 352.6,332.3 C349.3,332.3 346.6,331.2 344.5,329.1 C342.4,326.9 341.4,324.2 341.4,320.9 L341.4,316 C341.4,312.7 342.4,310 344.5,307.8 C346.6,305.6 349.3,304.5 352.6,304.5 C356,304.5 358.7,305.6 360.8,307.8 C362.9,310 364,312.7 364,316 L364,320.9 L363.9,320.9 Z M358.5,316 C358.5,313.9 358,312.2 356.9,310.8 C355.8,309.5 354.4,308.8 352.5,308.8 C350.7,308.8 349.2,309.5 348.2,310.8 C347.2,312.1 346.7,313.9 346.7,316 L346.7,320.9 C346.7,323 347.2,324.8 348.2,326.1 C349.2,327.4 350.7,328.1 352.5,328.1 C354.4,328.1 355.8,327.4 356.8,326.1 C357.8,324.8 358.4,323 358.4,320.9 L358.4,316 L358.5,316 Z" id="Shape"></path>
                <path d="M376.1,322.2 L376.1,332 L370.7,332 L370.7,305 L381,305 C384.1,305 386.5,305.8 388.3,307.4 C390.1,309 391,311.1 391,313.7 C391,316.3 390.1,318.4 388.3,319.9 C386.5,321.5 384.1,322.3 381,322.3 L376.1,322.3 L376.1,322.2 Z M376.1,318 L381,318 C382.5,318 383.7,317.6 384.4,316.8 C385.2,316 385.6,314.9 385.6,313.7 C385.6,312.4 385.2,311.3 384.4,310.5 C383.6,309.7 382.5,309.2 381,309.2 L376.1,309.2 L376.1,318 Z" id="Shape"></path>
                <polygon id="Shape" points="412.8 320.1 402.8 320.1 402.8 327.8 414.7 327.8 414.7 332 397.4 332 397.4 305 414.7 305 414.7 309.2 402.8 309.2 402.8 316 412.8 316"></polygon>
                <polygon id="Shape" points="442.8 332 437.4 332 426.5 313.8 426.4 313.8 426.4 332 421 332 421 305 426.4 305 437.3 323.2 437.4 323.2 437.4 305 442.8 305"></polygon>
                <path d="M476.2,326.2 L467.4,326.2 L465.6,332 L460,332 L469.1,305 L474.6,305 L483.7,332 L478,332 L476.2,326.2 Z M468.8,321.9 L474.9,321.9 L471.9,312.4 L471.8,312.4 L468.8,321.9 Z" id="Shape"></path>
                <path d="M494.2,321.2 L494.2,332 L488.8,332 L488.8,305 L498.2,305 C501.3,305 503.7,305.7 505.4,307.1 C507.1,308.5 508,310.5 508,313 C508,314.4 507.6,315.6 506.9,316.6 C506.2,317.6 505.1,318.4 503.7,319 C505.3,319.5 506.4,320.3 507.1,321.4 C507.8,322.5 508.1,323.9 508.1,325.5 L508.1,327.5 C508.1,328.3 508.2,329 508.4,329.9 C508.6,330.7 509,331.3 509.4,331.7 L509.4,332.1 L503.8,332.1 C503.3,331.7 503,331 502.8,330.1 C502.7,329.2 502.6,328.3 502.6,327.4 L502.6,325.5 C502.6,324.2 502.2,323.1 501.5,322.4 C500.8,321.7 499.7,321.3 498.4,321.3 L494.2,321.3 L494.2,321.2 Z M494.2,317 L498,317 C499.5,317 500.7,316.7 501.4,316 C502.1,315.4 502.5,314.4 502.5,313.1 C502.5,311.9 502.1,310.9 501.4,310.1 C500.7,309.4 499.6,309 498.1,309 L494.2,309 L494.2,317 Z" id="Shape"></path>
                <path d="M535.7,323 L535.7,323.1 C535.7,326 534.9,328.2 533.1,329.9 C531.3,331.6 528.8,332.3 525.6,332.3 C522.4,332.3 519.7,331.3 517.8,329.2 C515.8,327.1 514.8,324.4 514.8,321.1 L514.8,315.7 C514.8,312.4 515.8,309.7 517.7,307.6 C519.6,305.5 522.2,304.5 525.3,304.5 C528.6,304.5 531.2,305.3 533,306.9 C534.9,308.5 535.8,310.8 535.7,313.7 L535.7,313.8 L530.4,313.8 C530.4,312.1 530,310.8 529.1,309.9 C528.3,309.1 527,308.6 525.2,308.6 C523.6,308.6 522.3,309.3 521.4,310.6 C520.5,311.9 520,313.6 520,315.7 L520,321.1 C520,323.2 520.5,324.9 521.4,326.2 C522.4,327.5 523.7,328.2 525.4,328.2 C527,328.2 528.2,327.8 529,326.9 C529.8,326.1 530.2,324.8 530.2,323 L535.7,323 Z" id="Shape"></path>
                <polygon id="Shape" points="564 332 558.6 332 558.6 320.8 547.6 320.8 547.6 332 542.2 332 542.2 305 547.6 305 547.6 316.6 558.6 316.6 558.6 305 564 305"></polygon>
                <polygon id="Shape" points="577.2 332 571.8 332 571.8 305 577.2 305"></polygon>
                <polygon id="Shape" points="594.2 324.7 594.5 326.2 594.6 326.2 594.9 324.8 600.8 305.1 606.5 305.1 597.3 332.1 591.7 332.1 582.5 305.1 588.2 305.1"></polygon>
                <polygon id="Shape" points="627.1 320.1 617.1 320.1 617.1 327.8 629 327.8 629 332 611.7 332 611.7 305 629 305 629 309.2 617.1 309.2 617.1 316 627.1 316"></polygon>
                <path d="M2.1,382.7 L2.1,355.7 L11,355.7 C14.2,355.7 16.7,356.3 18.4,357.6 C20.2,358.8 21.1,360.7 21.1,363.1 C21.1,364.3 20.8,365.4 20.1,366.4 C19.5,367.4 18.5,368.1 17.3,368.6 C19,368.9 20.3,369.6 21.1,370.8 C21.9,372 22.4,373.3 22.4,374.8 C22.4,377.4 21.5,379.3 19.8,380.7 C18.1,382 15.7,382.7 12.5,382.7 L2.1,382.7 L2.1,382.7 Z M7.5,367 L11.1,367 C12.5,367 13.7,366.7 14.4,366.1 C15.1,365.5 15.6,364.6 15.6,363.5 C15.6,362.3 15.2,361.3 14.4,360.7 C13.6,360.1 12.4,359.8 10.9,359.8 L7.5,359.8 L7.5,367 L7.5,367 Z M7.5,370.7 L7.5,378.5 L12.5,378.5 C13.9,378.5 15,378.2 15.8,377.6 C16.6,377 16.9,376.1 16.9,374.8 C16.9,373.5 16.5,372.5 15.8,371.8 C15.1,371.1 13.9,370.7 12.4,370.7 L7.5,370.7 Z" id="Shape"></path>
                <path d="M34.2,371.9 L34.2,382.7 L28.8,382.7 L28.8,355.7 L38.2,355.7 C41.3,355.7 43.7,356.4 45.4,357.8 C47.1,359.2 48,361.2 48,363.7 C48,365.1 47.6,366.3 46.9,367.3 C46.2,368.3 45.1,369.1 43.7,369.7 C45.3,370.2 46.4,371 47.1,372.1 C47.8,373.2 48.1,374.6 48.1,376.2 L48.1,378.2 C48.1,379 48.2,379.7 48.4,380.6 C48.6,381.4 49,382 49.4,382.4 L49.4,382.8 L43.8,382.8 C43.3,382.4 43,381.7 42.8,380.8 C42.7,379.9 42.6,379 42.6,378.1 L42.6,376.2 C42.6,374.9 42.2,373.8 41.5,373.1 C40.8,372.4 39.7,372 38.4,372 L34.2,372 L34.2,371.9 Z M34.2,367.7 L38,367.7 C39.5,367.7 40.7,367.4 41.4,366.7 C42.1,366.1 42.5,365.1 42.5,363.8 C42.5,362.6 42.1,361.6 41.4,360.8 C40.7,360.1 39.6,359.7 38.1,359.7 L34.2,359.7 L34.2,367.7 Z" id="Shape"></path>
                <path d="M77.3,371.6 C77.3,374.9 76.3,377.7 74.2,379.8 C72.1,382 69.4,383 66,383 C62.7,383 60,381.9 57.9,379.8 C55.8,377.6 54.8,374.9 54.8,371.6 L54.8,366.7 C54.8,363.4 55.8,360.7 57.9,358.5 C60,356.3 62.7,355.2 66,355.2 C69.4,355.2 72.1,356.3 74.2,358.5 C76.3,360.7 77.4,363.4 77.4,366.7 L77.4,371.6 L77.3,371.6 Z M71.9,366.7 C71.9,364.6 71.4,362.9 70.3,361.5 C69.2,360.2 67.8,359.5 65.9,359.5 C64.1,359.5 62.6,360.2 61.6,361.5 C60.6,362.8 60.1,364.6 60.1,366.7 L60.1,371.6 C60.1,373.7 60.6,375.5 61.6,376.8 C62.6,378.1 64.1,378.8 65.9,378.8 C67.8,378.8 69.2,378.1 70.2,376.8 C71.2,375.5 71.8,373.7 71.8,371.6 L71.8,366.7 L71.9,366.7 Z" id="Shape"></path>
                <path d="M97.8,376.8 L89,376.8 L87.2,382.6 L81.5,382.6 L90.6,355.6 L96.1,355.6 L105.2,382.6 L99.5,382.6 L97.8,376.8 Z M90.4,372.6 L96.5,372.6 L93.5,363.1 L93.4,363.1 L90.4,372.6 Z" id="Shape"></path>
                <path d="M110.4,382.7 L110.4,355.7 L119.8,355.7 C123.1,355.7 125.8,356.8 128,358.9 C130.1,361 131.2,363.7 131.2,367 L131.2,371.5 C131.2,374.8 130.1,377.5 128,379.6 C125.9,381.7 123.1,382.7 119.8,382.7 L110.4,382.7 L110.4,382.7 Z M115.8,359.8 L115.8,378.5 L119.8,378.5 C121.6,378.5 123,377.8 124.1,376.5 C125.2,375.2 125.7,373.5 125.7,371.4 L125.7,366.9 C125.7,364.8 125.2,363.1 124.1,361.8 C123,360.5 121.6,359.8 119.8,359.8 L115.8,359.8 L115.8,359.8 Z" id="Shape"></path>
                <path d="M158.2,373.7 L158.2,373.8 C158.2,376.7 157.4,378.9 155.6,380.6 C153.8,382.2 151.3,383 148.1,383 C144.9,383 142.2,382 140.3,379.9 C138.3,377.8 137.3,375.1 137.3,371.8 L137.3,366.4 C137.3,363.1 138.3,360.4 140.2,358.3 C142.1,356.2 144.7,355.2 147.8,355.2 C151.1,355.2 153.7,356 155.5,357.6 C157.4,359.2 158.3,361.5 158.2,364.4 L158.2,364.5 L153,364.5 C153,362.8 152.6,361.5 151.7,360.6 C150.9,359.8 149.6,359.3 147.8,359.3 C146.2,359.3 144.9,360 144,361.3 C143.1,362.6 142.6,364.3 142.6,366.4 L142.6,371.8 C142.6,373.9 143.1,375.6 144,376.9 C145,378.2 146.3,378.9 148,378.9 C149.6,378.9 150.8,378.5 151.6,377.6 C152.4,376.8 152.8,375.5 152.8,373.7 L158.2,373.7 Z" id="Shape"></path>
                <path d="M178.7,376.8 L169.9,376.8 L168.1,382.6 L162.4,382.6 L171.5,355.6 L177,355.6 L186.1,382.6 L180.4,382.6 L178.7,376.8 Z M171.3,372.6 L177.4,372.6 L174.4,363.1 L174.3,363.1 L171.3,372.6 Z" id="Shape"></path>
                <path d="M205.3,375.6 C205.3,374.6 204.9,373.7 204.2,373.1 C203.5,372.5 202.2,371.9 200.4,371.3 C197.3,370.4 194.9,369.3 193.3,368 C191.7,366.7 190.9,365 190.9,362.8 C190.9,360.6 191.8,358.8 193.6,357.4 C195.4,356 197.7,355.3 200.6,355.3 C203.6,355.3 206,356.1 207.8,357.6 C209.6,359.1 210.5,361.1 210.4,363.5 L210.4,363.6 L205.1,363.6 C205.1,362.3 204.7,361.2 203.9,360.5 C203.1,359.8 201.9,359.4 200.5,359.4 C199.2,359.4 198.1,359.7 197.4,360.4 C196.7,361 196.3,361.9 196.3,362.9 C196.3,363.8 196.7,364.6 197.5,365.2 C198.3,365.8 199.7,366.4 201.6,367.1 C204.6,367.9 206.8,369 208.4,370.4 C210,371.8 210.7,373.5 210.7,375.8 C210.7,378.1 209.8,379.9 208,381.3 C206.2,382.6 203.8,383.3 200.8,383.3 C197.9,383.3 195.4,382.6 193.3,381.1 C191.2,379.7 190.2,377.5 190.3,374.6 L190.3,374.5 L195.6,374.5 C195.6,376.1 196.1,377.3 197,378 C197.9,378.8 199.2,379.1 200.8,379.1 C202.2,379.1 203.4,378.8 204.1,378.2 C205,377.5 205.3,376.6 205.3,375.6 Z" id="Shape"></path>
                <polygon id="Shape" points="236.1 359.8 228.4 359.8 228.4 382.6 223 382.6 223 359.8 215.4 359.8 215.4 355.6 236.1 355.6"></polygon>
                <polygon id="Shape" points="247.3 382.7 241.9 382.7 241.9 355.7 247.3 355.7"></polygon>
                <polygon id="Shape" points="277 382.7 271.6 382.7 260.7 364.5 260.6 364.5 260.6 382.7 255.2 382.7 255.2 355.7 260.6 355.7 271.5 373.9 271.6 373.9 271.6 355.7 277 355.7"></polygon>
                <path d="M305.1,379 C304.3,380.1 303,381.1 301.3,381.9 C299.6,382.7 297.5,383.1 294.8,383.1 C291.5,383.1 288.9,382.1 286.8,380 C284.7,377.9 283.7,375.3 283.7,372 L283.7,366.4 C283.7,363.1 284.7,360.5 286.7,358.4 C288.7,356.3 291.3,355.3 294.5,355.3 C297.8,355.3 300.3,356.1 302.1,357.6 C303.9,359.2 304.7,361.3 304.6,363.9 L304.6,364 L299.5,364 C299.5,362.6 299.1,361.4 298.3,360.7 C297.5,359.9 296.3,359.5 294.7,359.5 C293,359.5 291.7,360.1 290.7,361.4 C289.7,362.7 289.2,364.3 289.2,366.3 L289.2,372 C289.2,374 289.7,375.7 290.8,377 C291.8,378.3 293.2,378.9 295,378.9 C296.3,378.9 297.3,378.8 298.1,378.5 C298.8,378.2 299.4,377.9 299.8,377.5 L299.8,372.3 L294.6,372.3 L294.6,368.6 L305.2,368.6 L305.2,379 L305.1,379 Z" id="Shape"></path>
                <path d="M346,371.6 C346,373 345.8,374.2 345.4,375.4 C345,376.6 344.5,377.7 343.8,378.6 L347.8,382.6 L344.3,385.5 L340.3,381.6 C339.5,382 338.6,382.4 337.6,382.6 C336.7,382.8 335.7,382.9 334.6,382.9 C331.3,382.9 328.6,381.8 326.5,379.7 C324.4,377.5 323.4,374.8 323.4,371.5 L323.4,366.6 C323.4,363.3 324.4,360.6 326.5,358.4 C328.6,356.2 331.3,355.1 334.6,355.1 C338,355.1 340.7,356.2 342.8,358.4 C344.9,360.6 346,363.3 346,366.6 L346,371.6 L346,371.6 Z M340.6,366.7 C340.6,364.6 340.1,362.9 339,361.5 C337.9,360.2 336.5,359.5 334.6,359.5 C332.8,359.5 331.3,360.2 330.3,361.5 C329.3,362.8 328.8,364.6 328.8,366.7 L328.8,371.6 C328.8,373.7 329.3,375.5 330.3,376.8 C331.3,378.1 332.8,378.8 334.6,378.8 C336.5,378.8 337.9,378.1 338.9,376.8 C339.9,375.5 340.5,373.7 340.5,371.6 L340.5,366.7 L340.6,366.7 Z" id="Shape"></path>
                <path d="M374.7,355.7 L374.7,373.4 C374.7,376.4 373.7,378.8 371.7,380.5 C369.7,382.2 367.1,383.1 363.9,383.1 C360.7,383.1 358.1,382.2 356.1,380.5 C354.1,378.8 353.1,376.4 353.1,373.4 L353.1,355.7 L358.5,355.7 L358.5,373.4 C358.5,375.2 359,376.6 359.9,377.5 C360.9,378.5 362.2,378.9 363.8,378.9 C365.5,378.9 366.8,378.4 367.8,377.5 C368.8,376.5 369.3,375.2 369.3,373.4 L369.3,355.7 L374.7,355.7 Z" id="Shape"></path>
                <path d="M395.6,376.8 L386.8,376.8 L385,382.6 L379.3,382.6 L388.4,355.6 L393.9,355.6 L403,382.6 L397.3,382.6 L395.6,376.8 Z M388.1,372.6 L394.2,372.6 L391.2,363.1 L391.1,363.1 L388.1,372.6 Z" id="Shape"></path>
                <polygon id="Shape" points="413.5 378.5 425.6 378.5 425.6 382.7 408.1 382.7 408.1 355.7 413.5 355.7"></polygon>
                <polygon id="Shape" points="437.5 382.7 432.1 382.7 432.1 355.7 437.5 355.7"></polygon>
                <polygon id="Shape" points="463.6 359.8 455.9 359.8 455.9 382.6 450.5 382.6 450.5 359.8 442.9 359.8 442.9 355.6 463.6 355.6"></polygon>
                <polygon id="Shape" points="478.9 368.1 479 368.1 484.9 355.6 490.8 355.6 481.5 373.1 481.5 382.6 476.1 382.6 476.1 372.8 467 355.6 472.9 355.6"></polygon>
                <path d="M528.2,373.7 L528.2,373.8 C528.2,376.7 527.4,378.9 525.6,380.6 C523.8,382.2 521.3,383 518.1,383 C514.9,383 512.2,382 510.3,379.9 C508.3,377.8 507.3,375.1 507.3,371.8 L507.3,366.4 C507.3,363.1 508.3,360.4 510.2,358.3 C512.1,356.2 514.7,355.2 517.8,355.2 C521.1,355.2 523.7,356 525.5,357.6 C527.4,359.2 528.3,361.5 528.2,364.4 L528.2,364.5 L523,364.5 C523,362.8 522.6,361.5 521.7,360.6 C520.9,359.8 519.6,359.3 517.8,359.3 C516.2,359.3 514.9,360 514,361.3 C513.1,362.6 512.6,364.3 512.6,366.4 L512.6,371.8 C512.6,373.9 513.1,375.6 514,376.9 C515,378.2 516.3,378.9 518,378.9 C519.6,378.9 520.8,378.5 521.6,377.6 C522.4,376.8 522.8,375.5 522.8,373.7 L528.2,373.7 Z" id="Shape"></path>
                <path d="M556.4,371.6 C556.4,374.9 555.4,377.7 553.3,379.8 C551.2,382 548.5,383 545.1,383 C541.8,383 539.1,381.9 537,379.8 C534.9,377.6 533.9,374.9 533.9,371.6 L533.9,366.7 C533.9,363.4 534.9,360.7 537,358.5 C539.1,356.3 541.8,355.2 545.1,355.2 C548.5,355.2 551.2,356.3 553.3,358.5 C555.4,360.7 556.5,363.4 556.5,366.7 L556.5,371.6 L556.4,371.6 Z M551.1,366.7 C551.1,364.6 550.6,362.9 549.5,361.5 C548.4,360.2 547,359.5 545.1,359.5 C543.3,359.5 541.8,360.2 540.8,361.5 C539.8,362.8 539.3,364.6 539.3,366.7 L539.3,371.6 C539.3,373.7 539.8,375.5 540.8,376.8 C541.8,378.1 543.3,378.8 545.1,378.8 C547,378.8 548.4,378.1 549.4,376.8 C550.4,375.5 551,373.7 551,371.6 L551,366.7 L551.1,366.7 Z" id="Shape"></path>
                <polygon id="Shape" points="585 382.7 579.6 382.7 568.7 364.5 568.6 364.5 568.6 382.7 563.2 382.7 563.2 355.7 568.6 355.7 579.5 373.9 579.6 373.9 579.6 355.7 585 355.7"></polygon>
                <polygon id="Shape" points="610.8 359.8 603.1 359.8 603.1 382.6 597.7 382.6 597.7 359.8 590 359.8 590 355.6 610.7 355.6 610.7 359.8"></polygon>
                <polygon id="Shape" points="631.7 370.8 621.7 370.8 621.7 378.5 633.6 378.5 633.6 382.7 616.3 382.7 616.3 355.7 633.6 355.7 633.6 359.9 621.7 359.9 621.7 366.7 631.7 366.7"></polygon>
                <polygon id="Shape" points="661.7 382.7 656.3 382.7 645.4 364.5 645.3 364.5 645.3 382.7 639.9 382.7 639.9 355.7 645.3 355.7 656.2 373.9 656.3 373.9 656.3 355.7 661.7 355.7"></polygon>
                <polygon id="Shape" points="687.4 359.8 679.7 359.8 679.7 382.6 674.3 382.6 674.3 359.8 666.7 359.8 666.7 355.6 687.4 355.6"></polygon>
                <polygon id="Shape" points="693.3 382.4 690.3 388.2 686.7 388.2 688 382.2 688 378 693.3 378 693.3 382.4"></polygon>
                <path d="M7.5,423.6 L7.5,433.4 L2.1,433.4 L2.1,406.4 L12.4,406.4 C15.5,406.4 17.9,407.2 19.7,408.8 C21.5,410.4 22.4,412.5 22.4,415.1 C22.4,417.7 21.5,419.8 19.7,421.3 C17.9,422.9 15.5,423.7 12.4,423.7 L7.5,423.7 L7.5,423.6 Z M7.5,419.4 L12.4,419.4 C13.9,419.4 15.1,419 15.8,418.2 C16.6,417.4 17,416.3 17,415.1 C17,413.8 16.6,412.7 15.8,411.9 C15,411.1 13.9,410.6 12.4,410.6 L7.5,410.6 L7.5,419.4 Z" id="Shape"></path>
                <polygon id="Shape" points="44.2 421.5 34.2 421.5 34.2 429.2 46.1 429.2 46.1 433.4 28.8 433.4 28.8 406.4 46.1 406.4 46.1 410.6 34.2 410.6 34.2 417.4 44.2 417.4"></polygon>
                <path d="M57.8,422.6 L57.8,433.4 L52.4,433.4 L52.4,406.4 L61.8,406.4 C64.9,406.4 67.3,407.1 69,408.5 C70.7,409.9 71.6,411.9 71.6,414.4 C71.6,415.8 71.2,417 70.5,418 C69.8,419 68.7,419.8 67.3,420.4 C68.9,420.9 70,421.7 70.7,422.8 C71.4,423.9 71.7,425.3 71.7,426.9 L71.7,428.9 C71.7,429.7 71.8,430.4 72,431.3 C72.2,432.1 72.6,432.7 73,433.1 L73,433.5 L67.4,433.5 C66.9,433.1 66.6,432.4 66.4,431.5 C66.3,430.6 66.2,429.7 66.2,428.8 L66.2,426.9 C66.2,425.6 65.8,424.5 65.1,423.8 C64.4,423.1 63.3,422.7 62,422.7 L57.8,422.7 L57.8,422.6 Z M57.8,418.4 L61.6,418.4 C63.1,418.4 64.3,418.1 65,417.4 C65.7,416.8 66.1,415.8 66.1,414.5 C66.1,413.3 65.7,412.3 65,411.5 C64.3,410.8 63.2,410.4 61.7,410.4 L57.8,410.4 L57.8,418.4 Z" id="Shape"></path>
                <polygon id="Shape" points="94.9 422.1 84.5 422.1 84.5 433.3 79.1 433.3 79.1 406.3 96.8 406.3 96.8 410.5 84.5 410.5 84.5 417.9 94.9 417.9"></polygon>
                <path d="M124.5,422.3 C124.5,425.6 123.5,428.4 121.4,430.5 C119.3,432.7 116.6,433.7 113.2,433.7 C109.9,433.7 107.2,432.6 105.1,430.5 C103,428.3 102,425.6 102,422.3 L102,417.4 C102,414.1 103,411.4 105.1,409.2 C107.2,407 109.9,405.9 113.2,405.9 C116.6,405.9 119.3,407 121.4,409.2 C123.5,411.4 124.6,414.1 124.6,417.4 L124.6,422.3 L124.5,422.3 Z M119.1,417.4 C119.1,415.3 118.6,413.6 117.5,412.2 C116.4,410.9 115,410.2 113.1,410.2 C111.3,410.2 109.8,410.9 108.8,412.2 C107.8,413.5 107.3,415.3 107.3,417.4 L107.3,422.3 C107.3,424.4 107.8,426.2 108.8,427.5 C109.8,428.8 111.3,429.5 113.1,429.5 C115,429.5 116.4,428.8 117.4,427.5 C118.4,426.2 119,424.4 119,422.3 L119,417.4 L119.1,417.4 Z" id="Shape"></path>
                <path d="M136.7,422.6 L136.7,433.4 L131.3,433.4 L131.3,406.4 L140.7,406.4 C143.8,406.4 146.2,407.1 147.9,408.5 C149.6,409.9 150.5,411.9 150.5,414.4 C150.5,415.8 150.1,417 149.4,418 C148.7,419 147.6,419.8 146.2,420.4 C147.8,420.9 148.9,421.7 149.6,422.8 C150.3,423.9 150.6,425.3 150.6,426.9 L150.6,428.9 C150.6,429.7 150.7,430.4 150.9,431.3 C151.1,432.1 151.5,432.7 151.9,433.1 L151.9,433.5 L146.3,433.5 C145.8,433.1 145.5,432.4 145.3,431.5 C145.2,430.6 145.1,429.7 145.1,428.8 L145.1,426.9 C145.1,425.6 144.7,424.5 144,423.8 C143.3,423.1 142.2,422.7 140.9,422.7 L136.7,422.7 L136.7,422.6 Z M136.7,418.4 L140.5,418.4 C142,418.4 143.2,418.1 143.9,417.4 C144.6,416.8 145,415.8 145,414.5 C145,413.3 144.6,412.3 143.9,411.5 C143.2,410.8 142.1,410.4 140.6,410.4 L136.7,410.4 L136.7,418.4 Z" id="Shape"></path>
                <polygon id="Shape" points="172 426.3 172.1 426.3 179 406.4 186.1 406.4 186.1 433.4 180.7 433.4 180.7 415 180.6 415 173.9 433.5 170.2 433.5 163.5 415 163.4 415 163.4 433.5 158 433.5 158 406.5 165.1 406.5"></polygon>
                <polygon id="Shape" points="209 421.5 199 421.5 199 429.2 210.9 429.2 210.9 433.4 193.6 433.4 193.6 406.4 210.9 406.4 210.9 410.6 199 410.6 199 417.4 209 417.4"></polygon>
                <path d="M217.1,433.4 L217.1,406.4 L226.5,406.4 C229.8,406.4 232.5,407.5 234.7,409.6 C236.8,411.7 237.9,414.4 237.9,417.7 L237.9,422.2 C237.9,425.5 236.8,428.2 234.7,430.3 C232.6,432.4 229.8,433.4 226.5,433.4 L217.1,433.4 L217.1,433.4 Z M222.5,410.5 L222.5,429.2 L226.5,429.2 C228.3,429.2 229.7,428.5 230.8,427.2 C231.9,425.9 232.4,424.2 232.4,422.1 L232.4,417.6 C232.4,415.5 231.9,413.8 230.8,412.5 C229.7,411.2 228.3,410.5 226.5,410.5 L222.5,410.5 L222.5,410.5 Z" id="Shape"></path>
                <path d="M256.7,433.4 L256.7,406.4 L265.6,406.4 C268.8,406.4 271.3,407 273,408.3 C274.8,409.5 275.7,411.4 275.7,413.8 C275.7,415 275.4,416.1 274.7,417.1 C274.1,418.1 273.1,418.8 271.9,419.3 C273.6,419.6 274.9,420.3 275.7,421.5 C276.5,422.7 277,424 277,425.5 C277,428.1 276.1,430 274.4,431.4 C272.7,432.7 270.3,433.4 267.1,433.4 L256.7,433.4 L256.7,433.4 Z M262.1,417.7 L265.7,417.7 C267.1,417.7 268.3,417.4 269,416.8 C269.7,416.2 270.2,415.3 270.2,414.2 C270.2,413 269.8,412 269,411.4 C268.2,410.8 267,410.5 265.5,410.5 L262.1,410.5 L262.1,417.7 L262.1,417.7 Z M262.1,421.4 L262.1,429.2 L267.1,429.2 C268.5,429.2 269.6,428.9 270.4,428.3 C271.2,427.7 271.5,426.8 271.5,425.5 C271.5,424.2 271.1,423.2 270.4,422.5 C269.7,421.8 268.5,421.4 267,421.4 L262.1,421.4 Z" id="Shape"></path>
                <polygon id="Shape" points="291.9 418.8 292 418.8 297.9 406.3 303.8 406.3 294.5 423.8 294.5 433.3 289.1 433.3 289.1 423.5 280 406.3 285.9 406.3"></polygon>
                <polygon id="Shape" points="326.3 429.2 338.4 429.2 338.4 433.4 320.9 433.4 320.9 406.4 326.3 406.4"></polygon>
                <path d="M365.9,422.3 C365.9,425.6 364.9,428.4 362.8,430.5 C360.7,432.7 358,433.7 354.6,433.7 C351.3,433.7 348.6,432.6 346.5,430.5 C344.4,428.3 343.4,425.6 343.4,422.3 L343.4,417.4 C343.4,414.1 344.4,411.4 346.5,409.2 C348.6,407 351.3,405.9 354.6,405.9 C358,405.9 360.7,407 362.8,409.2 C364.9,411.4 366,414.1 366,417.4 L366,422.3 L365.9,422.3 Z M360.5,417.4 C360.5,415.3 360,413.6 358.9,412.2 C357.8,410.9 356.4,410.2 354.5,410.2 C352.7,410.2 351.2,410.9 350.2,412.2 C349.2,413.5 348.7,415.3 348.7,417.4 L348.7,422.3 C348.7,424.4 349.2,426.2 350.2,427.5 C351.2,428.8 352.7,429.5 354.5,429.5 C356.4,429.5 357.8,428.8 358.8,427.5 C359.8,426.2 360.4,424.4 360.4,422.3 L360.4,417.4 L360.5,417.4 Z" id="Shape"></path>
                <path d="M392.9,424.4 L392.9,424.5 C392.9,427.4 392.1,429.6 390.3,431.3 C388.5,432.9 386,433.7 382.8,433.7 C379.6,433.7 376.9,432.7 375,430.6 C373,428.5 372,425.8 372,422.5 L372,417.1 C372,413.8 373,411.1 374.9,409 C376.8,406.9 379.4,405.9 382.5,405.9 C385.8,405.9 388.4,406.7 390.2,408.3 C392.1,409.9 393,412.2 392.9,415.1 L392.9,415.2 L387.6,415.2 C387.6,413.5 387.2,412.2 386.3,411.3 C385.5,410.5 384.2,410 382.4,410 C380.8,410 379.5,410.7 378.6,412 C377.7,413.3 377.2,415 377.2,417.1 L377.2,422.5 C377.2,424.6 377.7,426.3 378.6,427.6 C379.6,428.9 380.9,429.6 382.6,429.6 C384.2,429.6 385.4,429.2 386.2,428.3 C387,427.5 387.4,426.2 387.4,424.4 L392.9,424.4 Z" id="Shape"></path>
                <path d="M413.4,427.5 L404.6,427.5 L402.8,433.3 L397.1,433.3 L406.2,406.3 L411.7,406.3 L420.8,433.3 L415.1,433.3 L413.4,427.5 Z M406,423.3 L412.1,423.3 L409.1,413.8 L409,413.8 L406,423.3 Z" id="Shape"></path>
                <polygon id="Shape" points="431.4 429.2 443.5 429.2 443.5 433.4 426 433.4 426 406.4 431.4 406.4"></polygon>
                <path d="M475.5,427.5 L466.7,427.5 L464.9,433.3 L459.2,433.3 L468.3,406.3 L473.8,406.3 L482.9,433.3 L477.2,433.3 L475.5,427.5 Z M468.1,423.3 L474.2,423.3 L471.2,413.8 L471.1,413.8 L468.1,423.3 Z" id="Shape"></path>
                <polygon id="Shape" points="509.9 433.4 504.5 433.4 493.6 415.2 493.5 415.2 493.5 433.4 488.1 433.4 488.1 406.4 493.5 406.4 504.4 424.6 504.5 424.6 504.5 406.4 509.9 406.4"></polygon>
                <path d="M517.4,433.4 L517.4,406.4 L526.8,406.4 C530.1,406.4 532.8,407.5 535,409.6 C537.1,411.7 538.2,414.4 538.2,417.7 L538.2,422.2 C538.2,425.5 537.1,428.2 535,430.3 C532.9,432.4 530.1,433.4 526.8,433.4 L517.4,433.4 L517.4,433.4 Z M522.8,410.5 L522.8,429.2 L526.8,429.2 C528.6,429.2 530,428.5 531.1,427.2 C532.2,425.9 532.7,424.2 532.7,422.1 L532.7,417.6 C532.7,415.5 532.2,413.8 531.1,412.5 C530,411.2 528.6,410.5 526.8,410.5 L522.8,410.5 L522.8,410.5 Z" id="Shape"></path>
                <polygon id="Shape" points="572.7 422.1 562.3 422.1 562.3 433.3 556.9 433.3 556.9 406.3 574.6 406.3 574.6 410.5 562.3 410.5 562.3 417.9 572.7 417.9 572.7 422.1"></polygon>
                <path d="M602.4,422.3 C602.4,425.6 601.4,428.4 599.3,430.5 C597.2,432.7 594.5,433.7 591.1,433.7 C587.8,433.7 585.1,432.6 583,430.5 C580.9,428.3 579.9,425.6 579.9,422.3 L579.9,417.4 C579.9,414.1 580.9,411.4 583,409.2 C585.1,407 587.8,405.9 591.1,405.9 C594.5,405.9 597.2,407 599.3,409.2 C601.4,411.4 602.5,414.1 602.5,417.4 L602.5,422.3 L602.4,422.3 Z M597,417.4 C597,415.3 596.5,413.6 595.4,412.2 C594.3,410.9 592.9,410.2 591,410.2 C589.2,410.2 587.7,410.9 586.7,412.2 C585.7,413.5 585.2,415.3 585.2,417.4 L585.2,422.3 C585.2,424.4 585.7,426.2 586.7,427.5 C587.7,428.8 589.2,429.5 591,429.5 C592.9,429.5 594.3,428.8 595.3,427.5 C596.3,426.2 596.9,424.4 596.9,422.3 L596.9,417.4 L597,417.4 Z" id="Shape"></path>
                <path d="M614.6,422.6 L614.6,433.4 L609.2,433.4 L609.2,406.4 L618.6,406.4 C621.7,406.4 624.1,407.1 625.8,408.5 C627.5,409.9 628.4,411.9 628.4,414.4 C628.4,415.8 628,417 627.3,418 C626.6,419 625.5,419.8 624.1,420.4 C625.7,420.9 626.8,421.7 627.5,422.8 C628.2,423.9 628.5,425.3 628.5,426.9 L628.5,428.9 C628.5,429.7 628.6,430.4 628.8,431.3 C629,432.1 629.4,432.7 629.8,433.1 L629.8,433.5 L624.2,433.5 C623.7,433.1 623.4,432.4 623.2,431.5 C623.1,430.6 623,429.7 623,428.8 L623,426.9 C623,425.6 622.6,424.5 621.9,423.8 C621.2,423.1 620.1,422.7 618.8,422.7 L614.6,422.7 L614.6,422.6 Z M614.6,418.4 L618.4,418.4 C619.9,418.4 621.1,418.1 621.8,417.4 C622.5,416.8 622.9,415.8 622.9,414.5 C622.9,413.3 622.5,412.3 621.8,411.5 C621.1,410.8 620,410.4 618.5,410.4 L614.6,410.4 L614.6,418.4 Z" id="Shape"></path>
                <polygon id="Shape" points="651.3 421.5 641.3 421.5 641.3 429.2 653.2 429.2 653.2 433.4 635.9 433.4 635.9 406.4 653.2 406.4 653.2 410.6 641.3 410.6 641.3 417.4 651.3 417.4"></polygon>
                <polygon id="Shape" points="665.2 433.4 659.8 433.4 659.8 406.4 665.2 406.4"></polygon>
                <path d="M693.8,429.7 C693,430.8 691.7,431.8 690,432.6 C688.3,433.4 686.2,433.8 683.5,433.8 C680.2,433.8 677.6,432.8 675.5,430.7 C673.4,428.6 672.4,426 672.4,422.7 L672.4,417 C672.4,413.7 673.4,411.1 675.4,409 C677.4,406.9 680,405.9 683.2,405.9 C686.5,405.9 689,406.7 690.8,408.2 C692.6,409.8 693.4,411.9 693.3,414.5 L693.3,414.6 L688.2,414.6 C688.2,413.2 687.8,412 687,411.3 C686.2,410.5 685,410.1 683.4,410.1 C681.7,410.1 680.4,410.7 679.4,412 C678.4,413.3 677.9,414.9 677.9,416.9 L677.9,422.6 C677.9,424.6 678.4,426.3 679.5,427.6 C680.5,428.9 681.9,429.5 683.7,429.5 C685,429.5 686,429.4 686.8,429.1 C687.5,428.8 688.1,428.5 688.5,428.1 L688.5,423 L683.3,423 L683.3,419.3 L693.9,419.3 L693.9,429.7 L693.8,429.7 Z" id="Shape"></path>
                <polygon id="Shape" points="722.7 433.4 717.3 433.4 706.4 415.2 706.3 415.2 706.3 433.4 700.9 433.4 700.9 406.4 706.3 406.4 717.2 424.6 717.3 424.6 717.3 406.4 722.7 406.4"></polygon>
                <path d="M756.1,427.5 L747.3,427.5 L745.5,433.3 L739.8,433.3 L748.9,406.3 L754.4,406.3 L763.5,433.3 L758,433.3 L756.1,427.5 Z M748.7,423.3 L754.8,423.3 L751.8,413.8 L751.7,413.8 L748.7,423.3 Z" id="Shape"></path>
                <path d="M774.1,422.6 L774.1,433.4 L768.7,433.4 L768.7,406.4 L778.1,406.4 C781.2,406.4 783.6,407.1 785.3,408.5 C787,409.9 787.9,411.9 787.9,414.4 C787.9,415.8 787.5,417 786.8,418 C786.1,419 785,419.8 783.6,420.4 C785.2,420.9 786.3,421.7 787,422.8 C787.7,423.9 788,425.3 788,426.9 L788,428.9 C788,429.7 788.1,430.4 788.3,431.3 C788.5,432.1 788.9,432.7 789.3,433.1 L789.3,433.5 L783.7,433.5 C783.2,433.1 782.9,432.4 782.7,431.5 C782.6,430.6 782.5,429.7 782.5,428.8 L782.5,426.9 C782.5,425.6 782.1,424.5 781.4,423.8 C780.7,423.1 779.6,422.7 778.3,422.7 L774.1,422.7 L774.1,422.6 Z M774.1,418.4 L777.9,418.4 C779.4,418.4 780.6,418.1 781.3,417.4 C782,416.8 782.4,415.8 782.4,414.5 C782.4,413.3 782,412.3 781.3,411.5 C780.6,410.8 779.5,410.4 778,410.4 L774.1,410.4 L774.1,418.4 Z" id="Shape"></path>
                <polygon id="Shape" points="813.3 410.5 805.6 410.5 805.6 433.3 800.2 433.3 800.2 410.5 792.6 410.5 792.6 406.3 813.3 406.3"></polygon>
                <polygon id="Shape" points="824.5 433.4 819.1 433.4 819.1 406.4 824.5 406.4"></polygon>
                <path d="M846.4,426.3 C846.4,425.3 846,424.4 845.3,423.8 C844.6,423.2 843.3,422.6 841.5,422 C838.4,421.1 836,420 834.4,418.7 C832.8,417.4 832,415.7 832,413.5 C832,411.3 832.9,409.5 834.7,408.1 C836.5,406.7 838.8,406 841.7,406 C844.7,406 847.1,406.8 848.9,408.3 C850.7,409.8 851.6,411.8 851.5,414.2 L851.5,414.3 L846.3,414.3 C846.3,413 845.9,411.9 845.1,411.2 C844.3,410.5 843.1,410.1 841.7,410.1 C840.4,410.1 839.3,410.4 838.6,411.1 C837.9,411.7 837.5,412.6 837.5,413.6 C837.5,414.5 837.9,415.3 838.7,415.9 C839.5,416.5 840.9,417.1 842.8,417.8 C845.8,418.6 848,419.7 849.6,421.1 C851.2,422.5 851.9,424.2 851.9,426.5 C851.9,428.8 851,430.6 849.2,432 C847.4,433.3 845,434 842,434 C839.1,434 836.6,433.3 834.5,431.8 C832.4,430.4 831.4,428.2 831.5,425.3 L831.5,425.2 L836.8,425.2 C836.8,426.8 837.3,428 838.2,428.7 C839.1,429.5 840.4,429.8 842,429.8 C843.4,429.8 844.6,429.5 845.3,428.9 C846.1,428.1 846.4,427.3 846.4,426.3 Z" id="Shape"></path>
                <polygon id="Shape" points="877.1 410.5 869.4 410.5 869.4 433.3 864 433.3 864 410.5 856.4 410.5 856.4 406.3 877.1 406.3"></polygon>
                <path d="M896.4,426.3 C896.4,425.3 896,424.4 895.3,423.8 C894.6,423.2 893.3,422.6 891.5,422 C888.4,421.1 886,420 884.4,418.7 C882.8,417.4 882,415.7 882,413.5 C882,411.3 882.9,409.5 884.7,408.1 C886.5,406.7 888.8,406 891.7,406 C894.7,406 897.1,406.8 898.9,408.3 C900.7,409.8 901.6,411.8 901.5,414.2 L901.5,414.3 L896.2,414.3 C896.2,413 895.8,411.9 895,411.2 C894.2,410.5 893,410.1 891.6,410.1 C890.3,410.1 889.2,410.4 888.5,411.1 C887.8,411.7 887.4,412.6 887.4,413.6 C887.4,414.5 887.8,415.3 888.6,415.9 C889.4,416.5 890.8,417.1 892.7,417.8 C895.7,418.6 897.9,419.7 899.5,421.1 C901.1,422.5 901.8,424.2 901.8,426.5 C901.8,428.8 900.9,430.6 899.1,432 C897.3,433.4 894.9,434 891.9,434 C889,434 886.5,433.3 884.4,431.8 C882.3,430.3 881.3,428.2 881.4,425.3 L881.4,425.2 L886.7,425.2 C886.7,426.8 887.2,428 888.1,428.7 C889,429.5 890.3,429.8 891.9,429.8 C893.3,429.8 894.5,429.5 895.2,428.9 C896,428.1 896.4,427.3 896.4,426.3 Z" id="Shape"></path>
                <polygon id="Shape" points="913.5 433.1 910.5 438.9 906.9 438.9 908.2 432.9 908.2 428.7 913.5 428.7 913.5 433.1"></polygon>
                <path d="M7.5,474.3 L7.5,484.1 L2.1,484.1 L2.1,457.1 L12.4,457.1 C15.5,457.1 17.9,457.9 19.7,459.5 C21.5,461.1 22.4,463.2 22.4,465.8 C22.4,468.4 21.5,470.5 19.7,472 C17.9,473.6 15.5,474.4 12.4,474.4 L7.5,474.4 L7.5,474.3 Z M7.5,470.1 L12.4,470.1 C13.9,470.1 15.1,469.7 15.8,468.9 C16.6,468.1 17,467 17,465.8 C17,464.5 16.6,463.4 15.8,462.6 C15,461.8 13.9,461.3 12.4,461.3 L7.5,461.3 L7.5,470.1 Z" id="Shape"></path>
                <path d="M34.2,473.3 L34.2,484.1 L28.8,484.1 L28.8,457.1 L38.2,457.1 C41.3,457.1 43.7,457.8 45.4,459.2 C47.1,460.6 48,462.6 48,465.1 C48,466.5 47.6,467.7 46.9,468.7 C46.2,469.7 45.1,470.5 43.7,471.1 C45.3,471.6 46.4,472.4 47.1,473.5 C47.8,474.6 48.1,476 48.1,477.6 L48.1,479.6 C48.1,480.4 48.2,481.1 48.4,482 C48.6,482.8 49,483.4 49.4,483.8 L49.4,484.2 L43.8,484.2 C43.3,483.8 43,483.1 42.8,482.2 C42.7,481.3 42.6,480.4 42.6,479.5 L42.6,477.6 C42.6,476.3 42.2,475.2 41.5,474.5 C40.8,473.8 39.7,473.4 38.4,473.4 L34.2,473.4 L34.2,473.3 Z M34.2,469.1 L38,469.1 C39.5,469.1 40.7,468.8 41.4,468.1 C42.1,467.5 42.5,466.5 42.5,465.2 C42.5,464 42.1,463 41.4,462.2 C40.7,461.5 39.6,461.1 38.1,461.1 L34.2,461.1 L34.2,469.1 Z" id="Shape"></path>
                <path d="M77.3,473 C77.3,476.3 76.3,479.1 74.2,481.2 C72.1,483.4 69.4,484.4 66,484.4 C62.7,484.4 60,483.3 57.9,481.2 C55.8,479 54.8,476.3 54.8,473 L54.8,468.1 C54.8,464.8 55.8,462.1 57.9,459.9 C60,457.7 62.7,456.6 66,456.6 C69.4,456.6 72.1,457.7 74.2,459.9 C76.3,462.1 77.4,464.8 77.4,468.1 L77.4,473 L77.3,473 Z M71.9,468.1 C71.9,466 71.4,464.3 70.3,462.9 C69.2,461.6 67.8,460.9 65.9,460.9 C64.1,460.9 62.6,461.6 61.6,462.9 C60.6,464.2 60.1,466 60.1,468.1 L60.1,473 C60.1,475.1 60.6,476.9 61.6,478.2 C62.6,479.5 64.1,480.2 65.9,480.2 C67.8,480.2 69.2,479.5 70.2,478.2 C71.2,476.9 71.8,475.1 71.8,473 L71.8,468.1 L71.9,468.1 Z" id="Shape"></path>
                <path d="M84.1,484.1 L84.1,457.1 L93.5,457.1 C96.8,457.1 99.5,458.2 101.7,460.3 C103.8,462.4 104.9,465.1 104.9,468.4 L104.9,472.9 C104.9,476.2 103.8,478.9 101.7,481 C99.6,483.1 96.8,484.1 93.5,484.1 L84.1,484.1 L84.1,484.1 Z M89.5,461.2 L89.5,479.9 L93.5,479.9 C95.3,479.9 96.7,479.2 97.8,477.9 C98.9,476.6 99.4,474.9 99.4,472.8 L99.4,468.3 C99.4,466.2 98.9,464.5 97.8,463.2 C96.7,461.9 95.3,461.2 93.5,461.2 L89.5,461.2 L89.5,461.2 Z" id="Shape"></path>
                <path d="M133.1,457 L133.1,474.7 C133.1,477.7 132.1,480.1 130.1,481.8 C128.1,483.5 125.5,484.4 122.3,484.4 C119.1,484.4 116.5,483.5 114.5,481.8 C112.5,480.1 111.5,477.7 111.5,474.7 L111.5,457 L116.9,457 L116.9,474.7 C116.9,476.5 117.4,477.9 118.3,478.8 C119.3,479.8 120.6,480.2 122.2,480.2 C123.9,480.2 125.2,479.7 126.2,478.8 C127.2,477.8 127.7,476.5 127.7,474.7 L127.7,457 L133.1,457 Z" id="Shape"></path>
                <path d="M160.5,475.1 L160.5,475.2 C160.5,478.1 159.7,480.3 157.9,482 C156.1,483.6 153.6,484.4 150.4,484.4 C147.2,484.4 144.5,483.4 142.6,481.3 C140.6,479.2 139.6,476.5 139.6,473.2 L139.6,467.8 C139.6,464.5 140.6,461.8 142.5,459.7 C144.4,457.6 147,456.6 150.1,456.6 C153.4,456.6 156,457.4 157.8,459 C159.7,460.6 160.6,462.9 160.5,465.8 L160.5,465.9 L155.2,465.9 C155.2,464.2 154.8,462.9 153.9,462 C153.1,461.2 151.8,460.7 150,460.7 C148.4,460.7 147.1,461.4 146.2,462.7 C145.3,464 144.8,465.7 144.8,467.8 L144.8,473.2 C144.8,475.3 145.3,477 146.2,478.3 C147.2,479.6 148.5,480.3 150.2,480.3 C151.8,480.3 153,479.9 153.8,479 C154.6,478.2 155,476.9 155,475.1 L160.5,475.1 Z" id="Shape"></path>
                <polygon id="Shape" points="182.4 472.2 172.4 472.2 172.4 479.9 184.3 479.9 184.3 484.1 167 484.1 167 457.1 184.3 457.1 184.3 461.3 172.4 461.3 172.4 468.1 182.4 468.1"></polygon>
                <path d="M190.5,484.1 L190.5,457.1 L199.9,457.1 C203.2,457.1 205.9,458.2 208.1,460.3 C210.2,462.4 211.3,465.1 211.3,468.4 L211.3,472.9 C211.3,476.2 210.2,478.9 208.1,481 C206,483.1 203.2,484.1 199.9,484.1 L190.5,484.1 L190.5,484.1 Z M196,461.2 L196,479.9 L200,479.9 C201.8,479.9 203.2,479.2 204.3,477.9 C205.4,476.6 205.9,474.9 205.9,472.8 L205.9,468.3 C205.9,466.2 205.4,464.5 204.3,463.2 C203.2,461.9 201.8,461.2 200,461.2 L196,461.2 L196,461.2 Z" id="Shape"></path>
                <path d="M244.2,478.2 L235.4,478.2 L233.6,484 L227.9,484 L237,457 L242.5,457 L251.6,484 L246,484 L244.2,478.2 Z M236.7,474 L242.8,474 L239.8,464.5 L239.7,464.5 L236.7,474 Z" id="Shape"></path>
                <polygon id="Shape" points="278.6 484.1 273.2 484.1 262.3 465.9 262.2 465.9 262.2 484.1 256.8 484.1 256.8 457.1 262.2 457.1 273.1 475.3 273.2 475.3 273.2 457 278.6 457"></polygon>
                <path d="M286,484.1 L286,457.1 L295.4,457.1 C298.7,457.1 301.4,458.2 303.6,460.3 C305.7,462.4 306.8,465.1 306.8,468.4 L306.8,472.9 C306.8,476.2 305.7,478.9 303.6,481 C301.5,483.1 298.7,484.1 295.4,484.1 L286,484.1 L286,484.1 Z M291.4,461.2 L291.4,479.9 L295.4,479.9 C297.2,479.9 298.6,479.2 299.7,477.9 C300.8,476.6 301.3,474.9 301.3,472.8 L301.3,468.3 C301.3,466.2 300.8,464.5 299.7,463.2 C298.6,461.9 297.2,461.2 295.4,461.2 L291.4,461.2 L291.4,461.2 Z" id="Shape"></path>
                <path d="M331,473.3 L331,484.1 L325.6,484.1 L325.6,457.1 L335,457.1 C338.1,457.1 340.5,457.8 342.2,459.2 C343.9,460.6 344.8,462.6 344.8,465.1 C344.8,466.5 344.4,467.7 343.7,468.7 C343,469.7 341.9,470.5 340.5,471.1 C342.1,471.6 343.2,472.4 343.9,473.5 C344.6,474.6 344.9,476 344.9,477.6 L344.9,479.6 C344.9,480.4 345,481.1 345.2,482 C345.4,482.8 345.8,483.4 346.2,483.8 L346.2,484.2 L340.6,484.2 C340.1,483.8 339.8,483.1 339.6,482.2 C339.5,481.3 339.4,480.4 339.4,479.5 L339.4,477.6 C339.4,476.3 339,475.2 338.3,474.5 C337.6,473.8 336.5,473.4 335.2,473.4 L331,473.4 L331,473.3 Z M331,469.1 L334.8,469.1 C336.3,469.1 337.5,468.8 338.2,468.1 C338.9,467.5 339.3,466.5 339.3,465.2 C339.3,464 338.9,463 338.2,462.2 C337.5,461.5 336.4,461.1 334.9,461.1 L331,461.1 L331,469.1 Z" id="Shape"></path>
                <polygon id="Shape" points="367.7 472.2 357.7 472.2 357.7 479.9 369.6 479.9 369.6 484.1 352.3 484.1 352.3 457.1 369.6 457.1 369.6 461.3 357.7 461.3 357.7 468.1 367.7 468.1"></polygon>
                <path d="M396.1,475.1 L396.1,475.2 C396.1,478.1 395.3,480.3 393.5,482 C391.7,483.6 389.2,484.4 386,484.4 C382.8,484.4 380.1,483.4 378.2,481.3 C376.2,479.2 375.2,476.5 375.2,473.2 L375.2,467.8 C375.2,464.5 376.2,461.8 378.1,459.7 C380,457.6 382.6,456.6 385.7,456.6 C389,456.6 391.6,457.4 393.4,459 C395.3,460.6 396.2,462.9 396.1,465.8 L396.1,465.9 L390.8,465.9 C390.8,464.2 390.4,462.9 389.5,462 C388.7,461.2 387.4,460.7 385.6,460.7 C384,460.7 382.7,461.4 381.8,462.7 C380.9,464 380.4,465.7 380.4,467.8 L380.4,473.2 C380.4,475.3 380.9,477 381.8,478.3 C382.8,479.6 384.1,480.3 385.8,480.3 C387.4,480.3 388.6,479.9 389.4,479 C390.2,478.2 390.6,476.9 390.6,475.1 L396.1,475.1 Z" id="Shape"></path>
                <path d="M424.3,473 C424.3,476.3 423.3,479.1 421.2,481.2 C419.1,483.4 416.4,484.4 413,484.4 C409.7,484.4 407,483.3 404.9,481.2 C402.8,479 401.8,476.3 401.8,473 L401.8,468.1 C401.8,464.8 402.8,462.1 404.9,459.9 C407,457.7 409.7,456.6 413,456.6 C416.4,456.6 419.1,457.7 421.2,459.9 C423.3,462.1 424.4,464.8 424.4,468.1 L424.4,473 L424.3,473 Z M418.9,468.1 C418.9,466 418.4,464.3 417.3,462.9 C416.2,461.6 414.8,460.9 412.9,460.9 C411.1,460.9 409.6,461.6 408.6,462.9 C407.6,464.2 407.1,466 407.1,468.1 L407.1,473 C407.1,475.1 407.6,476.9 408.6,478.2 C409.6,479.5 411.1,480.2 412.9,480.2 C414.8,480.2 416.2,479.5 417.2,478.2 C418.2,476.9 418.8,475.1 418.8,473 L418.8,468.1 L418.9,468.1 Z" id="Shape"></path>
                <path d="M436.5,473.3 L436.5,484.1 L431.1,484.1 L431.1,457.1 L440.5,457.1 C443.6,457.1 446,457.8 447.7,459.2 C449.4,460.6 450.3,462.6 450.3,465.1 C450.3,466.5 449.9,467.7 449.2,468.7 C448.5,469.7 447.4,470.5 446,471.1 C447.6,471.6 448.7,472.4 449.4,473.5 C450.1,474.6 450.4,476 450.4,477.6 L450.4,479.6 C450.4,480.4 450.5,481.1 450.7,482 C450.9,482.8 451.3,483.4 451.7,483.8 L451.7,484.2 L446.1,484.2 C445.6,483.8 445.3,483.1 445.1,482.2 C445,481.3 444.9,480.4 444.9,479.5 L444.9,477.6 C444.9,476.3 444.5,475.2 443.8,474.5 C443.1,473.8 442,473.4 440.7,473.4 L436.5,473.4 L436.5,473.3 Z M436.5,469.1 L440.3,469.1 C441.8,469.1 443,468.8 443.7,468.1 C444.4,467.5 444.8,466.5 444.8,465.2 C444.8,464 444.4,463 443.7,462.2 C443,461.5 441.9,461.1 440.4,461.1 L436.5,461.1 L436.5,469.1 Z" id="Shape"></path>
                <path d="M457.8,484.1 L457.8,457.1 L467.2,457.1 C470.5,457.1 473.2,458.2 475.4,460.3 C477.5,462.4 478.6,465.1 478.6,468.4 L478.6,472.9 C478.6,476.2 477.5,478.9 475.4,481 C473.3,483.1 470.5,484.1 467.2,484.1 L457.8,484.1 L457.8,484.1 Z M463.2,461.2 L463.2,479.9 L467.2,479.9 C469,479.9 470.4,479.2 471.5,477.9 C472.6,476.6 473.1,474.9 473.1,472.8 L473.1,468.3 C473.1,466.2 472.6,464.5 471.5,463.2 C470.4,461.9 469,461.2 467.2,461.2 L463.2,461.2 L463.2,461.2 Z" id="Shape"></path>
                <polygon id="Shape" points="500.8 472.2 490.8 472.2 490.8 479.9 502.7 479.9 502.7 484.1 485.4 484.1 485.4 457.1 502.7 457.1 502.7 461.3 490.8 461.3 490.8 468.1 500.8 468.1"></polygon>
                <path d="M509,484.1 L509,457.1 L518.4,457.1 C521.7,457.1 524.4,458.2 526.6,460.3 C528.7,462.4 529.8,465.1 529.8,468.4 L529.8,472.9 C529.8,476.2 528.7,478.9 526.6,481 C524.5,483.1 521.7,484.1 518.4,484.1 L509,484.1 L509,484.1 Z M514.4,461.2 L514.4,479.9 L518.4,479.9 C520.2,479.9 521.6,479.2 522.7,477.9 C523.8,476.6 524.3,474.9 524.3,472.8 L524.3,468.3 C524.3,466.2 523.8,464.5 522.7,463.2 C521.6,461.9 520.2,461.2 518.4,461.2 L514.4,461.2 L514.4,461.2 Z" id="Shape"></path>
                <path d="M548.5,484.1 L548.5,457.1 L557.4,457.1 C560.6,457.1 563.1,457.7 564.8,459 C566.6,460.2 567.5,462.1 567.5,464.5 C567.5,465.7 567.2,466.8 566.5,467.8 C565.9,468.8 564.9,469.5 563.7,470 C565.4,470.3 566.7,471 567.5,472.2 C568.3,473.4 568.8,474.7 568.8,476.2 C568.8,478.8 567.9,480.7 566.2,482.1 C564.5,483.4 562.1,484.1 558.9,484.1 L548.5,484.1 L548.5,484.1 Z M554,468.4 L557.6,468.4 C559,468.4 560.2,468.1 560.9,467.5 C561.6,466.9 562.1,466 562.1,464.9 C562.1,463.7 561.7,462.7 560.9,462.1 C560.1,461.5 558.9,461.2 557.4,461.2 L554,461.2 L554,468.4 Z M554,472.1 L554,479.9 L559,479.9 C560.4,479.9 561.5,479.6 562.3,479 C563.1,478.4 563.4,477.5 563.4,476.2 C563.4,474.9 563,473.9 562.3,473.2 C561.6,472.5 560.4,472.1 558.9,472.1 L554,472.1 Z" id="Shape"></path>
                <polygon id="Shape" points="583.7 469.5 583.8 469.5 589.7 457 595.6 457 586.3 474.5 586.3 484 581 484 581 474.2 571.9 457 577.8 457"></polygon>
                <path d="M634.2,457 L634.2,474.7 C634.2,477.7 633.2,480.1 631.2,481.8 C629.2,483.5 626.6,484.4 623.4,484.4 C620.2,484.4 617.6,483.5 615.6,481.8 C613.6,480.1 612.6,477.7 612.6,474.7 L612.6,457 L618,457 L618,474.7 C618,476.5 618.5,477.9 619.4,478.8 C620.4,479.8 621.7,480.2 623.3,480.2 C625,480.2 626.3,479.7 627.3,478.8 C628.3,477.8 628.8,476.5 628.8,474.7 L628.8,457 L634.2,457 Z" id="Shape"></path>
                <path d="M655.4,477 C655.4,476 655,475.1 654.3,474.5 C653.6,473.9 652.3,473.3 650.5,472.7 C647.4,471.8 645,470.7 643.4,469.4 C641.8,468.1 641,466.4 641,464.2 C641,462 641.9,460.2 643.7,458.8 C645.5,457.4 647.8,456.7 650.7,456.7 C653.7,456.7 656.1,457.5 657.9,459 C659.7,460.5 660.6,462.5 660.5,464.9 L660.5,465 L655.2,465 C655.2,463.7 654.8,462.6 654,461.9 C653.2,461.2 652,460.8 650.6,460.8 C649.3,460.8 648.2,461.1 647.5,461.8 C646.8,462.4 646.4,463.3 646.4,464.3 C646.4,465.2 646.8,466 647.6,466.6 C648.4,467.2 649.8,467.8 651.7,468.5 C654.7,469.3 656.9,470.4 658.5,471.8 C660.1,473.2 660.8,474.9 660.8,477.2 C660.8,479.5 659.9,481.3 658.1,482.7 C656.3,484.1 653.9,484.7 650.9,484.7 C648,484.7 645.5,484 643.4,482.5 C641.3,481 640.3,478.9 640.4,476 L640.4,475.9 L645.7,475.9 C645.7,477.5 646.2,478.7 647.1,479.4 C648,480.2 649.3,480.5 650.9,480.5 C652.3,480.5 653.5,480.2 654.2,479.6 C655.1,478.8 655.4,478 655.4,477 Z" id="Shape"></path>
                <polygon id="Shape" points="672.9 484.1 667.5 484.1 667.5 479.3 672.9 479.3"></polygon>
            </g>
        </g>
    </g>
</svg>