<svg version="1.1" id="Слой_1" xmlns="http://www.w3.org/2000/svg" xmlns:xlink="http://www.w3.org/1999/xlink" x="0px" y="0px" viewBox="0 0 937 497.6" style="enable-background:new 0 0 937 497.6;" xml:space="preserve"><style type="text/css">
	.st0{fill:none;stroke:#D04334;stroke-width:0.7;stroke-miterlimit:10;}
</style><g><g><path class="st0" d="M16.5,25v9.8h-5.4v-27h10.3c3.1,0,5.5,0.8,7.3,2.4c1.8,1.6,2.7,3.7,2.7,6.3c0,2.6-0.9,4.7-2.7,6.2 C27,24.2,24.6,25,21.5,25H16.5z M16.5,20.9h4.9c1.5,0,2.7-0.4,3.4-1.2c0.8-0.8,1.2-1.9,1.2-3.1c0-1.3-0.4-2.4-1.2-3.2 C24.1,12.4,23,12,21.5,12h-4.9V20.9z"/><path class="st0" d="M43.2,30.7h12.1v4.2H37.8v-27h5.4V30.7z"/><path class="st0" d="M67.2,34.8h-5.4v-27h5.4V34.8z"/><path class="st0" d="M84.2,27.5l0.3,1.5h0.1l0.3-1.4l5.9-19.7h5.7l-9.2,27h-5.6l-9.2-27h5.7L84.2,27.5z"/><path class="st0" d="M109.1,23.5h-2v11.3h-5.4v-27h5.4v11h1.5l7.4-11h6.7l-9.4,12.6l10.1,14.5h-6.9L109.1,23.5z"/><path class="st0" d="M142.4,29h-8.8l-1.8,5.8h-5.7l9.1-27h5.5l9.1,27h-5.7L142.4,29z M135,24.8h6.1l-3-9.5H138L135,24.8z"/><path class="st0" d="M172.7,34.8h-5.4v-27h5.4V34.8z"/><path class="st0" d="M194.6,27.8c0-1-0.4-1.9-1.1-2.5s-2-1.2-3.8-1.8c-3.1-0.9-5.5-2-7.1-3.3c-1.6-1.3-2.4-3-2.4-5.2 c0-2.2,0.9-4,2.7-5.4c1.8-1.4,4.1-2.1,7-2.1c3,0,5.4,0.8,7.2,2.3c1.8,1.5,2.7,3.5,2.6,5.9l0,0.1h-5.3c0-1.3-0.4-2.4-1.2-3.1 s-2-1.1-3.4-1.1c-1.3,0-2.4,0.3-3.1,1c-0.7,0.6-1.1,1.5-1.1,2.5c0,0.9,0.4,1.7,1.2,2.3c0.8,0.6,2.2,1.2,4.1,1.9 c3,0.8,5.2,1.9,6.8,3.3s2.3,3.1,2.3,5.4c0,2.3-0.9,4.1-2.7,5.5c-1.8,1.3-4.2,2-7.2,2c-2.9,0-5.4-0.7-7.5-2.2 c-2.1-1.4-3.1-3.6-3-6.5l0-0.1h5.3c0,1.6,0.5,2.8,1.4,3.5c0.9,0.8,2.2,1.1,3.8,1.1c1.4,0,2.6-0.3,3.3-0.9 C194.2,29.6,194.6,28.8,194.6,27.8z"/><path class="st0" d="M232.5,29h-8.8l-1.8,5.8h-5.7l9.1-27h5.5l9.1,27h-5.7L232.5,29z M225.1,24.8h6.1l-3-9.5h-0.1L225.1,24.8z"/><path class="st0" d="M262.4,24v10.8H257v-27h9.4c3.1,0,5.5,0.7,7.2,2.1c1.7,1.4,2.6,3.4,2.6,5.9c0,1.4-0.4,2.6-1.1,3.6 c-0.7,1-1.8,1.8-3.2,2.4c1.6,0.5,2.7,1.3,3.4,2.4c0.7,1.1,1,2.5,1,4.1v2c0,0.8,0.1,1.5,0.3,2.4c0.2,0.8,0.6,1.4,1,1.8v0.4h-5.6 c-0.5-0.4-0.8-1.1-1-2c-0.1-0.9-0.2-1.8-0.2-2.7v-1.9c0-1.3-0.4-2.4-1.1-3.1c-0.7-0.7-1.8-1.1-3.1-1.1H262.4z M262.4,19.9h3.8 c1.5,0,2.7-0.3,3.4-1c0.7-0.6,1.1-1.6,1.1-2.9c0-1.2-0.4-2.2-1.1-3c-0.7-0.7-1.8-1.1-3.3-1.1h-3.9V19.9z"/><path class="st0" d="M299.1,23h-10v7.7H301v4.2h-17.3v-27H301V12h-11.9v6.8h10V23z"/><path class="st0" d="M321.4,27.8c0-1-0.4-1.9-1.1-2.5s-2-1.2-3.8-1.8c-3.1-0.9-5.5-2-7.1-3.3c-1.6-1.3-2.4-3-2.4-5.2 c0-2.2,0.9-4,2.7-5.4c1.8-1.4,4.1-2.1,7-2.1c3,0,5.4,0.8,7.2,2.3c1.8,1.5,2.7,3.5,2.6,5.9l0,0.1h-5.3c0-1.3-0.4-2.4-1.2-3.1 s-2-1.1-3.4-1.1c-1.3,0-2.4,0.3-3.1,1c-0.7,0.6-1.1,1.5-1.1,2.5c0,0.9,0.4,1.7,1.2,2.3c0.8,0.6,2.2,1.2,4.1,1.9 c3,0.8,5.2,1.9,6.8,3.3s2.3,3.1,2.3,5.4c0,2.3-0.9,4.1-2.7,5.5c-1.8,1.3-4.2,2-7.2,2c-2.9,0-5.4-0.7-7.5-2.2 c-2.1-1.4-3.1-3.6-3-6.5l0-0.1h5.3c0,1.6,0.5,2.8,1.4,3.5c0.9,0.8,2.2,1.1,3.8,1.1c1.4,0,2.6-0.3,3.3-0.9 C321,29.6,321.4,28.8,321.4,27.8z"/><path class="st0" d="M348.7,23h-10v7.7h11.9v4.2h-17.3v-27h17.3V12h-11.9v6.8h10V23z"/><path class="st0" d="M370.9,29h-8.8l-1.8,5.8h-5.7l9.1-27h5.5l9.1,27h-5.7L370.9,29z M363.5,24.8h6.1l-3-9.5h-0.1L363.5,24.8z"/><path class="st0" d="M388.9,24v10.8h-5.4v-27h9.4c3.1,0,5.5,0.7,7.2,2.1c1.7,1.4,2.6,3.4,2.6,5.9c0,1.4-0.4,2.6-1.1,3.6 c-0.7,1-1.8,1.8-3.2,2.4c1.6,0.5,2.7,1.3,3.4,2.4c0.7,1.1,1,2.5,1,4.1v2c0,0.8,0.1,1.5,0.3,2.4c0.2,0.8,0.6,1.4,1,1.8v0.4h-5.6 c-0.5-0.4-0.8-1.1-1-2c-0.1-0.9-0.2-1.8-0.2-2.7v-1.9c0-1.3-0.4-2.4-1.1-3.1c-0.7-0.7-1.8-1.1-3.1-1.1H388.9z M388.9,19.9h3.8 c1.5,0,2.7-0.3,3.4-1c0.7-0.6,1.1-1.6,1.1-2.9c0-1.2-0.4-2.2-1.1-3c-0.7-0.7-1.8-1.1-3.3-1.1h-3.9V19.9z"/><path class="st0" d="M430.5,25.9l0,0.1c0,2.9-0.8,5.1-2.6,6.8c-1.8,1.6-4.3,2.4-7.5,2.4c-3.2,0-5.9-1-7.8-3.1c-2-2.1-3-4.8-3-8.1 v-5.4c0-3.3,1-6,2.9-8.1c1.9-2.1,4.5-3.1,7.6-3.1c3.3,0,5.9,0.8,7.7,2.4c1.9,1.6,2.8,3.9,2.7,6.8l0,0.1h-5.3c0-1.7-0.4-3-1.3-3.9 c-0.8-0.8-2.1-1.3-3.9-1.3c-1.6,0-2.9,0.7-3.8,2c-0.9,1.3-1.4,3-1.4,5.1V24c0,2.1,0.5,3.8,1.4,5.1c1,1.3,2.3,2,4,2 c1.6,0,2.8-0.4,3.6-1.3c0.8-0.8,1.2-2.1,1.2-3.9H430.5z"/><path class="st0" d="M458.7,34.8h-5.4V23.6h-11v11.2h-5.4v-27h5.4v11.6h11V7.8h5.4V34.8z"/><path class="st0" d="M25.2,79.7h-8.8l-1.8,5.8H9l9.1-27h5.5l9.1,27H27L25.2,79.7z M17.8,75.4h6.1l-3-9.5h-0.1L17.8,75.4z"/><path class="st0" d="M59.6,85.5h-5.4L43.3,67.3l-0.1,0v18.2h-5.4v-27h5.4l10.9,18.2l0.1,0V58.5h5.4V85.5z"/><path class="st0" d="M67,85.5v-27h9.4c3.3,0,6,1.1,8.2,3.2c2.1,2.1,3.2,4.8,3.2,8.1v4.5c0,3.3-1.1,6-3.2,8.1 c-2.1,2.1-4.9,3.1-8.2,3.1H67z M72.5,62.7v18.7h4c1.8,0,3.2-0.7,4.3-2c1.1-1.3,1.6-3,1.6-5.1v-4.5c0-2.1-0.5-3.8-1.6-5.1 c-1.1-1.3-2.5-2-4.3-2H72.5z"/><path class="st0" d="M122,73.6h-10v7.7h11.9v4.2h-17.3v-27h17.3v4.2H112v6.8h10V73.6z"/><path class="st0" d="M130.2,85.5v-27h9.4c3.3,0,6,1.1,8.2,3.2c2.1,2.1,3.2,4.8,3.2,8.1v4.5c0,3.3-1.1,6-3.2,8.1 c-2.1,2.1-4.9,3.1-8.2,3.1H130.2z M135.6,62.7v18.7h4c1.8,0,3.2-0.7,4.3-2c1.1-1.3,1.6-3,1.6-5.1v-4.5c0-2.1-0.5-3.8-1.6-5.1 c-1.1-1.3-2.5-2-4.3-2H135.6z"/><path class="st0" d="M179.2,58.5v17.7c0,3-1,5.4-3,7.1c-2,1.7-4.6,2.6-7.8,2.6c-3.2,0-5.8-0.9-7.8-2.6c-2-1.7-3-4.1-3-7.1V58.5 h5.4v17.7c0,1.8,0.5,3.2,1.4,4.1c1,1,2.3,1.4,3.9,1.4c1.7,0,3-0.5,4-1.4c1-1,1.5-2.3,1.5-4.1V58.5H179.2z"/><path class="st0" d="M206.6,76.6l0,0.1c0,2.9-0.8,5.1-2.6,6.8c-1.8,1.6-4.3,2.4-7.5,2.4c-3.2,0-5.9-1-7.8-3.1c-2-2.1-3-4.8-3-8.1 v-5.4c0-3.3,1-6,2.9-8.1c1.9-2.1,4.5-3.1,7.6-3.1c3.3,0,5.9,0.8,7.7,2.4c1.9,1.6,2.8,3.9,2.7,6.8l0,0.1h-5.3c0-1.7-0.4-3-1.3-3.9 c-0.8-0.8-2.1-1.3-3.9-1.3c-1.6,0-2.9,0.7-3.8,2c-0.9,1.3-1.4,3-1.4,5.1v5.4c0,2.1,0.5,3.8,1.4,5.1c1,1.3,2.3,2,4,2 c1.6,0,2.8-0.4,3.6-1.3c0.8-0.8,1.2-2.1,1.2-3.9H206.6z"/><path class="st0" d="M227.1,79.7h-8.8l-1.8,5.8h-5.7l9.1-27h5.5l9.1,27h-5.7L227.1,79.7z M219.7,75.4h6.1l-3-9.5h-0.1L219.7,75.4z "/><path class="st0" d="M256.9,62.7h-7.7v22.8h-5.4V62.7h-7.6v-4.2h20.7V62.7z"/><path class="st0" d="M268.1,85.5h-5.4v-27h5.4V85.5z"/><path class="st0" d="M297.8,74.4c0,3.3-1,6.1-3.1,8.2c-2.1,2.2-4.8,3.2-8.2,3.2c-3.3,0-6-1.1-8.1-3.2c-2.1-2.2-3.1-4.9-3.1-8.2 v-4.9c0-3.3,1-6,3.1-8.2c2.1-2.2,4.8-3.3,8.1-3.3c3.4,0,6.1,1.1,8.2,3.3c2.1,2.2,3.2,4.9,3.2,8.2V74.4z M292.4,69.5 c0-2.1-0.5-3.8-1.6-5.2c-1.1-1.3-2.5-2-4.4-2c-1.8,0-3.3,0.7-4.3,2c-1,1.3-1.5,3.1-1.5,5.2v4.9c0,2.1,0.5,3.9,1.5,5.2 c1,1.3,2.5,2,4.3,2c1.9,0,3.3-0.7,4.3-2c1-1.3,1.6-3.1,1.6-5.2V69.5z"/><path class="st0" d="M326.4,85.5H321l-10.9-18.2l-0.1,0v18.2h-5.4v-27h5.4l10.9,18.2l0.1,0V58.5h5.4V85.5z"/><path class="st0" d="M348.2,79.7h-8.8l-1.8,5.8H332l9.1-27h5.5l9.1,27h-5.7L348.2,79.7z M340.8,75.4h6.1l-3-9.5h-0.1L340.8,75.4z"/><path class="st0" d="M366.2,81.4h12.1v4.2h-17.5v-27h5.4V81.4z"/><path class="st0" d="M410.4,79.7h-8.8l-1.8,5.8h-5.7l9.1-27h5.5l9.1,27h-5.7L410.4,79.7z M403,75.4h6.1l-3-9.5H406L403,75.4z"/><path class="st0" d="M428.4,74.7v10.8H423v-27h9.4c3.1,0,5.5,0.7,7.2,2.1c1.7,1.4,2.6,3.4,2.6,5.9c0,1.4-0.4,2.6-1.1,3.6 c-0.7,1-1.8,1.8-3.2,2.4c1.6,0.5,2.7,1.3,3.4,2.4c0.7,1.1,1,2.5,1,4.1v2c0,0.8,0.1,1.5,0.3,2.4c0.2,0.8,0.6,1.4,1,1.8v0.4h-5.6 c-0.5-0.4-0.8-1.1-1-2c-0.1-0.9-0.2-1.8-0.2-2.7V79c0-1.3-0.4-2.4-1.1-3.1c-0.7-0.7-1.8-1.1-3.1-1.1H428.4z M428.4,70.5h3.8 c1.5,0,2.7-0.3,3.4-1c0.7-0.6,1.1-1.6,1.1-2.9c0-1.2-0.4-2.2-1.1-3c-0.7-0.7-1.8-1.1-3.3-1.1h-3.9V70.5z"/><path class="st0" d="M467.5,62.7h-7.7v22.8h-5.4V62.7h-7.6v-4.2h20.7V62.7z"/><path class="st0" d="M505.2,76.6l0,0.1c0,2.9-0.8,5.1-2.6,6.8c-1.8,1.6-4.3,2.4-7.5,2.4c-3.2,0-5.9-1-7.8-3.1c-2-2.1-3-4.8-3-8.1 v-5.4c0-3.3,1-6,2.9-8.1c1.9-2.1,4.5-3.1,7.6-3.1c3.3,0,5.9,0.8,7.7,2.4c1.9,1.6,2.8,3.9,2.7,6.8l0,0.1h-5.3c0-1.7-0.4-3-1.3-3.9 c-0.8-0.8-2.1-1.3-3.9-1.3c-1.6,0-2.9,0.7-3.8,2c-0.9,1.3-1.4,3-1.4,5.1v5.4c0,2.1,0.5,3.8,1.4,5.1c1,1.3,2.3,2,4,2 c1.6,0,2.8-0.4,3.6-1.3c0.8-0.8,1.2-2.1,1.2-3.9H505.2z"/><path class="st0" d="M527,73.6h-10v7.7h11.9v4.2h-17.3v-27h17.3v4.2H517v6.8h10V73.6z"/><path class="st0" d="M557,85.5h-5.4l-10.9-18.2l-0.1,0v18.2h-5.4v-27h5.4l10.9,18.2l0.1,0V58.5h5.4V85.5z"/><path class="st0" d="M582.7,62.7H575v22.8h-5.4V62.7H562v-4.2h20.7V62.7z"/><path class="st0" d="M593.6,74.7v10.8h-5.4v-27h9.4c3.1,0,5.5,0.7,7.2,2.1c1.7,1.4,2.6,3.4,2.6,5.9c0,1.4-0.4,2.6-1.1,3.6 c-0.7,1-1.8,1.8-3.2,2.4c1.6,0.5,2.7,1.3,3.4,2.4c0.7,1.1,1,2.5,1,4.1v2c0,0.8,0.1,1.5,0.3,2.4c0.2,0.8,0.6,1.4,1,1.8v0.4h-5.6 c-0.5-0.4-0.8-1.1-1-2c-0.1-0.9-0.2-1.8-0.2-2.7V79c0-1.3-0.4-2.4-1.1-3.1c-0.7-0.7-1.8-1.1-3.1-1.1H593.6z M593.6,70.5h3.8 c1.5,0,2.7-0.3,3.4-1c0.7-0.6,1.1-1.6,1.1-2.9c0-1.2-0.4-2.2-1.1-3c-0.7-0.7-1.8-1.1-3.3-1.1h-3.9V70.5z"/><path class="st0" d="M630.3,73.6h-10v7.7h11.9v4.2h-17.3v-27h17.3v4.2h-11.9v6.8h10V73.6z"/><path class="st0" d="M25.2,130.4h-8.8l-1.8,5.8H9l9.1-27h5.5l9.1,27H27L25.2,130.4z M17.8,126.1h6.1l-3-9.5h-0.1L17.8,126.1z"/><path class="st0" d="M55.1,126.4v9.8h-5.4v-27H60c3.1,0,5.5,0.8,7.3,2.4c1.8,1.6,2.7,3.7,2.7,6.3c0,2.6-0.9,4.7-2.7,6.2 c-1.8,1.6-4.2,2.4-7.3,2.4H55.1z M55.1,122.2H60c1.5,0,2.7-0.4,3.4-1.2c0.8-0.8,1.2-1.9,1.2-3.1c0-1.3-0.4-2.4-1.2-3.2 c-0.8-0.8-1.9-1.3-3.4-1.3h-4.9V122.2z"/><path class="st0" d="M91.8,124.3h-10v7.7h11.9v4.2H76.4v-27h17.3v4.2H81.8v6.8h10V124.3z"/><path class="st0" d="M105.4,125.4v10.8H100v-27h9.4c3.1,0,5.5,0.7,7.2,2.1c1.7,1.4,2.6,3.4,2.6,5.9c0,1.4-0.4,2.6-1.1,3.6 c-0.7,1-1.8,1.8-3.2,2.4c1.6,0.5,2.7,1.3,3.4,2.4c0.7,1.1,1,2.5,1,4.1v2c0,0.8,0.1,1.5,0.3,2.4c0.2,0.8,0.6,1.4,1,1.8v0.4h-5.6 c-0.5-0.4-0.8-1.1-1-2c-0.1-0.9-0.2-1.8-0.2-2.7v-1.9c0-1.3-0.4-2.4-1.1-3.1c-0.7-0.7-1.8-1.1-3.1-1.1H105.4z M105.4,121.2h3.8 c1.5,0,2.7-0.3,3.4-1c0.7-0.6,1.1-1.6,1.1-2.9c0-1.2-0.4-2.2-1.1-3c-0.7-0.7-1.8-1.1-3.3-1.1h-3.9V121.2z"/><path class="st0" d="M142.5,125h-10.4v11.2h-5.4v-27h17.7v4.2h-12.3v7.4h10.4V125z"/><path class="st0" d="M172.1,125.1c0,3.3-1,6.1-3.1,8.2c-2.1,2.2-4.8,3.2-8.2,3.2c-3.3,0-6-1.1-8.1-3.2c-2.1-2.2-3.1-4.9-3.1-8.2 v-4.9c0-3.3,1-6,3.1-8.2c2.1-2.2,4.8-3.3,8.1-3.3c3.4,0,6.1,1.1,8.2,3.3c2.1,2.2,3.2,4.9,3.2,8.2V125.1z M166.7,120.2 c0-2.1-0.5-3.8-1.6-5.2c-1.1-1.3-2.5-2-4.4-2c-1.8,0-3.3,0.7-4.3,2c-1,1.3-1.5,3.1-1.5,5.2v4.9c0,2.1,0.5,3.9,1.5,5.2 c1,1.3,2.5,2,4.3,2c1.9,0,3.3-0.7,4.3-2c1-1.3,1.6-3.1,1.6-5.2V120.2z"/><path class="st0" d="M184.3,125.4v10.8h-5.4v-27h9.4c3.1,0,5.5,0.7,7.2,2.1c1.7,1.4,2.6,3.4,2.6,5.9c0,1.4-0.4,2.6-1.1,3.6 c-0.7,1-1.8,1.8-3.2,2.4c1.6,0.5,2.7,1.3,3.4,2.4c0.7,1.1,1,2.5,1,4.1v2c0,0.8,0.1,1.5,0.3,2.4c0.2,0.8,0.6,1.4,1,1.8v0.4H194 c-0.5-0.4-0.8-1.1-1-2c-0.1-0.9-0.2-1.8-0.2-2.7v-1.9c0-1.3-0.4-2.4-1.1-3.1c-0.7-0.7-1.8-1.1-3.1-1.1H184.3z M184.3,121.2h3.8 c1.5,0,2.7-0.3,3.4-1c0.7-0.6,1.1-1.6,1.1-2.9c0-1.2-0.4-2.2-1.1-3c-0.7-0.7-1.8-1.1-3.3-1.1h-3.9V121.2z"/><path class="st0" d="M219.5,129.1h0.1l6.9-19.9h7.1v27h-5.4v-18.4l-0.1,0l-6.7,18.5h-3.7l-6.7-18.5l-0.1,0v18.5h-5.4v-27h7.1 L219.5,129.1z"/><path class="st0" d="M255.5,130.4h-8.8l-1.8,5.8h-5.7l9.1-27h5.5l9.1,27h-5.7L255.5,130.4z M248.1,126.1h6.1l-3-9.5h-0.1 L248.1,126.1z"/><path class="st0" d="M289.9,136.2h-5.4L273.6,118l-0.1,0v18.2h-5.4v-27h5.4l10.9,18.2l0.1,0v-18.2h5.4V136.2z"/><path class="st0" d="M317.6,127.3l0,0.1c0,2.9-0.8,5.1-2.6,6.8c-1.8,1.6-4.3,2.4-7.5,2.4c-3.2,0-5.9-1-7.8-3.1c-2-2.1-3-4.8-3-8.1 V120c0-3.3,1-6,2.9-8.1c1.9-2.1,4.5-3.1,7.6-3.1c3.3,0,5.9,0.8,7.7,2.4c1.9,1.6,2.8,3.9,2.7,6.8l0,0.1h-5.3c0-1.7-0.4-3-1.3-3.9 c-0.8-0.8-2.1-1.3-3.9-1.3c-1.6,0-2.9,0.7-3.8,2c-0.9,1.3-1.4,3-1.4,5.1v5.4c0,2.1,0.5,3.8,1.4,5.1c1,1.3,2.3,2,4,2 c1.6,0,2.8-0.4,3.6-1.3c0.8-0.8,1.2-2.1,1.2-3.9H317.6z"/><path class="st0" d="M339.5,124.3h-10v7.7h11.9v4.2H324v-27h17.3v4.2h-11.9v6.8h10V124.3z"/><path class="st0" d="M368.8,128.9l0.3,1.5h0.1l0.3-1.4l5.9-19.7h5.7l-9.2,27h-5.6l-9.2-27h5.7L368.8,128.9z"/><path class="st0" d="M401.6,124.3h-10v7.7h11.9v4.2h-17.3v-27h17.3v4.2h-11.9v6.8h10V124.3z"/><path class="st0" d="M431.6,136.2h-5.4L415.3,118l-0.1,0v18.2h-5.4v-27h5.4l10.9,18.2l0.1,0v-18.2h5.4V136.2z"/><path class="st0" d="M460.5,109.2v17.7c0,3-1,5.4-3,7.1c-2,1.7-4.6,2.6-7.8,2.6c-3.2,0-5.8-0.9-7.8-2.6c-2-1.7-3-4.1-3-7.1v-17.7 h5.4v17.7c0,1.8,0.5,3.2,1.4,4.1c1,1,2.3,1.4,3.9,1.4c1.7,0,3-0.5,4-1.4c1-1,1.5-2.3,1.5-4.1v-17.7H460.5z"/><path class="st0" d="M483.1,124.3h-10v7.7H485v4.2h-17.3v-27H485v4.2h-11.9v6.8h10V124.3z"/><path class="st0" d="M497.5,136l-3,5.8h-3.6l1.3-6v-4.2h5.3V136z M496.9,120h-5.4v-4.8h5.4V120z"/><path class="st0" d="M25.2,181.1h-8.8l-1.8,5.8H9l9.1-27h5.5l9.1,27H27L25.2,181.1z M17.8,176.8h6.1l-3-9.5h-0.1L17.8,176.8z"/><path class="st0" d="M70,178l0,0.1c0,2.9-0.8,5.1-2.6,6.8c-1.8,1.6-4.3,2.4-7.5,2.4c-3.2,0-5.9-1-7.8-3.1c-2-2.1-3-4.8-3-8.1v-5.4 c0-3.3,1-6,2.9-8.1c1.9-2.1,4.5-3.1,7.6-3.1c3.3,0,5.9,0.8,7.7,2.4c1.9,1.6,2.8,3.9,2.7,6.8l0,0.1h-5.3c0-1.7-0.4-3-1.3-3.9 c-0.8-0.8-2.1-1.3-3.9-1.3c-1.6,0-2.9,0.7-3.8,2c-0.9,1.3-1.4,3-1.4,5.1v5.4c0,2.1,0.5,3.8,1.4,5.1c1,1.3,2.3,2,4,2 c1.6,0,2.8-0.4,3.6-1.3c0.8-0.8,1.2-2.1,1.2-3.9H70z"/><path class="st0" d="M98.2,175.8c0,3.3-1,6.1-3.1,8.2c-2.1,2.2-4.8,3.2-8.2,3.2c-3.3,0-6-1.1-8.1-3.2c-2.1-2.2-3.1-4.9-3.1-8.2 V171c0-3.3,1-6,3.1-8.2c2.1-2.2,4.8-3.3,8.1-3.3c3.4,0,6.1,1.1,8.2,3.3c2.1,2.2,3.2,4.9,3.2,8.2V175.8z M92.8,170.9 c0-2.1-0.5-3.8-1.6-5.2c-1.1-1.3-2.5-2-4.4-2c-1.8,0-3.3,0.7-4.3,2c-1,1.3-1.5,3.1-1.5,5.2v4.9c0,2.1,0.5,3.9,1.5,5.2 c1,1.3,2.5,2,4.3,2c1.9,0,3.3-0.7,4.3-2c1-1.3,1.6-3.1,1.6-5.2V170.9z"/><path class="st0" d="M118.9,179.8h0.1l6.9-19.9h7.1v27h-5.4v-18.4l-0.1,0l-6.7,18.5h-3.7l-6.7-18.5l-0.1,0v18.5H105v-27h7.1 L118.9,179.8z"/><path class="st0" d="M154.5,179.8h0.1l6.9-19.9h7.1v27h-5.4v-18.4l-0.1,0l-6.7,18.5h-3.7l-6.7-18.5l-0.1,0v18.5h-5.4v-27h7.1 L154.5,179.8z"/><path class="st0" d="M197.4,159.9v17.7c0,3-1,5.4-3,7.1c-2,1.7-4.6,2.6-7.8,2.6c-3.2,0-5.8-0.9-7.8-2.6c-2-1.7-3-4.1-3-7.1v-17.7 h5.4v17.7c0,1.8,0.5,3.2,1.4,4.1c1,1,2.3,1.4,3.9,1.4c1.7,0,3-0.5,4-1.4c1-1,1.5-2.3,1.5-4.1v-17.7H197.4z"/><path class="st0" d="M226.4,186.9H221l-10.9-18.2l-0.1,0v18.2h-5.4v-27h5.4l10.9,18.2l0.1,0v-18.2h5.4V186.9z"/><path class="st0" d="M239.7,186.9h-5.4v-27h5.4V186.9z"/><path class="st0" d="M265.8,164.1h-7.7v22.8h-5.4v-22.8h-7.6v-4.2h20.7V164.1z"/><path class="st0" d="M281.1,172.3h0.1l5.9-12.5h5.9l-9.3,17.5v9.5h-5.4v-9.8l-9.1-17.2h5.9L281.1,172.3z"/><path class="st0" d="M332,175.8c0,3.3-1,6.1-3.1,8.2c-2.1,2.2-4.8,3.2-8.2,3.2c-3.3,0-6-1.1-8.1-3.2c-2.1-2.2-3.1-4.9-3.1-8.2V171 c0-3.3,1-6,3.1-8.2c2.1-2.2,4.8-3.3,8.1-3.3c3.4,0,6.1,1.1,8.2,3.3c2.1,2.2,3.2,4.9,3.2,8.2V175.8z M326.6,170.9 c0-2.1-0.5-3.8-1.6-5.2c-1.1-1.3-2.5-2-4.4-2c-1.8,0-3.3,0.7-4.3,2c-1,1.3-1.5,3.1-1.5,5.2v4.9c0,2.1,0.5,3.9,1.5,5.2 c1,1.3,2.5,2,4.3,2c1.9,0,3.3-0.7,4.3-2c1-1.3,1.6-3.1,1.6-5.2V170.9z"/><path class="st0" d="M354.5,175.7h-10.4v11.2h-5.4v-27h17.7v4.2h-12.3v7.4h10.4V175.7z"/><path class="st0" d="M388.3,181.1h-8.8l-1.8,5.8h-5.7l9.1-27h5.5l9.1,27h-5.7L388.3,181.1z M380.9,176.8h6.1l-3-9.5h-0.1 L380.9,176.8z"/><path class="st0" d="M406.3,176.1v10.8h-5.4v-27h9.4c3.1,0,5.5,0.7,7.2,2.1c1.7,1.4,2.6,3.4,2.6,5.9c0,1.4-0.4,2.6-1.1,3.6 c-0.7,1-1.8,1.8-3.2,2.4c1.6,0.5,2.7,1.3,3.4,2.4c0.7,1.1,1,2.5,1,4.1v2c0,0.8,0.1,1.5,0.3,2.4c0.2,0.8,0.6,1.4,1,1.8v0.4H416 c-0.5-0.4-0.8-1.1-1-2c-0.1-0.9-0.2-1.8-0.2-2.7v-1.9c0-1.3-0.4-2.4-1.1-3.1c-0.7-0.7-1.8-1.1-3.1-1.1H406.3z M406.3,171.9h3.8 c1.5,0,2.7-0.3,3.4-1c0.7-0.6,1.1-1.6,1.1-2.9c0-1.2-0.4-2.2-1.1-3c-0.7-0.7-1.8-1.1-3.3-1.1h-3.9V171.9z"/><path class="st0" d="M445.5,164.1h-7.7v22.8h-5.4v-22.8h-7.6v-4.2h20.7V164.1z"/><path class="st0" d="M456.7,186.9h-5.4v-27h5.4V186.9z"/><path class="st0" d="M478.6,179.9c0-1-0.4-1.9-1.1-2.5s-2-1.2-3.8-1.8c-3.1-0.9-5.5-2-7.1-3.3c-1.6-1.3-2.4-3-2.4-5.2 c0-2.2,0.9-4,2.7-5.4c1.8-1.4,4.1-2.1,7-2.1c3,0,5.4,0.8,7.2,2.3c1.8,1.5,2.7,3.5,2.6,5.9l0,0.1h-5.3c0-1.3-0.4-2.4-1.2-3.1 s-2-1.1-3.4-1.1c-1.3,0-2.4,0.3-3.1,1c-0.7,0.6-1.1,1.5-1.1,2.5c0,0.9,0.4,1.7,1.2,2.3c0.8,0.6,2.2,1.2,4.1,1.9 c3,0.8,5.2,1.9,6.8,3.3s2.3,3.1,2.3,5.4c0,2.3-0.9,4.1-2.7,5.5c-1.8,1.3-4.2,2-7.2,2c-2.9,0-5.4-0.7-7.5-2.2 c-2.1-1.4-3.1-3.6-3-6.5l0-0.1h5.3c0,1.6,0.5,2.8,1.4,3.5c0.9,0.8,2.2,1.1,3.8,1.1c1.4,0,2.6-0.3,3.3-0.9 C478.3,181.7,478.6,180.9,478.6,179.9z"/><path class="st0" d="M509.4,164.1h-7.7v22.8h-5.4v-22.8h-7.6v-4.2h20.7V164.1z"/><path class="st0" d="M528.6,179.9c0-1-0.4-1.9-1.1-2.5s-2-1.2-3.8-1.8c-3.1-0.9-5.5-2-7.1-3.3c-1.6-1.3-2.4-3-2.4-5.2 c0-2.2,0.9-4,2.7-5.4c1.8-1.4,4.1-2.1,7-2.1c3,0,5.4,0.8,7.2,2.3c1.8,1.5,2.7,3.5,2.6,5.9l0,0.1h-5.2c0-1.3-0.4-2.4-1.2-3.1 s-2-1.1-3.4-1.1c-1.3,0-2.4,0.3-3.1,1c-0.7,0.6-1.1,1.5-1.1,2.5c0,0.9,0.4,1.7,1.2,2.3c0.8,0.6,2.2,1.2,4.1,1.9 c3,0.8,5.2,1.9,6.8,3.3s2.3,3.1,2.3,5.4c0,2.3-0.9,4.1-2.7,5.5c-1.8,1.3-4.2,2-7.2,2c-2.9,0-5.4-0.7-7.5-2.2 c-2.1-1.4-3.1-3.6-3-6.5l0-0.1h5.3c0,1.6,0.5,2.8,1.4,3.5c0.9,0.8,2.2,1.1,3.8,1.1c1.4,0,2.6-0.3,3.3-0.9 C528.2,181.7,528.6,180.9,528.6,179.9z"/><path class="st0" d="M566.5,181.1h-8.8l-1.8,5.8h-5.7l9.1-27h5.5l9.1,27h-5.7L566.5,181.1z M559.1,176.8h6.1l-3-9.5h-0.1 L559.1,176.8z"/><path class="st0" d="M600.9,186.9h-5.4l-10.9-18.2l-0.1,0v18.2H579v-27h5.4l10.9,18.2l0.1,0v-18.2h5.4V186.9z"/><path class="st0" d="M608.3,186.9v-27h9.4c3.3,0,6,1.1,8.2,3.2c2.1,2.1,3.2,4.8,3.2,8.1v4.5c0,3.3-1.1,6-3.2,8.1 c-2.1,2.1-4.9,3.1-8.2,3.1H608.3z M613.7,164.1v18.7h4c1.8,0,3.2-0.7,4.3-2c1.1-1.3,1.6-3,1.6-5.1v-4.5c0-2.1-0.5-3.8-1.6-5.1 c-1.1-1.3-2.5-2-4.3-2H613.7z"/><path class="st0" d="M663.3,175h-10v7.7h11.9v4.2h-17.3v-27h17.3v4.2h-11.9v6.8h10V175z"/><path class="st0" d="M693.3,186.9h-5.4L677,168.7l-0.1,0v18.2h-5.4v-27h5.4l10.9,18.2l0.1,0v-18.2h5.4V186.9z"/><path class="st0" d="M719,164.1h-7.7v22.8h-5.4v-22.8h-7.6v-4.2H719V164.1z"/><path class="st0" d="M746.3,186.9h-5.4v-11.2h-11v11.2h-5.4v-27h5.4v11.6h11v-11.6h5.4V186.9z"/><path class="st0" d="M775.2,159.9v17.7c0,3-1,5.4-3,7.1c-2,1.7-4.6,2.6-7.8,2.6c-3.2,0-5.8-0.9-7.8-2.6c-2-1.7-3-4.1-3-7.1v-17.7 h5.4v17.7c0,1.8,0.5,3.2,1.4,4.1c1,1,2.3,1.4,3.9,1.4c1.7,0,3-0.5,4-1.4c1-1,1.5-2.3,1.5-4.1v-17.7H775.2z"/><path class="st0" d="M796.4,179.9c0-1-0.4-1.9-1.1-2.5s-2-1.2-3.8-1.8c-3.1-0.9-5.5-2-7.1-3.3c-1.6-1.3-2.4-3-2.4-5.2 c0-2.2,0.9-4,2.7-5.4c1.8-1.4,4.1-2.1,7-2.1c3,0,5.4,0.8,7.2,2.3c1.8,1.5,2.7,3.5,2.6,5.9l0,0.1h-5.3c0-1.3-0.4-2.4-1.2-3.1 s-2-1.1-3.4-1.1c-1.3,0-2.4,0.3-3.1,1c-0.7,0.6-1.1,1.5-1.1,2.5c0,0.9,0.4,1.7,1.2,2.3c0.8,0.6,2.2,1.2,4.1,1.9 c3,0.8,5.2,1.9,6.8,3.3s2.3,3.1,2.3,5.4c0,2.3-0.9,4.1-2.7,5.5c-1.8,1.3-4.2,2-7.2,2c-2.9,0-5.4-0.7-7.5-2.2s-3.1-3.6-3-6.5l0-0.1 h5.2c0,1.6,0.5,2.8,1.4,3.5c0.9,0.8,2.2,1.1,3.8,1.1c1.4,0,2.6-0.3,3.3-0.9C796,181.7,796.4,180.9,796.4,179.9z"/><path class="st0" d="M814.1,186.9h-5.4v-27h5.4V186.9z"/><path class="st0" d="M836.3,181.1h-8.8l-1.8,5.8h-5.7l9.1-27h5.5l9.1,27h-5.7L836.3,181.1z M828.9,176.8h6.1l-3-9.5h-0.1 L828.9,176.8z"/><path class="st0" d="M863,179.9c0-1-0.4-1.9-1.1-2.5s-2-1.2-3.8-1.8c-3.1-0.9-5.5-2-7.1-3.3c-1.6-1.3-2.4-3-2.4-5.2 c0-2.2,0.9-4,2.7-5.4c1.8-1.4,4.1-2.1,7-2.1c3,0,5.4,0.8,7.2,2.3c1.8,1.5,2.7,3.5,2.6,5.9l0,0.1h-5.3c0-1.3-0.4-2.4-1.2-3.1 s-2-1.1-3.4-1.1c-1.3,0-2.4,0.3-3.1,1c-0.7,0.6-1.1,1.5-1.1,2.5c0,0.9,0.4,1.7,1.2,2.3c0.8,0.6,2.2,1.2,4.1,1.9 c3,0.8,5.2,1.9,6.8,3.3s2.3,3.1,2.3,5.4c0,2.3-0.9,4.1-2.7,5.5c-1.8,1.3-4.2,2-7.2,2c-2.9,0-5.4-0.7-7.5-2.2s-3.1-3.6-3-6.5l0-0.1 h5.2c0,1.6,0.5,2.8,1.4,3.5c0.9,0.8,2.2,1.1,3.8,1.1c1.4,0,2.6-0.3,3.3-0.9C862.6,181.7,863,180.9,863,179.9z"/><path class="st0" d="M893.7,164.1H886v22.8h-5.4v-22.8H873v-4.2h20.7V164.1z"/><path class="st0" d="M912.9,179.9c0-1-0.4-1.9-1.1-2.5c-0.7-0.6-2-1.2-3.8-1.8c-3.1-0.9-5.5-2-7.1-3.3c-1.6-1.3-2.4-3-2.4-5.2 c0-2.2,0.9-4,2.7-5.4c1.8-1.4,4.1-2.1,7-2.1c3,0,5.4,0.8,7.2,2.3c1.8,1.5,2.7,3.5,2.6,5.9l0,0.1h-5.3c0-1.3-0.4-2.4-1.2-3.1 s-2-1.1-3.4-1.1c-1.3,0-2.4,0.3-3.1,1c-0.7,0.6-1.1,1.5-1.1,2.5c0,0.9,0.4,1.7,1.2,2.3c0.8,0.6,2.2,1.2,4.1,1.9 c3,0.8,5.2,1.9,6.8,3.3s2.3,3.1,2.3,5.4c0,2.3-0.9,4.1-2.7,5.5c-1.8,1.3-4.2,2-7.2,2c-2.9,0-5.4-0.7-7.5-2.2 c-2.1-1.4-3.1-3.6-3-6.5l0-0.1h5.3c0,1.6,0.5,2.8,1.4,3.5c0.9,0.8,2.2,1.1,3.8,1.1c1.4,0,2.6-0.3,3.3-0.9 C912.5,181.7,912.9,180.9,912.9,179.9z"/><path class="st0" d="M931,186.7l-3,5.8h-3.6l1.3-6v-4.2h5.3V186.7z M930.4,170.7H925v-4.8h5.4V170.7z"/><path class="st0" d="M11.1,237.6v-27H20c3.2,0,5.7,0.6,7.4,1.9s2.7,3.1,2.7,5.5c0,1.2-0.3,2.3-1,3.3c-0.6,1-1.6,1.7-2.8,2.2 c1.7,0.3,3,1,3.8,2.2s1.3,2.5,1.3,4c0,2.6-0.9,4.5-2.6,5.9c-1.7,1.3-4.1,2-7.3,2H11.1z M16.5,221.9h3.6c1.4,0,2.6-0.3,3.3-0.9 s1.2-1.5,1.2-2.6c0-1.2-0.4-2.2-1.2-2.8c-0.8-0.6-2-0.9-3.5-0.9h-3.4V221.9z M16.5,225.6v7.8h5c1.4,0,2.5-0.3,3.3-0.9 c0.8-0.6,1.1-1.5,1.1-2.8c0-1.3-0.4-2.3-1.1-3s-1.9-1.1-3.4-1.1H16.5z"/><path class="st0" d="M51.9,231.8h-8.8l-1.8,5.8h-5.7l9.1-27h5.5l9.1,27h-5.7L51.9,231.8z M44.5,227.5h6.1l-3-9.5h-0.1L44.5,227.5z "/><path class="st0" d="M78.5,230.5c0-1-0.4-1.9-1.1-2.5s-2-1.2-3.8-1.8c-3.1-0.9-5.5-2-7.1-3.3c-1.6-1.3-2.4-3-2.4-5.2 c0-2.2,0.9-4,2.7-5.4c1.8-1.4,4.1-2.1,7-2.1c3,0,5.4,0.8,7.2,2.3c1.8,1.5,2.7,3.5,2.6,5.9l0,0.1h-5.3c0-1.3-0.4-2.4-1.2-3.1 s-2-1.1-3.4-1.1c-1.3,0-2.4,0.3-3.1,1c-0.7,0.6-1.1,1.5-1.1,2.5c0,0.9,0.4,1.7,1.2,2.3c0.8,0.6,2.2,1.2,4.1,1.9 c3,0.8,5.2,1.9,6.8,3.3s2.3,3.1,2.3,5.4c0,2.3-0.9,4.1-2.7,5.5c-1.8,1.3-4.2,2-7.2,2c-2.9,0-5.4-0.7-7.5-2.2 c-2.1-1.4-3.1-3.6-3-6.5l0-0.1h5.3c0,1.6,0.5,2.8,1.4,3.5c0.9,0.8,2.2,1.1,3.8,1.1c1.4,0,2.6-0.3,3.3-0.9 C78.1,232.4,78.5,231.6,78.5,230.5z"/><path class="st0" d="M105.8,225.7h-10v7.7h11.9v4.2H90.4v-27h17.3v4.2H95.8v6.8h10V225.7z"/><path class="st0" d="M114,237.6v-27h9.4c3.3,0,6,1.1,8.2,3.2c2.1,2.1,3.2,4.8,3.2,8.1v4.5c0,3.3-1.1,6-3.2,8.1 c-2.1,2.1-4.9,3.1-8.2,3.1H114z M119.4,214.8v18.7h4c1.8,0,3.2-0.7,4.3-2c1.1-1.3,1.6-3,1.6-5.1v-4.5c0-2.1-0.5-3.8-1.6-5.1 c-1.1-1.3-2.5-2-4.3-2H119.4z"/><path class="st0" d="M159.3,237.6h-5.4v-27h5.4V237.6z"/><path class="st0" d="M189,237.6h-5.4l-10.9-18.2l-0.1,0v18.2h-5.4v-27h5.4l10.9,18.2l0.1,0v-18.2h5.4V237.6z"/><path class="st0" d="M215.8,226.3h-2v11.3h-5.4v-27h5.4v11h1.5l7.4-11h6.7l-9.4,12.6l10.1,14.5h-6.9L215.8,226.3z"/><path class="st0" d="M240.9,237.6h-5.4v-27h5.4V237.6z"/><path class="st0" d="M264.1,225.7h-10v7.7H266v4.2h-17.3v-27H266v4.2h-11.9v6.8h10V225.7z"/><path class="st0" d="M281.5,230.3l0.3,1.5h0.1l0.3-1.4l5.9-19.7h5.7l-9.2,27h-5.6l-9.2-27h5.7L281.5,230.3z"/><path class="st0" d="M300.6,237.6h-5.4v-4.8h5.4V237.6z"/><path class="st0" d="M16.5,329.2v9.8h-5.4v-27h10.3c3.1,0,5.5,0.8,7.3,2.4s2.7,3.7,2.7,6.3c0,2.6-0.9,4.7-2.7,6.2 c-1.8,1.6-4.2,2.4-7.3,2.4H16.5z M16.5,325h4.9c1.5,0,2.7-0.4,3.4-1.2c0.8-0.8,1.2-1.9,1.2-3.1c0-1.3-0.4-2.4-1.2-3.2 c-0.8-0.8-1.9-1.3-3.4-1.3h-4.9V325z"/><path class="st0" d="M43.2,334.8h12.1v4.2H37.8v-27h5.4V334.8z"/><path class="st0" d="M67.2,339h-5.4v-27h5.4V339z"/><path class="st0" d="M84.2,331.7l0.3,1.5h0.1l0.3-1.4l5.9-19.7h5.7l-9.2,27h-5.6l-9.2-27h5.7L84.2,331.7z"/><path class="st0" d="M109.1,327.7h-2V339h-5.4v-27h5.4v11h1.5l7.4-11h6.7l-9.4,12.6l10.1,14.5h-6.9L109.1,327.7z"/><path class="st0" d="M142.4,333.2h-8.8l-1.8,5.8h-5.7l9.1-27h5.5l9.1,27h-5.7L142.4,333.2z M135,328.9h6.1l-3-9.5H138L135,328.9z"/><path class="st0" d="M160.6,339h-5.4v-4.8h5.4V339z"/><path class="st0" d="M187.3,316.1h-7.7V339h-5.4v-22.8h-7.6V312h20.7V316.1z"/><path class="st0" d="M202.3,331.7l0.3,1.5h0.1l0.3-1.4l5.9-19.7h5.7l-9.2,27h-5.6l-9.2-27h5.7L202.3,331.7z"/><path class="st0" d="M237.5,339H232v-27h5.4V339z"/><path class="st0" d="M259.4,331.9c0-1-0.4-1.9-1.1-2.5s-2-1.2-3.8-1.8c-3.1-0.9-5.5-2-7.1-3.3s-2.4-3-2.4-5.2c0-2.2,0.9-4,2.7-5.4 c1.8-1.4,4.1-2.1,7-2.1c3,0,5.4,0.8,7.2,2.3c1.8,1.5,2.7,3.5,2.6,5.9l0,0.1h-5.3c0-1.3-0.4-2.4-1.2-3.1c-0.8-0.7-2-1.1-3.4-1.1 c-1.3,0-2.4,0.3-3.1,1c-0.7,0.6-1.1,1.5-1.1,2.5c0,0.9,0.4,1.7,1.2,2.3c0.8,0.6,2.2,1.2,4.1,1.9c3,0.8,5.2,1.9,6.8,3.3 c1.6,1.4,2.3,3.1,2.3,5.4c0,2.3-0.9,4.1-2.7,5.5c-1.8,1.3-4.2,2-7.2,2c-2.9,0-5.4-0.7-7.5-2.2c-2.1-1.4-3.1-3.6-3-6.5l0-0.1h5.3 c0,1.6,0.5,2.8,1.4,3.5c0.9,0.8,2.2,1.1,3.8,1.1c1.4,0,2.6-0.3,3.3-0.9C259,333.8,259.4,332.9,259.4,331.9z"/><path class="st0" d="M297.3,333.2h-8.8l-1.8,5.8H281l9.1-27h5.5l9.1,27h-5.7L297.3,333.2z M289.8,328.9h6.1l-3-9.5h-0.1 L289.8,328.9z"/><path class="st0" d="M331.7,339h-5.4l-10.9-18.2l-0.1,0V339h-5.4v-27h5.4l10.9,18.2l0.1,0V312h5.4V339z"/><path class="st0" d="M372.9,327.9c0,3.3-1,6.1-3.1,8.2c-2.1,2.2-4.8,3.2-8.2,3.2c-3.3,0-6-1.1-8.1-3.2c-2.1-2.2-3.1-4.9-3.1-8.2 V323c0-3.3,1-6,3.1-8.2c2.1-2.2,4.8-3.3,8.1-3.3c3.4,0,6.1,1.1,8.2,3.3c2.1,2.2,3.2,4.9,3.2,8.2V327.9z M367.5,323 c0-2.1-0.5-3.8-1.6-5.2c-1.1-1.3-2.5-2-4.4-2c-1.8,0-3.3,0.7-4.3,2s-1.5,3.1-1.5,5.2v4.9c0,2.1,0.5,3.9,1.5,5.2c1,1.3,2.5,2,4.3,2 c1.9,0,3.3-0.7,4.3-2c1-1.3,1.6-3.1,1.6-5.2V323z"/><path class="st0" d="M385.1,329.2v9.8h-5.4v-27H390c3.1,0,5.5,0.8,7.3,2.4s2.7,3.7,2.7,6.3c0,2.6-0.9,4.7-2.7,6.2 c-1.8,1.6-4.2,2.4-7.3,2.4H385.1z M385.1,325h4.9c1.5,0,2.7-0.4,3.4-1.2c0.8-0.8,1.2-1.9,1.2-3.1c0-1.3-0.4-2.4-1.2-3.2 c-0.8-0.8-1.9-1.3-3.4-1.3h-4.9V325z"/><path class="st0" d="M421.8,327.1h-10v7.7h11.9v4.2h-17.3v-27h17.3v4.2h-11.9v6.8h10V327.1z"/><path class="st0" d="M451.8,339h-5.4l-10.9-18.2l-0.1,0V339h-5.4v-27h5.4l10.9,18.2l0.1,0V312h5.4V339z"/><path class="st0" d="M485.2,333.2h-8.8l-1.8,5.8H469l9.1-27h5.5l9.1,27h-5.7L485.2,333.2z M477.8,328.9h6.1l-3-9.5h-0.1 L477.8,328.9z"/><path class="st0" d="M503.2,328.2V339h-5.4v-27h9.4c3.1,0,5.5,0.7,7.2,2.1c1.7,1.4,2.6,3.4,2.6,5.9c0,1.4-0.4,2.6-1.1,3.6 s-1.8,1.8-3.2,2.4c1.6,0.5,2.7,1.3,3.4,2.4s1,2.5,1,4.1v2c0,0.8,0.1,1.5,0.3,2.4c0.2,0.8,0.6,1.4,1,1.8v0.4h-5.6 c-0.5-0.4-0.8-1.1-1-2c-0.1-0.9-0.2-1.8-0.2-2.7v-1.9c0-1.3-0.4-2.4-1.1-3.1c-0.7-0.7-1.8-1.1-3.1-1.1H503.2z M503.2,324h3.8 c1.5,0,2.7-0.3,3.4-1c0.7-0.6,1.1-1.6,1.1-2.9c0-1.2-0.4-2.2-1.1-3c-0.7-0.7-1.8-1.1-3.3-1.1h-3.9V324z"/><path class="st0" d="M544.7,330l0,0.1c0,2.9-0.8,5.1-2.6,6.8s-4.3,2.4-7.5,2.4c-3.2,0-5.9-1-7.8-3.1c-2-2.1-3-4.8-3-8.1v-5.4 c0-3.3,1-6,2.9-8.1c1.9-2.1,4.5-3.1,7.6-3.1c3.3,0,5.9,0.8,7.7,2.4c1.9,1.6,2.8,3.9,2.7,6.8l0,0.1h-5.3c0-1.7-0.4-3-1.3-3.9 c-0.8-0.8-2.1-1.3-3.9-1.3c-1.6,0-2.9,0.7-3.8,2c-0.9,1.3-1.4,3-1.4,5.1v5.4c0,2.1,0.5,3.8,1.4,5.1c1,1.3,2.3,2,4,2 c1.6,0,2.8-0.4,3.6-1.3c0.8-0.8,1.2-2.1,1.2-3.9H544.7z"/><path class="st0" d="M573,339h-5.4v-11.2h-11V339h-5.4v-27h5.4v11.6h11V312h5.4V339z"/><path class="st0" d="M586.2,339h-5.4v-27h5.4V339z"/><path class="st0" d="M603.2,331.7l0.3,1.5h0.1l0.3-1.4l5.9-19.7h5.7l-9.2,27h-5.6l-9.2-27h5.7L603.2,331.7z"/><path class="st0" d="M636.1,327.1h-10v7.7H638v4.2h-17.3v-27H638v4.2h-11.9v6.8h10V327.1z"/><path class="st0" d="M11.1,389.7v-27H20c3.2,0,5.7,0.6,7.4,1.9c1.8,1.2,2.7,3.1,2.7,5.5c0,1.2-0.3,2.3-1,3.3 c-0.6,1-1.6,1.7-2.8,2.2c1.7,0.3,3,1,3.8,2.2s1.3,2.5,1.3,4c0,2.6-0.9,4.5-2.6,5.9c-1.7,1.3-4.1,2-7.3,2H11.1z M16.5,374h3.6 c1.4,0,2.6-0.3,3.3-0.9s1.2-1.5,1.2-2.6c0-1.2-0.4-2.2-1.2-2.8c-0.8-0.6-2-0.9-3.5-0.9h-3.4V374z M16.5,377.7v7.8h5 c1.4,0,2.5-0.3,3.3-0.9c0.8-0.6,1.1-1.5,1.1-2.8c0-1.3-0.4-2.3-1.1-3s-1.9-1.1-3.4-1.1H16.5z"/><path class="st0" d="M43.2,378.9v10.8h-5.4v-27h9.4c3.1,0,5.5,0.7,7.2,2.1c1.7,1.4,2.6,3.4,2.6,5.9c0,1.4-0.4,2.6-1.1,3.6 c-0.7,1-1.8,1.8-3.2,2.4c1.6,0.5,2.7,1.3,3.4,2.4c0.7,1.1,1,2.5,1,4.1v2c0,0.8,0.1,1.5,0.3,2.4c0.2,0.8,0.6,1.4,1,1.8v0.4h-5.6 c-0.5-0.4-0.8-1.1-1-2c-0.1-0.9-0.2-1.8-0.2-2.7v-1.9c0-1.3-0.4-2.4-1.1-3.1c-0.7-0.7-1.8-1.1-3.1-1.1H43.2z M43.2,374.7h3.8 c1.5,0,2.7-0.3,3.4-1c0.7-0.6,1.1-1.6,1.1-2.9c0-1.2-0.4-2.2-1.1-3c-0.7-0.7-1.8-1.1-3.3-1.1h-3.9V374.7z"/><path class="st0" d="M86.3,378.6c0,3.3-1,6.1-3.1,8.2c-2.1,2.2-4.8,3.2-8.2,3.2c-3.3,0-6-1.1-8.1-3.2c-2.1-2.2-3.1-4.9-3.1-8.2 v-4.9c0-3.3,1-6,3.1-8.2c2.1-2.2,4.8-3.3,8.1-3.3c3.4,0,6.1,1.1,8.2,3.3c2.1,2.2,3.2,4.9,3.2,8.2V378.6z M80.9,373.7 c0-2.1-0.5-3.8-1.6-5.2c-1.1-1.3-2.5-2-4.4-2c-1.8,0-3.3,0.7-4.3,2c-1,1.3-1.5,3.1-1.5,5.2v4.9c0,2.1,0.5,3.9,1.5,5.2 c1,1.3,2.5,2,4.3,2c1.9,0,3.3-0.7,4.3-2c1-1.3,1.6-3.1,1.6-5.2V373.7z"/><path class="st0" d="M106.8,383.8H98l-1.8,5.8h-5.7l9.1-27h5.5l9.1,27h-5.7L106.8,383.8z M99.4,379.6h6.1l-3-9.5h-0.1L99.4,379.6z "/><path class="st0" d="M119.4,389.7v-27h9.4c3.3,0,6,1.1,8.2,3.2c2.1,2.1,3.2,4.8,3.2,8.1v4.5c0,3.3-1.1,6-3.2,8.1 c-2.1,2.1-4.9,3.1-8.2,3.1H119.4z M124.8,366.8v18.7h4c1.8,0,3.2-0.7,4.3-2c1.1-1.3,1.6-3,1.6-5.1v-4.5c0-2.1-0.5-3.8-1.6-5.1 c-1.1-1.3-2.5-2-4.3-2H124.8z"/><path class="st0" d="M167.2,380.7l0,0.1c0,2.9-0.8,5.1-2.6,6.8c-1.8,1.6-4.3,2.4-7.5,2.4c-3.2,0-5.9-1-7.8-3.1c-2-2.1-3-4.8-3-8.1 v-5.4c0-3.3,1-6,2.9-8.1c1.9-2.1,4.5-3.1,7.6-3.1c3.3,0,5.9,0.8,7.7,2.4c1.9,1.6,2.8,3.9,2.7,6.8l0,0.1H162c0-1.7-0.4-3-1.3-3.9 c-0.8-0.8-2.1-1.3-3.9-1.3c-1.6,0-2.9,0.7-3.8,2c-0.9,1.3-1.4,3-1.4,5.1v5.4c0,2.1,0.5,3.8,1.4,5.1c1,1.3,2.3,2,4,2 c1.6,0,2.8-0.4,3.6-1.3c0.8-0.8,1.2-2.1,1.2-3.9H167.2z"/><path class="st0" d="M187.7,383.8h-8.8l-1.8,5.8h-5.7l9.1-27h5.5l9.1,27h-5.7L187.7,383.8z M180.3,379.6h6.1l-3-9.5h-0.1 L180.3,379.6z"/><path class="st0" d="M214.3,382.6c0-1-0.4-1.9-1.1-2.5s-2-1.2-3.8-1.8c-3.1-0.9-5.5-2-7.1-3.3c-1.6-1.3-2.4-3-2.4-5.2 c0-2.2,0.9-4,2.7-5.4c1.8-1.4,4.1-2.1,7-2.1c3,0,5.4,0.8,7.2,2.3c1.8,1.5,2.7,3.5,2.6,5.9l0,0.1h-5.3c0-1.3-0.4-2.4-1.2-3.1 c-0.8-0.7-2-1.1-3.4-1.1c-1.3,0-2.4,0.3-3.1,1c-0.7,0.6-1.1,1.5-1.1,2.5c0,0.9,0.4,1.7,1.2,2.3c0.8,0.6,2.2,1.2,4.1,1.9 c3,0.8,5.2,1.9,6.8,3.3c1.6,1.4,2.3,3.1,2.3,5.4c0,2.3-0.9,4.1-2.7,5.5c-1.8,1.3-4.2,2-7.2,2c-2.9,0-5.4-0.7-7.5-2.2 c-2.1-1.4-3.1-3.6-3-6.5l0-0.1h5.3c0,1.6,0.5,2.8,1.4,3.5c0.9,0.8,2.2,1.1,3.8,1.1c1.4,0,2.6-0.3,3.3-0.9 C214,384.5,214.3,383.6,214.3,382.6z"/><path class="st0" d="M245.1,366.8h-7.7v22.8h-5.4v-22.8h-7.6v-4.2h20.7V366.8z"/><path class="st0" d="M256.3,389.7h-5.4v-27h5.4V389.7z"/><path class="st0" d="M286,389.7h-5.4l-10.9-18.2l-0.1,0v18.2h-5.4v-27h5.4l10.9,18.2l0.1,0v-18.2h5.4V389.7z"/><path class="st0" d="M314.1,386c-0.8,1.1-2.1,2.1-3.8,2.9c-1.7,0.8-3.8,1.2-6.5,1.2c-3.3,0-5.9-1-8-3.1c-2.1-2.1-3.1-4.7-3.1-8 v-5.6c0-3.3,1-5.9,3-8c2-2.1,4.6-3.1,7.8-3.1c3.3,0,5.8,0.8,7.6,2.3c1.8,1.6,2.6,3.7,2.5,6.3l0,0.1h-5.1c0-1.4-0.4-2.6-1.2-3.3 c-0.8-0.8-2-1.2-3.6-1.2c-1.7,0-3,0.6-4,1.9c-1,1.3-1.5,2.9-1.5,4.9v5.7c0,2,0.5,3.7,1.6,5c1,1.3,2.4,1.9,4.2,1.9 c1.3,0,2.3-0.1,3.1-0.4c0.7-0.3,1.3-0.6,1.7-1v-5.2h-5.2v-3.7h10.6V386z"/><path class="st0" d="M355,378.6c0,1.4-0.2,2.6-0.6,3.8c-0.4,1.2-0.9,2.3-1.6,3.2l4,4l-3.5,2.9l-4-3.9c-0.8,0.4-1.7,0.8-2.7,1 c-0.9,0.2-1.9,0.3-3,0.3c-3.3,0-6-1.1-8.1-3.2c-2.1-2.2-3.1-4.9-3.1-8.2v-4.9c0-3.3,1-6,3.1-8.2c2.1-2.2,4.8-3.3,8.1-3.3 c3.4,0,6.1,1.1,8.2,3.3c2.1,2.2,3.2,4.9,3.2,8.2V378.6z M349.6,373.7c0-2.1-0.5-3.8-1.6-5.2c-1.1-1.3-2.5-2-4.4-2 c-1.8,0-3.3,0.7-4.3,2c-1,1.3-1.5,3.1-1.5,5.2v4.9c0,2.1,0.5,3.9,1.5,5.2c1,1.3,2.5,2,4.3,2c1.9,0,3.3-0.7,4.3-2 c1-1.3,1.6-3.1,1.6-5.2V373.7z"/><path class="st0" d="M383.7,362.7v17.7c0,3-1,5.4-3,7.1c-2,1.7-4.6,2.6-7.8,2.6c-3.2,0-5.8-0.9-7.8-2.6c-2-1.7-3-4.1-3-7.1v-17.7 h5.4v17.7c0,1.8,0.5,3.2,1.4,4.1c1,1,2.3,1.4,3.9,1.4c1.7,0,3-0.5,4-1.4c1-1,1.5-2.3,1.5-4.1v-17.7H383.7z"/><path class="st0" d="M404.6,383.8h-8.8l-1.8,5.8h-5.7l9.1-27h5.5l9.1,27h-5.7L404.6,383.8z M397.1,379.6h6.1l-3-9.5h-0.1 L397.1,379.6z"/><path class="st0" d="M422.5,385.5h12.1v4.2h-17.5v-27h5.4V385.5z"/><path class="st0" d="M446.5,389.7h-5.4v-27h5.4V389.7z"/><path class="st0" d="M472.6,366.8h-7.7v22.8h-5.4v-22.8h-7.6v-4.2h20.7V366.8z"/><path class="st0" d="M487.9,375.1h0.1l5.9-12.5h5.9l-9.3,17.5v9.5h-5.4v-9.8l-9.1-17.2h5.9L487.9,375.1z"/><path class="st0" d="M537.2,380.7l0,0.1c0,2.9-0.8,5.1-2.6,6.8c-1.8,1.6-4.3,2.4-7.5,2.4c-3.2,0-5.9-1-7.8-3.1c-2-2.1-3-4.8-3-8.1 v-5.4c0-3.3,1-6,2.9-8.1c1.9-2.1,4.5-3.1,7.6-3.1c3.3,0,5.9,0.8,7.7,2.4c1.9,1.6,2.8,3.9,2.7,6.8l0,0.1H532c0-1.7-0.4-3-1.3-3.9 c-0.8-0.8-2.1-1.3-3.9-1.3c-1.6,0-2.9,0.7-3.8,2c-0.9,1.3-1.4,3-1.4,5.1v5.4c0,2.1,0.5,3.8,1.4,5.1c1,1.3,2.3,2,4,2 c1.6,0,2.8-0.4,3.6-1.3c0.8-0.8,1.2-2.1,1.2-3.9H537.2z"/><path class="st0" d="M565.4,378.6c0,3.3-1,6.1-3.1,8.2c-2.1,2.2-4.8,3.2-8.2,3.2c-3.3,0-6-1.1-8.1-3.2c-2.1-2.2-3.1-4.9-3.1-8.2 v-4.9c0-3.3,1-6,3.1-8.2c2.1-2.2,4.8-3.3,8.1-3.3c3.4,0,6.1,1.1,8.2,3.3c2.1,2.2,3.2,4.9,3.2,8.2V378.6z M560.1,373.7 c0-2.1-0.5-3.8-1.6-5.2c-1.1-1.3-2.5-2-4.4-2c-1.8,0-3.3,0.7-4.3,2c-1,1.3-1.5,3.1-1.5,5.2v4.9c0,2.1,0.5,3.9,1.5,5.2 c1,1.3,2.5,2,4.3,2c1.9,0,3.3-0.7,4.3-2c1-1.3,1.6-3.1,1.6-5.2V373.7z"/><path class="st0" d="M594,389.7h-5.4l-10.9-18.2l-0.1,0v18.2h-5.4v-27h5.4l10.9,18.2l0.1,0v-18.2h5.4V389.7z"/><path class="st0" d="M619.8,366.8h-7.7v22.8h-5.4v-22.8H599v-4.2h20.7V366.8z"/><path class="st0" d="M640.7,377.8h-10v7.7h11.9v4.2h-17.3v-27h17.3v4.2h-11.9v6.8h10V377.8z"/><path class="st0" d="M670.7,389.7h-5.4l-10.9-18.2l-0.1,0v18.2h-5.4v-27h5.4l10.9,18.2l0.1,0v-18.2h5.4V389.7z"/><path class="st0" d="M696.4,366.8h-7.7v22.8h-5.4v-22.8h-7.6v-4.2h20.7V366.8z"/><path class="st0" d="M702.3,389.4l-3,5.8h-3.6l1.3-6V385h5.3V389.4z"/><path class="st0" d="M16.5,430.6v9.8h-5.4v-27h10.3c3.1,0,5.5,0.8,7.3,2.4c1.8,1.6,2.7,3.7,2.7,6.3c0,2.6-0.9,4.7-2.7,6.2 c-1.8,1.6-4.2,2.4-7.3,2.4H16.5z M16.5,426.4h4.9c1.5,0,2.7-0.4,3.4-1.2c0.8-0.8,1.2-1.9,1.2-3.1c0-1.3-0.4-2.4-1.2-3.2 c-0.8-0.8-1.9-1.3-3.4-1.3h-4.9V426.4z"/><path class="st0" d="M53.2,428.5h-10v7.7h11.9v4.2H37.8v-27h17.3v4.2H43.2v6.8h10V428.5z"/><path class="st0" d="M66.8,429.6v10.8h-5.4v-27h9.4c3.1,0,5.5,0.7,7.2,2.1c1.7,1.4,2.6,3.4,2.6,5.9c0,1.4-0.4,2.6-1.1,3.6 c-0.7,1-1.8,1.8-3.2,2.4c1.6,0.5,2.7,1.3,3.4,2.4c0.7,1.1,1,2.5,1,4.1v2c0,0.8,0.1,1.5,0.3,2.4c0.2,0.8,0.6,1.4,1,1.8v0.4h-5.6 c-0.5-0.4-0.8-1.1-1-2c-0.1-0.9-0.2-1.8-0.2-2.7v-1.9c0-1.3-0.4-2.4-1.1-3.1c-0.7-0.7-1.8-1.1-3.1-1.1H66.8z M66.8,425.4h3.8 c1.5,0,2.7-0.3,3.4-1c0.7-0.6,1.1-1.6,1.1-2.9c0-1.2-0.4-2.2-1.1-3c-0.7-0.7-1.8-1.1-3.3-1.1h-3.9V425.4z"/><path class="st0" d="M103.9,429.1H93.5v11.2h-5.4v-27h17.7v4.2H93.5v7.4h10.4V429.1z"/><path class="st0" d="M133.5,429.3c0,3.3-1,6.1-3.1,8.2c-2.1,2.2-4.8,3.2-8.2,3.2c-3.3,0-6-1.1-8.1-3.2c-2.1-2.2-3.1-4.9-3.1-8.2 v-4.9c0-3.3,1-6,3.1-8.2c2.1-2.2,4.8-3.3,8.1-3.3c3.4,0,6.1,1.1,8.2,3.3c2.1,2.2,3.2,4.9,3.2,8.2V429.3z M128.1,424.4 c0-2.1-0.5-3.8-1.6-5.2c-1.1-1.3-2.5-2-4.4-2c-1.8,0-3.3,0.7-4.3,2c-1,1.3-1.5,3.1-1.5,5.2v4.9c0,2.1,0.5,3.9,1.5,5.2 c1,1.3,2.5,2,4.3,2c1.9,0,3.3-0.7,4.3-2c1-1.3,1.6-3.1,1.6-5.2V424.4z"/><path class="st0" d="M145.7,429.6v10.8h-5.4v-27h9.4c3.1,0,5.5,0.7,7.2,2.1c1.7,1.4,2.6,3.4,2.6,5.9c0,1.4-0.4,2.6-1.1,3.6 c-0.7,1-1.8,1.8-3.2,2.4c1.6,0.5,2.7,1.3,3.4,2.4c0.7,1.1,1,2.5,1,4.1v2c0,0.8,0.1,1.5,0.3,2.4c0.2,0.8,0.6,1.4,1,1.8v0.4h-5.6 c-0.5-0.4-0.8-1.1-1-2c-0.1-0.9-0.2-1.8-0.2-2.7v-1.9c0-1.3-0.4-2.4-1.1-3.1c-0.7-0.7-1.8-1.1-3.1-1.1H145.7z M145.7,425.4h3.8 c1.5,0,2.7-0.3,3.4-1c0.7-0.6,1.1-1.6,1.1-2.9c0-1.2-0.4-2.2-1.1-3c-0.7-0.7-1.8-1.1-3.3-1.1h-3.9V425.4z"/><path class="st0" d="M181,433.3h0.1l6.9-19.9h7.1v27h-5.4v-18.4l-0.1,0l-6.7,18.5h-3.7l-6.7-18.5l-0.1,0v18.5H167v-27h7.1 L181,433.3z"/><path class="st0" d="M218,428.5h-10v7.7h11.9v4.2h-17.3v-27h17.3v4.2h-11.9v6.8h10V428.5z"/><path class="st0" d="M226.1,440.4v-27h9.4c3.3,0,6,1.1,8.2,3.2c2.1,2.1,3.2,4.8,3.2,8.1v4.5c0,3.3-1.1,6-3.2,8.1 c-2.1,2.1-4.9,3.1-8.2,3.1H226.1z M231.5,417.5v18.7h4c1.8,0,3.2-0.7,4.3-2c1.1-1.3,1.6-3,1.6-5.1v-4.5c0-2.1-0.5-3.8-1.6-5.1 c-1.1-1.3-2.5-2-4.3-2H231.5z"/><path class="st0" d="M265.7,440.4v-27h8.9c3.2,0,5.7,0.6,7.4,1.9c1.8,1.2,2.7,3.1,2.7,5.5c0,1.2-0.3,2.3-1,3.3 c-0.6,1-1.6,1.7-2.8,2.2c1.7,0.3,3,1,3.8,2.2s1.3,2.5,1.3,4c0,2.6-0.9,4.5-2.6,5.9c-1.7,1.3-4.1,2-7.3,2H265.7z M271.1,424.7h3.6 c1.4,0,2.6-0.3,3.3-0.9s1.2-1.5,1.2-2.6c0-1.2-0.4-2.2-1.2-2.8c-0.8-0.6-2-0.9-3.5-0.9h-3.4V424.7z M271.1,428.4v7.8h5 c1.4,0,2.5-0.3,3.3-0.9c0.8-0.6,1.1-1.5,1.1-2.8c0-1.3-0.4-2.3-1.1-3s-1.9-1.1-3.4-1.1H271.1z"/><path class="st0" d="M300.9,425.8h0.1l5.9-12.5h5.9l-9.3,17.5v9.5h-5.4v-9.8l-9.1-17.2h5.9L300.9,425.8z"/><path class="st0" d="M335.3,436.2h12.1v4.2h-17.5v-27h5.4V436.2z"/><path class="st0" d="M374.9,429.3c0,3.3-1,6.1-3.1,8.2c-2.1,2.2-4.8,3.2-8.2,3.2c-3.3,0-6-1.1-8.1-3.2c-2.1-2.2-3.1-4.9-3.1-8.2 v-4.9c0-3.3,1-6,3.1-8.2c2.1-2.2,4.8-3.3,8.1-3.3c3.4,0,6.1,1.1,8.2,3.3c2.1,2.2,3.2,4.9,3.2,8.2V429.3z M369.5,424.4 c0-2.1-0.5-3.8-1.6-5.2c-1.1-1.3-2.5-2-4.4-2c-1.8,0-3.3,0.7-4.3,2c-1,1.3-1.5,3.1-1.5,5.2v4.9c0,2.1,0.5,3.9,1.5,5.2 c1,1.3,2.5,2,4.3,2c1.9,0,3.3-0.7,4.3-2c1-1.3,1.6-3.1,1.6-5.2V424.4z"/><path class="st0" d="M401.9,431.4l0,0.1c0,2.9-0.8,5.1-2.6,6.8c-1.8,1.6-4.3,2.4-7.5,2.4c-3.2,0-5.9-1-7.8-3.1c-2-2.1-3-4.8-3-8.1 v-5.4c0-3.3,1-6,2.9-8.1c1.9-2.1,4.5-3.1,7.6-3.1c3.3,0,5.9,0.8,7.7,2.4c1.9,1.6,2.8,3.9,2.7,6.8l0,0.1h-5.3c0-1.7-0.4-3-1.3-3.9 c-0.8-0.8-2.1-1.3-3.9-1.3c-1.6,0-2.9,0.7-3.8,2c-0.9,1.3-1.4,3-1.4,5.1v5.4c0,2.1,0.5,3.8,1.4,5.1c1,1.3,2.3,2,4,2 c1.6,0,2.8-0.4,3.6-1.3c0.8-0.8,1.2-2.1,1.2-3.9H401.9z"/><path class="st0" d="M422.4,434.5h-8.8l-1.8,5.8h-5.7l9.1-27h5.5l9.1,27h-5.7L422.4,434.5z M415,430.3h6.1l-3-9.5H418L415,430.3z"/><path class="st0" d="M440.4,436.2h12.1v4.2h-17.5v-27h5.4V436.2z"/><path class="st0" d="M484.5,434.5h-8.8l-1.8,5.8h-5.7l9.1-27h5.5l9.1,27h-5.7L484.5,434.5z M477.1,430.3h6.1l-3-9.5h-0.1 L477.1,430.3z"/><path class="st0" d="M518.9,440.4h-5.4l-10.9-18.2l-0.1,0v18.2h-5.4v-27h5.4l10.9,18.2l0.1,0v-18.2h5.4V440.4z"/><path class="st0" d="M526.4,440.4v-27h9.4c3.3,0,6,1.1,8.2,3.2c2.1,2.1,3.2,4.8,3.2,8.1v4.5c0,3.3-1.1,6-3.2,8.1 c-2.1,2.1-4.9,3.1-8.2,3.1H526.4z M531.8,417.5v18.7h4c1.8,0,3.2-0.7,4.3-2c1.1-1.3,1.6-3,1.6-5.1v-4.5c0-2.1-0.5-3.8-1.6-5.1 c-1.1-1.3-2.5-2-4.3-2H531.8z"/><path class="st0" d="M581.7,429.1h-10.4v11.2h-5.4v-27h17.7v4.2h-12.3v7.4h10.4V429.1z"/><path class="st0" d="M611.4,429.3c0,3.3-1,6.1-3.1,8.2c-2.1,2.2-4.8,3.2-8.2,3.2c-3.3,0-6-1.1-8.1-3.2c-2.1-2.2-3.1-4.9-3.1-8.2 v-4.9c0-3.3,1-6,3.1-8.2c2.1-2.2,4.8-3.3,8.1-3.3c3.4,0,6.1,1.1,8.2,3.3c2.1,2.2,3.2,4.9,3.2,8.2V429.3z M606,424.4 c0-2.1-0.5-3.8-1.6-5.2c-1.1-1.3-2.5-2-4.4-2c-1.8,0-3.3,0.7-4.3,2c-1,1.3-1.5,3.1-1.5,5.2v4.9c0,2.1,0.5,3.9,1.5,5.2 c1,1.3,2.5,2,4.3,2c1.9,0,3.3-0.7,4.3-2c1-1.3,1.6-3.1,1.6-5.2V424.4z"/><path class="st0" d="M623.6,429.6v10.8h-5.4v-27h9.4c3.1,0,5.5,0.7,7.2,2.1c1.7,1.4,2.6,3.4,2.6,5.9c0,1.4-0.4,2.6-1.1,3.6 c-0.7,1-1.8,1.8-3.2,2.4c1.6,0.5,2.7,1.3,3.4,2.4c0.7,1.1,1,2.5,1,4.1v2c0,0.8,0.1,1.5,0.3,2.4c0.2,0.8,0.6,1.4,1,1.8v0.4h-5.6 c-0.5-0.4-0.8-1.1-1-2c-0.1-0.9-0.2-1.8-0.2-2.7v-1.9c0-1.3-0.4-2.4-1.1-3.1c-0.7-0.7-1.8-1.1-3.1-1.1H623.6z M623.6,425.4h3.8 c1.5,0,2.7-0.3,3.4-1c0.7-0.6,1.1-1.6,1.1-2.9c0-1.2-0.4-2.2-1.1-3c-0.7-0.7-1.8-1.1-3.3-1.1h-3.9V425.4z"/><path class="st0" d="M660.3,428.5h-10v7.7h11.9v4.2h-17.3v-27h17.3v4.2h-11.9v6.8h10V428.5z"/><path class="st0" d="M674.2,440.4h-5.4v-27h5.4V440.4z"/><path class="st0" d="M702.8,436.7c-0.8,1.1-2.1,2.1-3.8,2.9c-1.7,0.8-3.8,1.2-6.5,1.2c-3.3,0-5.9-1-8-3.1c-2.1-2.1-3.1-4.7-3.1-8 V424c0-3.3,1-5.9,3-8c2-2.1,4.6-3.1,7.8-3.1c3.3,0,5.8,0.8,7.6,2.3c1.8,1.6,2.6,3.7,2.5,6.3l0,0.1h-5.1c0-1.4-0.4-2.6-1.2-3.3 c-0.8-0.8-2-1.2-3.6-1.2c-1.7,0-3,0.6-4,1.9c-1,1.3-1.5,2.9-1.5,4.9v5.7c0,2,0.5,3.7,1.6,5c1,1.3,2.4,1.9,4.2,1.9 c1.3,0,2.3-0.1,3.1-0.4c0.7-0.3,1.3-0.6,1.7-1V430h-5.2v-3.7h10.6V436.7z"/><path class="st0" d="M731.7,440.4h-5.4l-10.9-18.2l-0.1,0v18.2h-5.4v-27h5.4l10.9,18.2l0.1,0v-18.2h5.4V440.4z"/><path class="st0" d="M765.1,434.5h-8.8l-1.8,5.8h-5.7l9.1-27h5.5l9.1,27H767L765.1,434.5z M757.7,430.3h6.1l-3-9.5h-0.1 L757.7,430.3z"/><path class="st0" d="M783.1,429.6v10.8h-5.4v-27h9.4c3.1,0,5.5,0.7,7.2,2.1c1.7,1.4,2.6,3.4,2.6,5.9c0,1.4-0.4,2.6-1.1,3.6 c-0.7,1-1.8,1.8-3.2,2.4c1.6,0.5,2.7,1.3,3.4,2.4c0.7,1.1,1,2.5,1,4.1v2c0,0.8,0.1,1.5,0.3,2.4c0.2,0.8,0.6,1.4,1,1.8v0.4h-5.6 c-0.5-0.4-0.8-1.1-1-2c-0.1-0.9-0.2-1.8-0.2-2.7v-1.9c0-1.3-0.4-2.4-1.1-3.1c-0.7-0.7-1.8-1.1-3.1-1.1H783.1z M783.1,425.4h3.8 c1.5,0,2.7-0.3,3.4-1c0.7-0.6,1.1-1.6,1.1-2.9c0-1.2-0.4-2.2-1.1-3c-0.7-0.7-1.8-1.1-3.3-1.1h-3.9V425.4z"/><path class="st0" d="M822.3,417.5h-7.7v22.8h-5.4v-22.8h-7.6v-4.2h20.7V417.5z"/><path class="st0" d="M833.5,440.4h-5.4v-27h5.4V440.4z"/><path class="st0" d="M855.4,433.3c0-1-0.4-1.9-1.1-2.5s-2-1.2-3.8-1.8c-3.1-0.9-5.5-2-7.1-3.3c-1.6-1.3-2.4-3-2.4-5.2 c0-2.2,0.9-4,2.7-5.4c1.8-1.4,4.1-2.1,7-2.1c3,0,5.4,0.8,7.2,2.3c1.8,1.5,2.7,3.5,2.6,5.9l0,0.1h-5.2c0-1.3-0.4-2.4-1.2-3.1 c-0.8-0.7-2-1.1-3.4-1.1c-1.3,0-2.4,0.3-3.1,1c-0.7,0.6-1.1,1.5-1.1,2.5c0,0.9,0.4,1.7,1.2,2.3c0.8,0.6,2.2,1.2,4.1,1.9 c3,0.8,5.2,1.9,6.8,3.3c1.6,1.4,2.3,3.1,2.3,5.4c0,2.3-0.9,4.1-2.7,5.5c-1.8,1.3-4.2,2-7.2,2c-2.9,0-5.4-0.7-7.5-2.2 c-2.1-1.4-3.1-3.6-3-6.5l0-0.1h5.3c0,1.6,0.5,2.8,1.4,3.5c0.9,0.8,2.2,1.1,3.8,1.1c1.4,0,2.6-0.3,3.3-0.9 C855.1,435.1,855.4,434.3,855.4,433.3z"/><path class="st0" d="M886.1,417.5h-7.7v22.8H873v-22.8h-7.6v-4.2h20.7V417.5z"/><path class="st0" d="M905.4,433.3c0-1-0.4-1.9-1.1-2.5c-0.7-0.6-2-1.2-3.8-1.8c-3.1-0.9-5.5-2-7.1-3.3c-1.6-1.3-2.4-3-2.4-5.2 c0-2.2,0.9-4,2.7-5.4c1.8-1.4,4.1-2.1,7-2.1c3,0,5.4,0.8,7.2,2.3c1.8,1.5,2.7,3.5,2.6,5.9l0,0.1h-5.3c0-1.3-0.4-2.4-1.2-3.1 c-0.8-0.7-2-1.1-3.4-1.1c-1.3,0-2.4,0.3-3.1,1c-0.7,0.6-1.1,1.5-1.1,2.5c0,0.9,0.4,1.7,1.2,2.3c0.8,0.6,2.2,1.2,4.1,1.9 c3,0.8,5.2,1.9,6.8,3.3c1.6,1.4,2.3,3.1,2.3,5.4c0,2.3-0.9,4.1-2.7,5.5s-4.2,2-7.2,2c-2.9,0-5.4-0.7-7.5-2.2s-3.1-3.6-3-6.5l0-0.1 h5.3c0,1.6,0.5,2.8,1.4,3.5c0.9,0.8,2.2,1.1,3.8,1.1c1.4,0,2.6-0.3,3.3-0.9C905,435.1,905.4,434.3,905.4,433.3z"/><path class="st0" d="M922.5,440.1l-3,5.8h-3.6l1.3-6v-4.2h5.3V440.1z"/><path class="st0" d="M16.5,481.3v9.8h-5.4v-27h10.3c3.1,0,5.5,0.8,7.3,2.4c1.8,1.6,2.7,3.7,2.7,6.3c0,2.6-0.9,4.7-2.7,6.2 c-1.8,1.6-4.2,2.4-7.3,2.4H16.5z M16.5,477.1h4.9c1.5,0,2.7-0.4,3.4-1.2c0.8-0.8,1.2-1.9,1.2-3.1c0-1.3-0.4-2.4-1.2-3.2 c-0.8-0.8-1.9-1.3-3.4-1.3h-4.9V477.1z"/><path class="st0" d="M43.2,480.3v10.8h-5.4v-27h9.4c3.1,0,5.5,0.7,7.2,2.1c1.7,1.4,2.6,3.4,2.6,5.9c0,1.4-0.4,2.6-1.1,3.6 c-0.7,1-1.8,1.8-3.2,2.4c1.6,0.5,2.7,1.3,3.4,2.4c0.7,1.1,1,2.5,1,4.1v2c0,0.8,0.1,1.5,0.3,2.4c0.2,0.8,0.6,1.4,1,1.8v0.4h-5.6 c-0.5-0.4-0.8-1.1-1-2c-0.1-0.9-0.2-1.8-0.2-2.7v-1.9c0-1.3-0.4-2.4-1.1-3.1c-0.7-0.7-1.8-1.1-3.1-1.1H43.2z M43.2,476.1h3.8 c1.5,0,2.7-0.3,3.4-1c0.7-0.6,1.1-1.6,1.1-2.9c0-1.2-0.4-2.2-1.1-3c-0.7-0.7-1.8-1.1-3.3-1.1h-3.9V476.1z"/><path class="st0" d="M86.3,480c0,3.3-1,6.1-3.1,8.2c-2.1,2.2-4.8,3.2-8.2,3.2c-3.3,0-6-1.1-8.1-3.2c-2.1-2.2-3.1-4.9-3.1-8.2v-4.9 c0-3.3,1-6,3.1-8.2c2.1-2.2,4.8-3.3,8.1-3.3c3.4,0,6.1,1.1,8.2,3.3c2.1,2.2,3.2,4.9,3.2,8.2V480z M80.9,475.1 c0-2.1-0.5-3.8-1.6-5.2c-1.1-1.3-2.5-2-4.4-2c-1.8,0-3.3,0.7-4.3,2c-1,1.3-1.5,3.1-1.5,5.2v4.9c0,2.1,0.5,3.9,1.5,5.2 c1,1.3,2.5,2,4.3,2c1.9,0,3.3-0.7,4.3-2c1-1.3,1.6-3.1,1.6-5.2V475.1z"/><path class="st0" d="M93.1,491.1v-27h9.4c3.3,0,6,1.1,8.2,3.2c2.1,2.1,3.2,4.8,3.2,8.1v4.5c0,3.3-1.1,6-3.2,8.1 c-2.1,2.1-4.9,3.1-8.2,3.1H93.1z M98.5,468.2v18.7h4c1.8,0,3.2-0.7,4.3-2c1.1-1.3,1.6-3,1.6-5.1v-4.5c0-2.1-0.5-3.8-1.6-5.1 c-1.1-1.3-2.5-2-4.3-2H98.5z"/><path class="st0" d="M142.1,464v17.7c0,3-1,5.4-3,7.1c-2,1.7-4.6,2.6-7.8,2.6c-3.2,0-5.8-0.9-7.8-2.6c-2-1.7-3-4.1-3-7.1V464h5.4 v17.7c0,1.8,0.5,3.2,1.4,4.1c1,1,2.3,1.4,3.9,1.4c1.7,0,3-0.5,4-1.4c1-1,1.5-2.3,1.5-4.1V464H142.1z"/><path class="st0" d="M169.5,482.1l0,0.1c0,2.9-0.8,5.1-2.6,6.8c-1.8,1.6-4.3,2.4-7.5,2.4c-3.2,0-5.9-1-7.8-3.1c-2-2.1-3-4.8-3-8.1 v-5.4c0-3.3,1-6,2.9-8.1c1.9-2.1,4.5-3.1,7.6-3.1c3.3,0,5.9,0.8,7.7,2.4c1.9,1.6,2.8,3.9,2.7,6.8l0,0.1h-5.3c0-1.7-0.4-3-1.3-3.9 c-0.8-0.8-2.1-1.3-3.9-1.3c-1.6,0-2.9,0.7-3.8,2c-0.9,1.3-1.4,3-1.4,5.1v5.4c0,2.1,0.5,3.8,1.4,5.1c1,1.3,2.3,2,4,2 c1.6,0,2.8-0.4,3.6-1.3c0.8-0.8,1.2-2.1,1.2-3.9H169.5z"/><path class="st0" d="M191.4,479.2h-10v7.7h11.9v4.2h-17.3v-27h17.3v4.2h-11.9v6.8h10V479.2z"/><path class="st0" d="M199.5,491.1v-27h9.4c3.3,0,6,1.1,8.2,3.2c2.1,2.1,3.2,4.8,3.2,8.1v4.5c0,3.3-1.1,6-3.2,8.1 c-2.1,2.1-4.9,3.1-8.2,3.1H199.5z M205,468.2v18.7h4c1.8,0,3.2-0.7,4.3-2c1.1-1.3,1.6-3,1.6-5.1v-4.5c0-2.1-0.5-3.8-1.6-5.1 c-1.1-1.3-2.5-2-4.3-2H205z"/><path class="st0" d="M253.2,485.2h-8.8l-1.8,5.8h-5.7l9.1-27h5.5l9.1,27H255L253.2,485.2z M245.7,481h6.1l-3-9.5h-0.1L245.7,481z"/><path class="st0" d="M287.6,491.1h-5.4l-10.9-18.2l-0.1,0v18.2h-5.4v-27h5.4l10.9,18.2l0.1,0V464h5.4V491.1z"/><path class="st0" d="M295,491.1v-27h9.4c3.3,0,6,1.1,8.2,3.2c2.1,2.1,3.2,4.8,3.2,8.1v4.5c0,3.3-1.1,6-3.2,8.1 c-2.1,2.1-4.9,3.1-8.2,3.1H295z M300.4,468.2v18.7h4c1.8,0,3.2-0.7,4.3-2c1.1-1.3,1.6-3,1.6-5.1v-4.5c0-2.1-0.5-3.8-1.6-5.1 c-1.1-1.3-2.5-2-4.3-2H300.4z"/><path class="st0" d="M340,480.3v10.8h-5.4v-27h9.4c3.1,0,5.5,0.7,7.2,2.1c1.7,1.4,2.6,3.4,2.6,5.9c0,1.4-0.4,2.6-1.1,3.6 c-0.7,1-1.8,1.8-3.2,2.4c1.6,0.5,2.7,1.3,3.4,2.4c0.7,1.1,1,2.5,1,4.1v2c0,0.8,0.1,1.5,0.3,2.4c0.2,0.8,0.6,1.4,1,1.8v0.4h-5.6 c-0.5-0.4-0.8-1.1-1-2c-0.1-0.9-0.2-1.8-0.2-2.7v-1.9c0-1.3-0.4-2.4-1.1-3.1c-0.7-0.7-1.8-1.1-3.1-1.1H340z M340,476.1h3.8 c1.5,0,2.7-0.3,3.4-1c0.7-0.6,1.1-1.6,1.1-2.9c0-1.2-0.4-2.2-1.1-3c-0.7-0.7-1.8-1.1-3.3-1.1H340V476.1z"/><path class="st0" d="M376.7,479.2h-10v7.7h11.9v4.2h-17.3v-27h17.3v4.2h-11.9v6.8h10V479.2z"/><path class="st0" d="M405.1,482.1l0,0.1c0,2.9-0.8,5.1-2.6,6.8c-1.8,1.6-4.3,2.4-7.5,2.4c-3.2,0-5.9-1-7.8-3.1c-2-2.1-3-4.8-3-8.1 v-5.4c0-3.3,1-6,2.9-8.1c1.9-2.1,4.5-3.1,7.6-3.1c3.3,0,5.9,0.8,7.7,2.4c1.9,1.6,2.8,3.9,2.7,6.8l0,0.1h-5.3c0-1.7-0.4-3-1.3-3.9 c-0.8-0.8-2.1-1.3-3.9-1.3c-1.6,0-2.9,0.7-3.8,2c-0.9,1.3-1.4,3-1.4,5.1v5.4c0,2.1,0.5,3.8,1.4,5.1c1,1.3,2.3,2,4,2 c1.6,0,2.8-0.4,3.6-1.3c0.8-0.8,1.2-2.1,1.2-3.9H405.1z"/><path class="st0" d="M433.3,480c0,3.3-1,6.1-3.1,8.2c-2.1,2.2-4.8,3.2-8.2,3.2c-3.3,0-6-1.1-8.1-3.2c-2.1-2.2-3.1-4.9-3.1-8.2 v-4.9c0-3.3,1-6,3.1-8.2c2.1-2.2,4.8-3.3,8.1-3.3c3.4,0,6.1,1.1,8.2,3.3c2.1,2.2,3.2,4.9,3.2,8.2V480z M427.9,475.1 c0-2.1-0.5-3.8-1.6-5.2c-1.1-1.3-2.5-2-4.4-2c-1.8,0-3.3,0.7-4.3,2c-1,1.3-1.5,3.1-1.5,5.2v4.9c0,2.1,0.5,3.9,1.5,5.2 c1,1.3,2.5,2,4.3,2c1.9,0,3.3-0.7,4.3-2c1-1.3,1.6-3.1,1.6-5.2V475.1z"/><path class="st0" d="M445.5,480.3v10.8h-5.4v-27h9.4c3.1,0,5.5,0.7,7.2,2.1c1.7,1.4,2.6,3.4,2.6,5.9c0,1.4-0.4,2.6-1.1,3.6 c-0.7,1-1.8,1.8-3.2,2.4c1.6,0.5,2.7,1.3,3.4,2.4c0.7,1.1,1,2.5,1,4.1v2c0,0.8,0.1,1.5,0.3,2.4c0.2,0.8,0.6,1.4,1,1.8v0.4h-5.6 c-0.5-0.4-0.8-1.1-1-2c-0.1-0.9-0.2-1.8-0.2-2.7v-1.9c0-1.3-0.4-2.4-1.1-3.1c-0.7-0.7-1.8-1.1-3.1-1.1H445.5z M445.5,476.1h3.8 c1.5,0,2.7-0.3,3.4-1c0.7-0.6,1.1-1.6,1.1-2.9c0-1.2-0.4-2.2-1.1-3c-0.7-0.7-1.8-1.1-3.3-1.1h-3.9V476.1z"/><path class="st0" d="M466.8,491.1v-27h9.4c3.3,0,6,1.1,8.2,3.2c2.1,2.1,3.2,4.8,3.2,8.1v4.5c0,3.3-1.1,6-3.2,8.1 c-2.1,2.1-4.9,3.1-8.2,3.1H466.8z M472.2,468.2v18.7h4c1.8,0,3.2-0.7,4.3-2c1.1-1.3,1.6-3,1.6-5.1v-4.5c0-2.1-0.5-3.8-1.6-5.1 c-1.1-1.3-2.5-2-4.3-2H472.2z"/><path class="st0" d="M509.8,479.2h-10v7.7h11.9v4.2h-17.3v-27h17.3v4.2h-11.9v6.8h10V479.2z"/><path class="st0" d="M518,491.1v-27h9.4c3.3,0,6,1.1,8.2,3.2c2.1,2.1,3.2,4.8,3.2,8.1v4.5c0,3.3-1.1,6-3.2,8.1 c-2.1,2.1-4.9,3.1-8.2,3.1H518z M523.4,468.2v18.7h4c1.8,0,3.2-0.7,4.3-2c1.1-1.3,1.6-3,1.6-5.1v-4.5c0-2.1-0.5-3.8-1.6-5.1 c-1.1-1.3-2.5-2-4.3-2H523.4z"/><path class="st0" d="M557.5,491.1v-27h8.9c3.2,0,5.7,0.6,7.4,1.9c1.8,1.2,2.7,3.1,2.7,5.5c0,1.2-0.3,2.3-1,3.3 c-0.6,1-1.6,1.7-2.8,2.2c1.7,0.3,3,1,3.8,2.2s1.3,2.5,1.3,4c0,2.6-0.9,4.5-2.6,5.9c-1.7,1.3-4.1,2-7.3,2H557.5z M563,475.4h3.6 c1.4,0,2.6-0.3,3.3-0.9s1.2-1.5,1.2-2.6c0-1.2-0.4-2.2-1.2-2.8s-2-0.9-3.5-0.9H563V475.4z M563,479.1v7.8h5c1.4,0,2.5-0.3,3.3-0.9 c0.8-0.6,1.1-1.5,1.1-2.8c0-1.3-0.4-2.3-1.1-3s-1.9-1.1-3.4-1.1H563z"/><path class="st0" d="M592.7,476.5h0.1l5.9-12.5h5.9l-9.3,17.5v9.5H590v-9.8l-9.1-17.2h5.9L592.7,476.5z"/><path class="st0" d="M643.2,464v17.7c0,3-1,5.4-3,7.1c-2,1.7-4.6,2.6-7.8,2.6c-3.2,0-5.8-0.9-7.8-2.6c-2-1.7-3-4.1-3-7.1V464h5.4 v17.7c0,1.8,0.5,3.2,1.4,4.1c1,1,2.3,1.4,3.9,1.4c1.7,0,3-0.5,4-1.4c1-1,1.5-2.3,1.5-4.1V464H643.2z"/><path class="st0" d="M664.4,484c0-1-0.4-1.9-1.1-2.5c-0.7-0.6-2-1.2-3.8-1.8c-3.1-0.9-5.5-2-7.1-3.3c-1.6-1.3-2.4-3-2.4-5.2 c0-2.2,0.9-4,2.7-5.4c1.8-1.4,4.1-2.1,7-2.1c3,0,5.4,0.8,7.2,2.3c1.8,1.5,2.7,3.5,2.6,5.9l0,0.1h-5.3c0-1.3-0.4-2.4-1.2-3.1 c-0.8-0.7-2-1.1-3.4-1.1c-1.3,0-2.4,0.3-3.1,1c-0.7,0.6-1.1,1.5-1.1,2.5c0,0.9,0.4,1.7,1.2,2.3c0.8,0.6,2.2,1.2,4.1,1.9 c3,0.8,5.2,1.9,6.8,3.3c1.6,1.4,2.3,3.1,2.3,5.4c0,2.3-0.9,4.1-2.7,5.5s-4.2,2-7.2,2c-2.9,0-5.4-0.7-7.5-2.2s-3.1-3.6-3-6.5l0-0.1 h5.3c0,1.6,0.5,2.8,1.4,3.5c0.9,0.8,2.2,1.1,3.8,1.1c1.4,0,2.6-0.3,3.3-0.9C664.1,485.8,664.4,485,664.4,484z"/><path class="st0" d="M681.9,491.1h-5.4v-4.8h5.4V491.1z"/></g></g></svg>